{
.appVersion = "1075";
DisplayStrings = (
"/saraUee-thai.narrow",
"/saraUee-thai",
"/saraIi-thai",
"/saraIi-thai.narrow"
);
copyright = "Copyright © 2018 by Cadson Demak Co.,Ltd.. All rights reserved.";
customParameters = (
{
name = vendorID;
value = CDK;
},
{
name = description;
value = "Copyright (c) 2018, Cadson Demak (info@cadsondemak.com)";
},
{
name = license;

glyphs = (
{
glyphname = A;
lastChange = "2018-03-10 08:40:14 +0000";
layers = (
{
anchors = (
{
name = bottom;
position = "{359, 0}";
},
{
name = ogonek;
position = "{642, 10}";
},
{
name = top;
position = "{359, 700}";
}
);
guideLines = (
{
position = "{793, 710}";
}
);
layerId = "0B1DFD06-3317-40CA-B510-4969A0718C16";
paths = (
{
closed = 1;
nodes = (
"124 -10 OFFCURVE",
"133 2 OFFCURVE",
"133 22 CURVE SMOOTH",
"133 270 LINE",
"585 270 LINE",
"585 22 LINE SMOOTH",
"585 2 OFFCURVE",
"594 -10 OFFCURVE",
"612 -10 CURVE SMOOTH",
"630 -10 OFFCURVE",
"638 2 OFFCURVE",
"638 22 CURVE SMOOTH",
"638 429 LINE SMOOTH",
"638 610 OFFCURVE",
"528 710 OFFCURVE",
"359 710 CURVE SMOOTH",
"188 710 OFFCURVE",
"80 610 OFFCURVE",
"80 429 CURVE SMOOTH",
"80 22 LINE SMOOTH",
"80 2 OFFCURVE",
"88 -10 OFFCURVE",
"106 -10 CURVE SMOOTH"
);
},
{
closed = 1;
nodes = (
"133 432 LINE SMOOTH",
"133 581 OFFCURVE",
"215 661 OFFCURVE",
"359 661 CURVE SMOOTH",
"501 661 OFFCURVE",
"585 581 OFFCURVE",
"585 432 CURVE SMOOTH",
"585 317 LINE",
"133 317 LINE"
);
}
);
width = 718;
},
{
anchors = (
{
name = bottom;
position = "{359, 0}";
},
{
name = ogonek;
position = "{623, 10}";
},
{
name = top;
position = "{359, 690}";
}
);
guideLines = (
{
position = "{786, 710}";
}
);
layerId = "258BB4CE-589F-454F-8E39-237B943AA0B4";
paths = (
{
closed = 1;
nodes = (
"149 -9 OFFCURVE",
"178 13 OFFCURVE",
"178 51 CURVE SMOOTH",
"178 214 LINE",
"540 214 LINE",
"540 51 LINE SMOOTH",
"540 13 OFFCURVE",
"569 -9 OFFCURVE",
"607 -9 CURVE SMOOTH",
"646 -9 OFFCURVE",
"673 13 OFFCURVE",
"673 51 CURVE SMOOTH",
"673 401 LINE SMOOTH",
"673 592 OFFCURVE",
"556 710 OFFCURVE",
"359 710 CURVE SMOOTH",
"161 710 OFFCURVE",
"45 593 OFFCURVE",
"45 401 CURVE SMOOTH",
"45 51 LINE SMOOTH",
"45 13 OFFCURVE",
"72 -9 OFFCURVE",
"111 -9 CURVE SMOOTH"
);
},
{
closed = 1;
nodes = (
"178 404 LINE SMOOTH",
"178 537 OFFCURVE",
"237 605 OFFCURVE",
"359 605 CURVE SMOOTH",
"480 605 OFFCURVE",
"540 536 OFFCURVE",
"540 404 CURVE SMOOTH",
"540 317 LINE",
"178 317 LINE"
);
}
);
width = 718;
},
{
anchors = (
{
name = bottom;
position = "{358, 0}";
},
{
name = ogonek;
position = "{633, 10}";
},
{
name = top;
position = "{358, 696}";
}
);
layerId = "8ED59CAD-D047-43C0-8308-3370007B39AA";
paths = (
{
closed = 1;
nodes = (
"133 -10 OFFCURVE",
"150 6 OFFCURVE",
"150 34 CURVE SMOOTH",
"150 248 LINE",
"566 248 LINE",
"566 34 LINE SMOOTH",
"566 6 OFFCURVE",
"583 -10 OFFCURVE",
"609 -10 CURVE SMOOTH",
"635 -10 OFFCURVE",
"651 6 OFFCURVE",
"651 34 CURVE SMOOTH",
"651 418 LINE SMOOTH",
"651 603 OFFCURVE",
"538 710 OFFCURVE",
"358 710 CURVE SMOOTH",
"176 710 OFFCURVE",
"65 603 OFFCURVE",
"65 418 CURVE SMOOTH",
"65 34 LINE SMOOTH",
"65 6 OFFCURVE",
"81 -10 OFFCURVE",
"107 -10 CURVE SMOOTH"
);
},
{
closed = 1;
nodes = (
"150 421 LINE SMOOTH",
"150 563 OFFCURVE",
"223 639 OFFCURVE",
"358 639 CURVE SMOOTH",
"492 639 OFFCURVE",
"566 563 OFFCURVE",
"566 421 CURVE SMOOTH",
"566 317 LINE",
"150 317 LINE"
);
}
);
width = 716;
}
);
leftKerningGroup = A;
note = A;
rightKerningGroup = A;
unicode = 0041;
},
{
glyphname = B;
lastChange = "2018-03-10 08:40:14 +0000";
layers = (
{
anchors = (
{
name = bottom;
position = "{353, 0}";
},
{
name = top;
position = "{353, 700}";
}
);
layerId = "0B1DFD06-3317-40CA-B510-4969A0718C16";
paths = (
{
closed = 1;
nodes = (
"448 0 LINE SMOOTH",
"561 0 OFFCURVE",
"650 64 OFFCURVE",
"650 198 CURVE SMOOTH",
"650 272 OFFCURVE",
"611 333 OFFCURVE",
"536 359 CURVE",
"536 361 LINE",
"608 391 OFFCURVE",
"638 445 OFFCURVE",
"638 510 CURVE SMOOTH",
"638 644 OFFCURVE",
"549 700 OFFCURVE",
"436 700 CURVE SMOOTH",
"196 700 LINE SMOOTH",
"114 700 OFFCURVE",
"80 650 OFFCURVE",
"80 590 CURVE SMOOTH",
"80 110 LINE SMOOTH",
"80 50 OFFCURVE",
"114 0 OFFCURVE",
"196 0 CURVE SMOOTH"
);
},
{
closed = 1;
nodes = (
"157 47 OFFCURVE",
"133 73 OFFCURVE",
"133 107 CURVE SMOOTH",
"133 335 LINE",
"446 335 LINE SMOOTH",
"535 335 OFFCURVE",
"596 286 OFFCURVE",
"596 198 CURVE SMOOTH",
"596 93 OFFCURVE",
"537 47 OFFCURVE",
"448 47 CURVE SMOOTH",
"190 47 LINE SMOOTH"
);
},
{
closed = 1;
nodes = (
"133 593 LINE SMOOTH",
"133 627 OFFCURVE",
"157 653 OFFCURVE",
"190 653 CURVE SMOOTH",
"436 653 LINE SMOOTH",
"525 653 OFFCURVE",
"584 611 OFFCURVE",
"584 510 CURVE SMOOTH",
"584 433 OFFCURVE",
"530 382 OFFCURVE",
"448 382 CURVE SMOOTH",
"133 382 LINE"
);
}
);
width = 705;
},
{
anchors = (
{
name = bottom;
position = "{361, 0}";
},
{
name = top;
position = "{361, 700}";
}
);
layerId = "258BB4CE-589F-454F-8E39-237B943AA0B4";
paths = (
{
closed = 1;
nodes = (
"446 -10 LINE SMOOTH",
"592 -10 OFFCURVE",
"688 67 OFFCURVE",
"688 205 CURVE SMOOTH",
"688 261 OFFCURVE",
"651 329 OFFCURVE",
"579 357 CURVE",
"579 358 LINE",
"646 388 OFFCURVE",
"676 455 OFFCURVE",
"676 506 CURVE SMOOTH",
"676 633 OFFCURVE",
"584 700 OFFCURVE",
"434 700 CURVE SMOOTH",
"203 700 LINE SMOOTH",
"107 700 OFFCURVE",
"50 645 OFFCURVE",
"50 552 CURVE SMOOTH",
"50 142 LINE SMOOTH",
"50 46 OFFCURVE",
"109 -10 OFFCURVE",
"210 -10 CURVE SMOOTH"
);
},
{
closed = 1;
nodes = (
"197 92 OFFCURVE",
"181 110 OFFCURVE",
"181 141 CURVE SMOOTH",
"181 304 LINE",
"434 304 LINE SMOOTH",
"505 304 OFFCURVE",
"554 270 OFFCURVE",
"554 203 CURVE SMOOTH",
"554 121 OFFCURVE",
"505 92 OFFCURVE",
"434 92 CURVE SMOOTH",
"224 92 LINE SMOOTH"
);
},
{
closed = 1;
nodes = (
"181 549 LINE SMOOTH",
"181 580 OFFCURVE",
"197 598 OFFCURVE",
"224 598 CURVE SMOOTH",
"434 598 LINE SMOOTH",
"505 598 OFFCURVE",
"542 567 OFFCURVE",
"542 505 CURVE SMOOTH",
"542 444 OFFCURVE",
"505 405 OFFCURVE",
"434 405 CURVE SMOOTH",
"181 405 LINE"
);
}
);
width = 728;
},
{
anchors = (
{
name = bottom;
position = "{358, 0}";
},
{
name = top;
position = "{358, 700}";
}
);
layerId = "8ED59CAD-D047-43C0-8308-3370007B39AA";
paths = (
{
closed = 1;
nodes = (
"449 -4 LINE SMOOTH",
"575 -4 OFFCURVE",
"667 65 OFFCURVE",
"667 201 CURVE SMOOTH",
"667 268 OFFCURVE",
"629 331 OFFCURVE",
"555 358 CURVE",
"555 360 LINE",
"625 390 OFFCURVE",
"655 449 OFFCURVE",
"655 508 CURVE SMOOTH",
"655 640 OFFCURVE",
"565 700 OFFCURVE",
"437 700 CURVE SMOOTH",
"201 700 LINE SMOOTH",
"113 700 OFFCURVE",
"70 648 OFFCURVE",
"70 575 CURVE SMOOTH",
"70 123 LINE SMOOTH",
"70 48 OFFCURVE",
"114 -4 OFFCURVE",
"204 -4 CURVE SMOOTH"
);
},
{
closed = 1;
nodes = (
"175 65 OFFCURVE",
"154 88 OFFCURVE",
"154 121 CURVE SMOOTH",
"154 323 LINE",
"443 323 LINE SMOOTH",
"525 323 OFFCURVE",
"581 280 OFFCURVE",
"581 200 CURVE SMOOTH",
"581 104 OFFCURVE",
"526 65 OFFCURVE",
"444 65 CURVE SMOOTH",
"206 65 LINE SMOOTH"
);
},
{
closed = 1;
nodes = (
"154 575 LINE SMOOTH",
"154 608 OFFCURVE",
"175 631 OFFCURVE",
"206 631 CURVE SMOOTH",
"437 631 LINE SMOOTH",
"519 631 OFFCURVE",
"569 593 OFFCURVE",
"569 508 CURVE SMOOTH",
"569 437 OFFCURVE",
"522 391 OFFCURVE",
"444 391 CURVE SMOOTH",
"154 391 LINE"
);
}
);
width = 712;
}
);
leftKerningGroup = B;
note = B;
rightKerningGroup = B;
unicode = 0042;
},
{
glyphname = C;
lastChange = "2018-03-10 08:40:14 +0000";
layers = (
{
anchors = (
{
name = bottom;
position = "{396, 0}";
},
{
name = top;
position = "{396, 700}";
}
);
layerId = "0B1DFD06-3317-40CA-B510-4969A0718C16";
paths = (
{
closed = 1;
nodes = (
"493 -10 OFFCURVE",
"608 22 OFFCURVE",
"669 97 CURVE SMOOTH",
"678 108 OFFCURVE",
"678 123 OFFCURVE",
"667 133 CURVE SMOOTH",
"656 143 OFFCURVE",
"637 140 OFFCURVE",
"628 128 CURVE SMOOTH",
"581 65 OFFCURVE",
"489 39 OFFCURVE",
"394 39 CURVE SMOOTH",
"211 39 OFFCURVE",
"109 165 OFFCURVE",
"109 349 CURVE SMOOTH",
"109 533 OFFCURVE",
"211 661 OFFCURVE",
"394 661 CURVE SMOOTH",
"479 661 OFFCURVE",
"571 635 OFFCURVE",
"618 572 CURVE SMOOTH",
"627 560 OFFCURVE",
"645 559 OFFCURVE",
"657 567 CURVE SMOOTH",
"669 575 OFFCURVE",
"668 592 OFFCURVE",
"659 603 CURVE",
"598 678 OFFCURVE",
"493 710 OFFCURVE",
"394 710 CURVE SMOOTH",
"193 710 OFFCURVE",
"55 567 OFFCURVE",
"55 349 CURVE SMOOTH",
"55 131 OFFCURVE",
"193 -10 OFFCURVE",
"394 -10 CURVE SMOOTH"
);
}
);
width = 731;
},
{
anchors = (
{
name = bottom;
position = "{407, 0}";
},
{
name = top;
position = "{421, 690}";
}
);
layerId = "258BB4CE-589F-454F-8E39-237B943AA0B4";
paths = (
{
closed = 1;
nodes = (
"538 -10 OFFCURVE",
"650 33 OFFCURVE",
"708 107 CURVE SMOOTH",
"729 134 OFFCURVE",
"725 164 OFFCURVE",
"698 186 CURVE SMOOTH",
"673 206 OFFCURVE",
"641 201 OFFCURVE",
"608 169 CURVE SMOOTH",
"561 123 OFFCURVE",
"498 95 OFFCURVE",
"407 95 CURVE SMOOTH",
"261 95 OFFCURVE",
"174 189 OFFCURVE",
"174 349 CURVE SMOOTH",
"174 510 OFFCURVE",
"260 605 OFFCURVE",
"405 605 CURVE SMOOTH",
"498 605 OFFCURVE",
"552 579 OFFCURVE",
"594 531 CURVE SMOOTH",
"614 508 OFFCURVE",
"654 497 OFFCURVE",
"679 515 CURVE SMOOTH",
"707 535 OFFCURVE",
"715 564 OFFCURVE",
"694 593 CURVE SMOOTH",
"645 661 OFFCURVE",
"534 710 OFFCURVE",
"405 710 CURVE SMOOTH",
"183 710 OFFCURVE",
"40 576 OFFCURVE",
"40 349 CURVE SMOOTH",
"40 123 OFFCURVE",
"183 -10 OFFCURVE",
"407 -10 CURVE SMOOTH"
);
}
);
width = 761;
},
{
anchors = (
{
name = bottom;
position = "{396, 0}";
},
{
name = top;
position = "{402, 696}";
}
);
layerId = "8ED59CAD-D047-43C0-8308-3370007B39AA";
paths = (
{
closed = 1;
nodes = (
"507 -10 OFFCURVE",
"621 26 OFFCURVE",
"681 101 CURVE SMOOTH",
"694 118 OFFCURVE",
"693 139 OFFCURVE",
"675 154 CURVE SMOOTH",
"659 168 OFFCURVE",
"635 164 OFFCURVE",
"616 144 CURVE SMOOTH",
"569 88 OFFCURVE",
"489 61 OFFCURVE",
"395 61 CURVE SMOOTH",
"227 61 OFFCURVE",
"131 175 OFFCURVE",
"131 349 CURVE SMOOTH",
"131 524 OFFCURVE",
"227 639 OFFCURVE",
"394 639 CURVE SMOOTH",
"483 639 OFFCURVE",
"559 613 OFFCURVE",
"604 556 CURVE SMOOTH",
"618 539 OFFCURVE",
"645 534 OFFCURVE",
"662 546 CURVE SMOOTH",
"680 559 OFFCURVE",
"683 581 OFFCURVE",
"669 599 CURVE",
"613 671 OFFCURVE",
"505 710 OFFCURVE",
"394 710 CURVE SMOOTH",
"185 710 OFFCURVE",
"45 571 OFFCURVE",
"45 349 CURVE SMOOTH",
"45 128 OFFCURVE",
"185 -10 OFFCURVE",
"395 -10 CURVE SMOOTH"
);
}
);
width = 735;
}
);
leftKerningGroup = C;
note = C;
rightKerningGroup = C;
unicode = 0043;
},
{
glyphname = D;
lastChange = "2018-03-10 08:40:14 +0000";
layers = (
{
anchors = (
{
name = bottom;
position = "{362, 0}";
},
{
name = center;
position = "{362, 350}";
},
{
name = top;
position = "{362, 700}";
}
);
layerId = "0B1DFD06-3317-40CA-B510-4969A0718C16";
paths = (
{
closed = 1;
nodes = (
"337 0 LINE SMOOTH",
"521 0 OFFCURVE",
"669 120 OFFCURVE",
"669 349 CURVE SMOOTH",
"669 576 OFFCURVE",
"523 700 OFFCURVE",
"337 700 CURVE SMOOTH",
"196 700 LINE",
"114 700 OFFCURVE",
"80 650 OFFCURVE",
"80 590 CURVE SMOOTH",
"80 110 LINE SMOOTH",
"80 50 OFFCURVE",
"114 0 OFFCURVE",
"196 0 CURVE SMOOTH"
);
},
{
closed = 1;
nodes = (
"155 47 OFFCURVE",
"133 71 OFFCURVE",
"133 107 CURVE SMOOTH",
"133 593 LINE SMOOTH",
"133 629 OFFCURVE",
"155 653 OFFCURVE",
"190 653 CURVE SMOOTH",
"327 653 LINE SMOOTH",
"478 653 OFFCURVE",
"615 568 OFFCURVE",
"615 349 CURVE SMOOTH",
"615 132 OFFCURVE",
"480 47 OFFCURVE",
"327 47 CURVE SMOOTH",
"190 47 LINE"
);
}
);
width = 724;
},
{
anchors = (
{
name = bottom;
position = "{378, 0}";
},
{
name = center;
position = "{378, 350}";
},
{
name = top;
position = "{378, 690}";
}
);
layerId = "258BB4CE-589F-454F-8E39-237B943AA0B4";
paths = (
{
closed = 1;
nodes = (
"343 0 LINE SMOOTH",
"566 0 OFFCURVE",
"715 121 OFFCURVE",
"715 349 CURVE SMOOTH",
"715 577 OFFCURVE",
"566 700 OFFCURVE",
"343 700 CURVE SMOOTH",
"203 700 LINE SMOOTH",
"107 700 OFFCURVE",
"50 645 OFFCURVE",
"50 552 CURVE SMOOTH",
"50 152 LINE SMOOTH",
"50 56 OFFCURVE",
"109 0 OFFCURVE",
"210 0 CURVE SMOOTH"
);
},
{
closed = 1;
nodes = (
"199 103 OFFCURVE",
"183 121 OFFCURVE",
"183 152 CURVE SMOOTH",
"183 548 LINE SMOOTH",
"183 579 OFFCURVE",
"199 597 OFFCURVE",
"226 597 CURVE SMOOTH",
"333 597 LINE SMOOTH",
"490 597 OFFCURVE",
"580 524 OFFCURVE",
"580 349 CURVE SMOOTH",
"580 174 OFFCURVE",
"491 103 OFFCURVE",
"333 103 CURVE SMOOTH",
"226 103 LINE SMOOTH"
);
}
);
width = 755;
},
{
anchors = (
{
name = bottom;
position = "{370, 0}";
},
{
name = center;
position = "{370, 350}";
},
{
name = top;
position = "{370, 696}";
}
);
layerId = "8ED59CAD-D047-43C0-8308-3370007B39AA";
paths = (
{
closed = 1;
nodes = (
"341 0 LINE SMOOTH",
"541 0 OFFCURVE",
"689 120 OFFCURVE",
"689 349 CURVE SMOOTH",
"689 576 OFFCURVE",
"542 700 OFFCURVE",
"341 700 CURVE SMOOTH",
"201 700 LINE",
"113 700 OFFCURVE",
"70 648 OFFCURVE",
"70 575 CURVE SMOOTH",
"70 127 LINE SMOOTH",
"70 52 OFFCURVE",
"114 0 OFFCURVE",
"204 0 CURVE SMOOTH"
);
},
{
closed = 1;
nodes = (
"175 69 OFFCURVE",
"155 91 OFFCURVE",
"155 125 CURVE SMOOTH",
"155 575 LINE SMOOTH",
"155 609 OFFCURVE",
"175 631 OFFCURVE",
"206 631 CURVE SMOOTH",
"331 631 LINE SMOOTH",
"485 631 OFFCURVE",
"603 550 OFFCURVE",
"603 349 CURVE SMOOTH",
"603 149 OFFCURVE",
"486 69 OFFCURVE",
"331 69 CURVE SMOOTH",
"206 69 LINE"
);
}
);
width = 734;
}
);
note = D;
rightKerningGroup = D;
unicode = 0044;
},
{
glyphname = E;
lastChange = "2018-03-10 08:40:14 +0000";
layers = (
{
anchors = (
{
name = bottom;
position = "{307, 0}";
},
{
name = ogonek;
position = "{509, 10}";
},
{
name = top;
position = "{307, 700}";
},
{
name = topleft;
position = "{25, 700}";
}
);
layerId = "0B1DFD06-3317-40CA-B510-4969A0718C16";
paths = (
{
closed = 1;
nodes = (
"528 0 LINE SMOOTH",
"548 0 OFFCURVE",
"558 8 OFFCURVE",
"558 23 CURVE SMOOTH",
"558 41 OFFCURVE",
"547 47 OFFCURVE",
"528 47 CURVE SMOOTH",
"190 47 LINE SMOOTH",
"155 47 OFFCURVE",
"133 71 OFFCURVE",
"133 107 CURVE SMOOTH",
"133 334 LINE",
"430 334 LINE SMOOTH",
"450 334 OFFCURVE",
"460 342 OFFCURVE",
"460 357 CURVE SMOOTH",
"460 375 OFFCURVE",
"449 381 OFFCURVE",
"430 381 CURVE SMOOTH",
"133 381 LINE",
"133 593 LINE SMOOTH",
"133 629 OFFCURVE",
"155 653 OFFCURVE",
"190 653 CURVE SMOOTH",
"506 653 LINE SMOOTH",
"526 653 OFFCURVE",
"536 661 OFFCURVE",
"536 676 CURVE SMOOTH",
"536 694 OFFCURVE",
"525 700 OFFCURVE",
"506 700 CURVE SMOOTH",
"196 700 LINE SMOOTH",
"114 700 OFFCURVE",
"80 650 OFFCURVE",
"80 590 CURVE SMOOTH",
"80 110 LINE SMOOTH",
"80 50 OFFCURVE",
"114 0 OFFCURVE",
"196 0 CURVE SMOOTH"
);
}
);
width = 613;
},
{
anchors = (
{
name = bottom;
position = "{317, 0}";
},
{
name = ogonek;
position = "{454, 10}";
},
{
name = top;
position = "{317, 690}";
},
{
name = topleft;
position = "{35, 700}";
}
);
layerId = "258BB4CE-589F-454F-8E39-237B943AA0B4";
paths = (
{
closed = 1;
nodes = (
"536 0 LINE SMOOTH",
"572 0 OFFCURVE",
"598 17 OFFCURVE",
"598 51 CURVE SMOOTH",
"598 86 OFFCURVE",
"574 103 OFFCURVE",
"536 103 CURVE SMOOTH",
"226 103 LINE SMOOTH",
"199 103 OFFCURVE",
"183 121 OFFCURVE",
"183 152 CURVE SMOOTH",
"183 306 LINE",
"438 306 LINE SMOOTH",
"474 306 OFFCURVE",
"500 323 OFFCURVE",
"500 357 CURVE SMOOTH",
"500 392 OFFCURVE",
"476 409 OFFCURVE",
"438 409 CURVE SMOOTH",
"183 409 LINE",
"183 548 LINE SMOOTH",
"183 579 OFFCURVE",
"199 597 OFFCURVE",
"226 597 CURVE SMOOTH",
"514 597 LINE SMOOTH",
"550 597 OFFCURVE",
"576 614 OFFCURVE",
"576 648 CURVE SMOOTH",
"576 683 OFFCURVE",
"552 700 OFFCURVE",
"514 700 CURVE SMOOTH",
"203 700 LINE SMOOTH",
"107 700 OFFCURVE",
"50 645 OFFCURVE",
"50 552 CURVE SMOOTH",
"50 152 LINE SMOOTH",
"50 56 OFFCURVE",
"109 0 OFFCURVE",
"210 0 CURVE SMOOTH"
);
}
);
width = 638;
},
{
anchors = (
{
name = bottom;
position = "{313, 0}";
},
{
name = ogonek;
position = "{489, 10}";
},
{
name = top;
position = "{313, 696}";
},
{
name = topleft;
position = "{31, 700}";
}
);
layerId = "8ED59CAD-D047-43C0-8308-3370007B39AA";
paths = (
{
closed = 1;
nodes = (
"533 0 LINE SMOOTH",
"560 0 OFFCURVE",
"576 12 OFFCURVE",
"576 34 CURVE SMOOTH",
"576 59 OFFCURVE",
"560 69 OFFCURVE",
"533 69 CURVE SMOOTH",
"206 69 LINE SMOOTH",
"175 69 OFFCURVE",
"155 91 OFFCURVE",
"155 125 CURVE SMOOTH",
"155 323 LINE",
"435 323 LINE SMOOTH",
"462 323 OFFCURVE",
"478 334 OFFCURVE",
"478 357 CURVE SMOOTH",
"478 382 OFFCURVE",
"462 392 OFFCURVE",
"435 392 CURVE SMOOTH",
"155 392 LINE",
"155 575 LINE SMOOTH",
"155 609 OFFCURVE",
"175 631 OFFCURVE",
"206 631 CURVE SMOOTH",
"511 631 LINE SMOOTH",
"538 631 OFFCURVE",
"554 642 OFFCURVE",
"554 665 CURVE SMOOTH",
"554 690 OFFCURVE",
"538 700 OFFCURVE",
"511 700 CURVE SMOOTH",
"201 700 LINE SMOOTH",
"113 700 OFFCURVE",
"70 648 OFFCURVE",
"70 575 CURVE SMOOTH",
"70 127 LINE SMOOTH",
"70 52 OFFCURVE",
"114 0 OFFCURVE",
"204 0 CURVE SMOOTH"
);
}
);
width = 621;
}
);
note = E;
rightKerningGroup = E;
unicode = 0045;
},
{
glyphname = F;
lastChange = "2018-03-10 08:40:14 +0000";
layers = (
{
anchors = (
{
name = bottom;
position = "{296, 0}";
},
{
name = top;
position = "{296, 700}";
}
);
layerId = "0B1DFD06-3317-40CA-B510-4969A0718C16";
paths = (
{
closed = 1;
nodes = (
"124 -10 OFFCURVE",
"133 2 OFFCURVE",
"133 22 CURVE SMOOTH",
"133 324 LINE",
"430 324 LINE SMOOTH",
"450 324 OFFCURVE",
"460 332 OFFCURVE",
"460 347 CURVE SMOOTH",
"460 365 OFFCURVE",
"449 371 OFFCURVE",
"430 371 CURVE SMOOTH",
"133 371 LINE",
"133 593 LINE SMOOTH",
"133 629 OFFCURVE",
"155 653 OFFCURVE",
"190 653 CURVE SMOOTH",
"506 653 LINE SMOOTH",
"526 653 OFFCURVE",
"536 661 OFFCURVE",
"536 676 CURVE SMOOTH",
"536 694 OFFCURVE",
"525 700 OFFCURVE",
"506 700 CURVE SMOOTH",
"196 700 LINE SMOOTH",
"114 700 OFFCURVE",
"80 650 OFFCURVE",
"80 590 CURVE SMOOTH",
"80 22 LINE SMOOTH",
"80 2 OFFCURVE",
"88 -10 OFFCURVE",
"106 -10 CURVE SMOOTH"
);
}
);
width = 591;
},
{
anchors = (
{
name = bottom;
position = "{296, 0}";
},
{
name = top;
position = "{296, 700}";
}
);
layerId = "258BB4CE-589F-454F-8E39-237B943AA0B4";
paths = (
{
closed = 1;
nodes = (
"154 -10 OFFCURVE",
"183 12 OFFCURVE",
"183 50 CURVE SMOOTH",
"183 296 LINE",
"438 296 LINE SMOOTH",
"474 296 OFFCURVE",
"500 313 OFFCURVE",
"500 347 CURVE SMOOTH",
"500 382 OFFCURVE",
"476 399 OFFCURVE",
"438 399 CURVE SMOOTH",
"183 399 LINE",
"183 548 LINE SMOOTH",
"183 579 OFFCURVE",
"199 597 OFFCURVE",
"226 597 CURVE SMOOTH",
"514 597 LINE SMOOTH",
"550 597 OFFCURVE",
"576 614 OFFCURVE",
"576 648 CURVE SMOOTH",
"576 683 OFFCURVE",
"552 700 OFFCURVE",
"514 700 CURVE SMOOTH",
"203 700 LINE SMOOTH",
"107 700 OFFCURVE",
"50 645 OFFCURVE",
"50 552 CURVE SMOOTH",
"50 50 LINE SMOOTH",
"50 12 OFFCURVE",
"77 -10 OFFCURVE",
"116 -10 CURVE SMOOTH"
);
}
);
width = 606;
},
{
anchors = (
{
name = bottom;
position = "{298, 0}";
},
{
name = top;
position = "{298, 700}";
}
);
layerId = "8ED59CAD-D047-43C0-8308-3370007B39AA";
paths = (
{
closed = 1;
nodes = (
"138 -10 OFFCURVE",
"155 6 OFFCURVE",
"155 33 CURVE SMOOTH",
"155 313 LINE",
"435 313 LINE SMOOTH",
"462 313 OFFCURVE",
"478 324 OFFCURVE",
"478 347 CURVE SMOOTH",
"478 372 OFFCURVE",
"462 382 OFFCURVE",
"435 382 CURVE SMOOTH",
"155 382 LINE",
"155 575 LINE SMOOTH",
"155 609 OFFCURVE",
"175 631 OFFCURVE",
"206 631 CURVE SMOOTH",
"511 631 LINE SMOOTH",
"538 631 OFFCURVE",
"554 642 OFFCURVE",
"554 665 CURVE SMOOTH",
"554 690 OFFCURVE",
"538 700 OFFCURVE",
"511 700 CURVE SMOOTH",
"201 700 LINE SMOOTH",
"113 700 OFFCURVE",
"70 648 OFFCURVE",
"70 575 CURVE SMOOTH",
"70 33 LINE SMOOTH",
"70 6 OFFCURVE",
"86 -10 OFFCURVE",
"112 -10 CURVE SMOOTH"
);
}
);
width = 599;
}
);
note = F;
unicode = 0046;
},
{
glyphname = G;
lastChange = "2018-03-10 08:40:14 +0000";
layers = (
{
anchors = (
{
name = bottom;
position = "{376, 0}";
},
{
name = top;
position = "{376, 700}";
}
);
layerId = "0B1DFD06-3317-40CA-B510-4969A0718C16";
paths = (
{
closed = 1;
nodes = (
"587 -10 OFFCURVE",
"696 110 OFFCURVE",
"696 223 CURVE SMOOTH",
"696 261 LINE SMOOTH",
"696 325 OFFCURVE",
"665 363 OFFCURVE",
"583 363 CURVE SMOOTH",
"429 363 LINE SMOOTH",
"410 363 OFFCURVE",
"399 357 OFFCURVE",
"399 339 CURVE SMOOTH",
"399 324 OFFCURVE",
"409 316 OFFCURVE",
"429 316 CURVE SMOOTH",
"589 316 LINE SMOOTH",
"629 316 OFFCURVE",
"643 302 OFFCURVE",
"643 260 CURVE SMOOTH",
"643 222 LINE SMOOTH",
"643 123 OFFCURVE",
"548 39 OFFCURVE",
"398 39 CURVE SMOOTH",
"210 39 OFFCURVE",
"109 165 OFFCURVE",
"109 349 CURVE SMOOTH",
"109 533 OFFCURVE",
"211 661 OFFCURVE",
"399 661 CURVE SMOOTH",
"484 661 OFFCURVE",
"576 635 OFFCURVE",
"623 572 CURVE SMOOTH",
"632 560 OFFCURVE",
"650 559 OFFCURVE",
"662 567 CURVE SMOOTH",
"674 575 OFFCURVE",
"673 592 OFFCURVE",
"664 603 CURVE SMOOTH",
"603 678 OFFCURVE",
"498 710 OFFCURVE",
"399 710 CURVE SMOOTH",
"193 710 OFFCURVE",
"55 567 OFFCURVE",
"55 349 CURVE SMOOTH",
"55 131 OFFCURVE",
"192 -10 OFFCURVE",
"398 -10 CURVE SMOOTH"
);
}
);
width = 751;
},
{
anchors = (
{
name = bottom;
position = "{406, 0}";
},
{
name = top;
position = "{406, 690}";
}
);
layerId = "258BB4CE-589F-454F-8E39-237B943AA0B4";
paths = (
{
closed = 1;
nodes = (
"613 -10 OFFCURVE",
"734 104 OFFCURVE",
"734 248 CURVE SMOOTH",
"734 287 LINE SMOOTH",
"734 356 OFFCURVE",
"701 389 OFFCURVE",
"622 389 CURVE SMOOTH",
"428 389 LINE SMOOTH",
"390 389 OFFCURVE",
"368 370 OFFCURVE",
"368 337 CURVE SMOOTH",
"368 305 OFFCURVE",
"390 286 OFFCURVE",
"428 286 CURVE SMOOTH",
"559 286 LINE SMOOTH",
"591 286 OFFCURVE",
"601 276 OFFCURVE",
"601 249 CURVE SMOOTH",
"601 227 LINE SMOOTH",
"601 144 OFFCURVE",
"529 95 OFFCURVE",
"407 95 CURVE SMOOTH",
"261 95 OFFCURVE",
"174 189 OFFCURVE",
"174 349 CURVE SMOOTH",
"174 510 OFFCURVE",
"260 605 OFFCURVE",
"405 605 CURVE SMOOTH",
"498 605 OFFCURVE",
"552 579 OFFCURVE",
"594 531 CURVE SMOOTH",
"614 508 OFFCURVE",
"654 497 OFFCURVE",
"679 515 CURVE SMOOTH",
"707 535 OFFCURVE",
"715 564 OFFCURVE",
"694 593 CURVE SMOOTH",
"645 661 OFFCURVE",
"534 710 OFFCURVE",
"405 710 CURVE SMOOTH",
"183 710 OFFCURVE",
"40 576 OFFCURVE",
"40 349 CURVE SMOOTH",
"40 123 OFFCURVE",
"183 -10 OFFCURVE",
"407 -10 CURVE SMOOTH"
);
}
);
width = 774;
},
{
anchors = (
{
name = bottom;
position = "{384, 0}";
},
{
name = top;
position = "{384, 696}";
}
);
layerId = "8ED59CAD-D047-43C0-8308-3370007B39AA";
paths = (
{
closed = 1;
nodes = (
"593 -10 OFFCURVE",
"707 108 OFFCURVE",
"707 233 CURVE SMOOTH",
"707 271 LINE SMOOTH",
"707 337 OFFCURVE",
"675 373 OFFCURVE",
"595 373 CURVE SMOOTH",
"425 373 LINE SMOOTH",
"398 373 OFFCURVE",
"383 362 OFFCURVE",
"383 338 CURVE SMOOTH",
"383 316 OFFCURVE",
"397 304 OFFCURVE",
"425 304 CURVE SMOOTH",
"573 304 LINE SMOOTH",
"610 304 OFFCURVE",
"622 292 OFFCURVE",
"622 256 CURVE SMOOTH",
"622 224 LINE SMOOTH",
"622 131 OFFCURVE",
"536 61 OFFCURVE",
"398 61 CURVE SMOOTH",
"226 61 OFFCURVE",
"131 175 OFFCURVE",
"131 349 CURVE SMOOTH",
"131 524 OFFCURVE",
"227 639 OFFCURVE",
"397 639 CURVE SMOOTH",
"486 639 OFFCURVE",
"562 613 OFFCURVE",
"607 556 CURVE SMOOTH",
"621 539 OFFCURVE",
"648 534 OFFCURVE",
"665 546 CURVE SMOOTH",
"683 559 OFFCURVE",
"686 581 OFFCURVE",
"672 599 CURVE SMOOTH",
"616 671 OFFCURVE",
"508 710 OFFCURVE",
"397 710 CURVE SMOOTH",
"185 710 OFFCURVE",
"45 571 OFFCURVE",
"45 349 CURVE SMOOTH",
"45 128 OFFCURVE",
"184 -10 OFFCURVE",
"398 -10 CURVE SMOOTH"
);
}
);
width = 752;
}
);
leftKerningGroup = C;
note = G;
rightKerningGroup = C;
unicode = 0047;
},
{
glyphname = H;
lastChange = "2018-03-10 08:40:14 +0000";
layers = (
{
anchors = (
{
name = bottom;
position = "{373, 0}";
},
{
name = center;
position = "{373, 350}";
},
{
name = top;
position = "{373, 700}";
},
{
name = topleft;
position = "{25, 700}";
}
);
layerId = "0B1DFD06-3317-40CA-B510-4969A0718C16";
paths = (
{
closed = 1;
nodes = (
"129 -10 OFFCURVE",
"138 2 OFFCURVE",
"138 22 CURVE SMOOTH",
"138 336 LINE",
"607 336 LINE",
"607 22 LINE SMOOTH",
"607 2 OFFCURVE",
"616 -10 OFFCURVE",
"634 -10 CURVE SMOOTH",
"652 -10 OFFCURVE",
"660 2 OFFCURVE",
"660 22 CURVE SMOOTH",
"660 678 LINE SMOOTH",
"660 698 OFFCURVE",
"652 710 OFFCURVE",
"634 710 CURVE SMOOTH",
"616 710 OFFCURVE",
"607 698 OFFCURVE",
"607 678 CURVE SMOOTH",
"607 383 LINE",
"138 383 LINE",
"138 678 LINE SMOOTH",
"138 698 OFFCURVE",
"129 710 OFFCURVE",
"111 710 CURVE SMOOTH",
"93 710 OFFCURVE",
"85 698 OFFCURVE",
"85 678 CURVE SMOOTH",
"85 22 LINE SMOOTH",
"85 2 OFFCURVE",
"93 -10 OFFCURVE",
"111 -10 CURVE SMOOTH"
);
}
);
width = 745;
},
{
anchors = (
{
name = bottom;
position = "{378, 0}";
},
{
name = center;
position = "{378, 350}";
},
{
name = top;
position = "{378, 690}";
},
{
name = topleft;
position = "{30, 700}";
}
);
layerId = "258BB4CE-589F-454F-8E39-237B943AA0B4";
paths = (
{
closed = 1;
nodes = (
"154 -10 OFFCURVE",
"183 12 OFFCURVE",
"183 50 CURVE SMOOTH",
"183 308 LINE",
"542 308 LINE",
"542 50 LINE SMOOTH",
"542 12 OFFCURVE",
"571 -10 OFFCURVE",
"609 -10 CURVE SMOOTH",
"648 -10 OFFCURVE",
"675 12 OFFCURVE",
"675 50 CURVE SMOOTH",
"675 650 LINE SMOOTH",
"675 688 OFFCURVE",
"648 710 OFFCURVE",
"609 710 CURVE SMOOTH",
"571 710 OFFCURVE",
"542 688 OFFCURVE",
"542 650 CURVE SMOOTH",
"542 411 LINE",
"183 411 LINE",
"183 650 LINE SMOOTH",
"183 688 OFFCURVE",
"154 710 OFFCURVE",
"116 710 CURVE SMOOTH",
"77 710 OFFCURVE",
"50 688 OFFCURVE",
"50 650 CURVE SMOOTH",
"50 50 LINE SMOOTH",
"50 12 OFFCURVE",
"77 -10 OFFCURVE",
"116 -10 CURVE SMOOTH"
);
}
);
width = 725;
},
{
anchors = (
{
name = bottom;
position = "{374, 0}";
},
{
name = center;
position = "{374, 350}";
},
{
name = top;
position = "{374, 696}";
},
{
name = topleft;
position = "{26, 700}";
}
);
layerId = "8ED59CAD-D047-43C0-8308-3370007B39AA";
paths = (
{
closed = 1;
nodes = (
"138 -10 OFFCURVE",
"155 6 OFFCURVE",
"155 33 CURVE SMOOTH",
"155 325 LINE",
"580 325 LINE",
"580 33 LINE SMOOTH",
"580 6 OFFCURVE",
"597 -10 OFFCURVE",
"623 -10 CURVE SMOOTH",
"649 -10 OFFCURVE",
"665 6 OFFCURVE",
"665 33 CURVE SMOOTH",
"665 667 LINE SMOOTH",
"665 694 OFFCURVE",
"649 710 OFFCURVE",
"623 710 CURVE SMOOTH",
"597 710 OFFCURVE",
"580 694 OFFCURVE",
"580 667 CURVE SMOOTH",
"580 394 LINE",
"155 394 LINE",
"155 667 LINE SMOOTH",
"155 694 OFFCURVE",
"138 710 OFFCURVE",
"112 710 CURVE SMOOTH",
"86 710 OFFCURVE",
"70 694 OFFCURVE",
"70 667 CURVE SMOOTH",
"70 33 LINE SMOOTH",
"70 6 OFFCURVE",
"86 -10 OFFCURVE",
"112 -10 CURVE SMOOTH"
);
}
);
width = 735;
}
);
leftKerningGroup = H;
note = H;
rightKerningGroup = H;
unicode = 0048;
},
{
glyphname = I;
lastChange = "2018-03-10 08:40:14 +0000";
layers = (
{
anchors = (
{
name = bottom;
position = "{112, 0}";
},
{
name = ogonek;
position = "{127, 10}";
},
{
name = top;
position = "{112, 700}";
},
{
name = topleft;
position = "{25, 700}";
}
);
layerId = "0B1DFD06-3317-40CA-B510-4969A0718C16";
paths = (
{
closed = 1;
nodes = (
"129 -10 OFFCURVE",
"138 2 OFFCURVE",
"138 22 CURVE SMOOTH",
"138 678 LINE SMOOTH",
"138 698 OFFCURVE",
"129 710 OFFCURVE",
"111 710 CURVE SMOOTH",
"93 710 OFFCURVE",
"85 698 OFFCURVE",
"85 678 CURVE SMOOTH",
"85 22 LINE SMOOTH",
"85 2 OFFCURVE",
"93 -10 OFFCURVE",
"111 -10 CURVE SMOOTH"
);
}
);
width = 223;
},
{
anchors = (
{
name = bottom;
position = "{112, 0}";
},
{
name = ogonek;
position = "{136, 10}";
},
{
name = top;
position = "{112, 690}";
},
{
name = topleft;
position = "{25, 700}";
}
);
layerId = "258BB4CE-589F-454F-8E39-237B943AA0B4";
paths = (
{
closed = 1;
nodes = (
"154 -10 OFFCURVE",
"183 12 OFFCURVE",
"183 50 CURVE SMOOTH",
"183 650 LINE SMOOTH",
"183 688 OFFCURVE",
"154 710 OFFCURVE",
"116 710 CURVE SMOOTH",
"77 710 OFFCURVE",
"50 688 OFFCURVE",
"50 650 CURVE SMOOTH",
"50 50 LINE SMOOTH",
"50 12 OFFCURVE",
"77 -10 OFFCURVE",
"116 -10 CURVE SMOOTH"
);
}
);
width = 233;
},
{
anchors = (
{
name = bottom;
position = "{111, 0}";
},
{
name = ogonek;
position = "{130, 10}";
},
{
name = top;
position = "{111, 696}";
},
{
name = topleft;
position = "{24, 700}";
}
);
layerId = "8ED59CAD-D047-43C0-8308-3370007B39AA";
paths = (
{
closed = 1;
nodes = (
"138 -10 OFFCURVE",
"155 6 OFFCURVE",
"155 33 CURVE SMOOTH",
"155 667 LINE SMOOTH",
"155 694 OFFCURVE",
"138 710 OFFCURVE",
"112 710 CURVE SMOOTH",
"86 710 OFFCURVE",
"70 694 OFFCURVE",
"70 667 CURVE SMOOTH",
"70 33 LINE SMOOTH",
"70 6 OFFCURVE",
"86 -10 OFFCURVE",
"112 -10 CURVE SMOOTH"
);
}
);
width = 225;
}
);
note = I;
unicode = 0049;
},
{
glyphname = J;
lastChange = "2018-03-10 08:40:14 +0000";
layers = (
{
anchors = (
{
name = bottom;
position = "{292, 0}";
},
{
name = top;
position = "{477, 700}";
}
);
layerId = "0B1DFD06-3317-40CA-B510-4969A0718C16";
paths = (
{
closed = 1;
nodes = (
"362 -10 OFFCURVE",
"504 30 OFFCURVE",
"504 215 CURVE SMOOTH",
"504 678 LINE SMOOTH",
"504 698 OFFCURVE",
"495 710 OFFCURVE",
"477 710 CURVE SMOOTH",
"459 710 OFFCURVE",
"451 698 OFFCURVE",
"451 678 CURVE SMOOTH",
"451 211 LINE SMOOTH",
"451 84 OFFCURVE",
"372 40 OFFCURVE",
"287 40 CURVE SMOOTH",
"199 40 OFFCURVE",
"145 63 OFFCURVE",
"93 134 CURVE SMOOTH",
"83 148 OFFCURVE",
"65 149 OFFCURVE",
"54 139 CURVE SMOOTH",
"43 129 OFFCURVE",
"42 117 OFFCURVE",
"52 103 CURVE SMOOTH",
"108 27 OFFCURVE",
"182 -10 OFFCURVE",
"287 -10 CURVE SMOOTH"
);
}
);
width = 584;
},
{
anchors = (
{
name = bottom;
position = "{294, 0}";
},
{
name = top;
position = "{479, 700}";
}
);
layerId = "258BB4CE-589F-454F-8E39-237B943AA0B4";
paths = (
{
closed = 1;
nodes = (
"447 -10 OFFCURVE",
"546 86 OFFCURVE",
"546 238 CURVE SMOOTH",
"546 650 LINE SMOOTH",
"546 688 OFFCURVE",
"517 710 OFFCURVE",
"479 710 CURVE SMOOTH",
"440 710 OFFCURVE",
"413 688 OFFCURVE",
"413 650 CURVE SMOOTH",
"413 234 LINE SMOOTH",
"413 140 OFFCURVE",
"375 96 OFFCURVE",
"294 96 CURVE SMOOTH",
"226 96 OFFCURVE",
"166 123 OFFCURVE",
"133 168 CURVE SMOOTH",
"106 205 OFFCURVE",
"68 205 OFFCURVE",
"43 185 CURVE SMOOTH",
"16 163 OFFCURVE",
"12 133 OFFCURVE",
"33 106 CURVE SMOOTH",
"90 33 OFFCURVE",
"187 -10 OFFCURVE",
"294 -10 CURVE SMOOTH"
);
}
);
width = 591;
},
{
anchors = (
{
name = bottom;
position = "{293, 0}";
},
{
name = top;
position = "{478, 700}";
}
);
layerId = "8ED59CAD-D047-43C0-8308-3370007B39AA";
paths = (
{
closed = 1;
nodes = (
"396 -10 OFFCURVE",
"521 52 OFFCURVE",
"521 224 CURVE SMOOTH",
"521 667 LINE SMOOTH",
"521 694 OFFCURVE",
"504 710 OFFCURVE",
"478 710 CURVE SMOOTH",
"451 710 OFFCURVE",
"436 694 OFFCURVE",
"436 667 CURVE SMOOTH",
"436 220 LINE SMOOTH",
"436 106 OFFCURVE",
"373 62 OFFCURVE",
"290 62 CURVE SMOOTH",
"210 62 OFFCURVE",
"153 87 OFFCURVE",
"109 148 CURVE SMOOTH",
"92 171 OFFCURVE",
"66 171 OFFCURVE",
"50 157 CURVE SMOOTH",
"32 143 OFFCURVE",
"30 123 OFFCURVE",
"44 104 CURVE SMOOTH",
"101 29 OFFCURVE",
"184 -10 OFFCURVE",
"290 -10 CURVE SMOOTH"
);
}
);
width = 586;
}
);
leftKerningGroup = J;
note = J;
rightKerningGroup = J;
unicode = 004A;
},
{
glyphname = K;
lastChange = "2018-03-10 08:40:14 +0000";
layers = (
{
anchors = (
{
name = bottom;
position = "{336, 0}";
},
{
name = top;
position = "{336, 700}";
}
);
layerId = "0B1DFD06-3317-40CA-B510-4969A0718C16";
paths = (
{
closed = 1;
nodes = (
"612 -11 OFFCURVE",
"618 3 OFFCURVE",
"615 17 CURVE SMOOTH",
"572 216 OFFCURVE",
"469 313 OFFCURVE",
"312 415 CURVE",
"593 661 LINE SMOOTH",
"605 672 OFFCURVE",
"603 686 OFFCURVE",
"594 696 CURVE SMOOTH",
"586 704 OFFCURVE",
"573 708 OFFCURVE",
"562 699 CURVE SMOOTH",
"138 335 LINE",
"138 678 LINE SMOOTH",
"138 698 OFFCURVE",
"129 710 OFFCURVE",
"111 710 CURVE SMOOTH",
"93 710 OFFCURVE",
"85 698 OFFCURVE",
"85 678 CURVE SMOOTH",
"85 22 LINE SMOOTH",
"85 2 OFFCURVE",
"93 -10 OFFCURVE",
"111 -10 CURVE SMOOTH",
"129 -10 OFFCURVE",
"138 2 OFFCURVE",
"138 22 CURVE SMOOTH",
"138 271 LINE",
"273 383 LINE",
"432 287 OFFCURVE",
"522 198 OFFCURVE",
"568 7 CURVE SMOOTH",
"571 -7 OFFCURVE",
"582 -17 OFFCURVE",
"597 -14 CURVE SMOOTH"
);
}
);
width = 671;
},
{
anchors = (
{
name = bottom;
position = "{341, 0}";
},
{
name = top;
position = "{341, 700}";
}
);
layerId = "258BB4CE-589F-454F-8E39-237B943AA0B4";
paths = (
{
closed = 1;
nodes = (
"622 -10 OFFCURVE",
"647 20 OFFCURVE",
"643 54 CURVE SMOOTH",
"628 180 OFFCURVE",
"531 320 OFFCURVE",
"366 409 CURVE",
"597 610 LINE SMOOTH",
"626 635 OFFCURVE",
"629 662 OFFCURVE",
"602 691 CURVE SMOOTH",
"576 719 OFFCURVE",
"542 714 OFFCURVE",
"518 693 CURVE SMOOTH",
"183 401 LINE",
"183 650 LINE SMOOTH",
"183 688 OFFCURVE",
"154 710 OFFCURVE",
"116 710 CURVE SMOOTH",
"77 710 OFFCURVE",
"50 688 OFFCURVE",
"50 650 CURVE SMOOTH",
"50 50 LINE SMOOTH",
"50 12 OFFCURVE",
"77 -10 OFFCURVE",
"116 -10 CURVE SMOOTH",
"154 -10 OFFCURVE",
"183 12 OFFCURVE",
"183 50 CURVE SMOOTH",
"183 256 LINE",
"282 338 LINE",
"429 262 OFFCURVE",
"493 169 OFFCURVE",
"518 34 CURVE SMOOTH",
"524 2 OFFCURVE",
"553 -10 OFFCURVE",
"589 -10 CURVE SMOOTH"
);
}
);
width = 683;
},
{
anchors = (
{
name = bottom;
position = "{337, 0}";
},
{
name = top;
position = "{337, 700}";
}
);
layerId = "8ED59CAD-D047-43C0-8308-3370007B39AA";
paths = (
{
closed = 1;
nodes = (
"615 -11 OFFCURVE",
"629 10 OFFCURVE",
"625 32 CURVE SMOOTH",
"593 202 OFFCURVE",
"493 316 OFFCURVE",
"333 413 CURVE",
"594 641 LINE SMOOTH",
"612 657 OFFCURVE",
"612 676 OFFCURVE",
"596 694 CURVE SMOOTH",
"581 710 OFFCURVE",
"560 710 OFFCURVE",
"543 697 CURVE SMOOTH",
"155 361 LINE",
"155 667 LINE SMOOTH",
"155 694 OFFCURVE",
"138 710 OFFCURVE",
"112 710 CURVE SMOOTH",
"86 710 OFFCURVE",
"70 694 OFFCURVE",
"70 667 CURVE SMOOTH",
"70 33 LINE SMOOTH",
"70 6 OFFCURVE",
"86 -10 OFFCURVE",
"112 -10 CURVE SMOOTH",
"138 -10 OFFCURVE",
"155 6 OFFCURVE",
"155 33 CURVE SMOOTH",
"155 265 LINE",
"276 365 LINE",
"430 277 OFFCURVE",
"509 186 OFFCURVE",
"547 18 CURVE SMOOTH",
"551 -3 OFFCURVE",
"569 -14 OFFCURVE",
"593 -12 CURVE SMOOTH"
);
}
);
width = 671;
}
);
note = K;
rightKerningGroup = K;
unicode = 004B;
},
{
glyphname = L;
lastChange = "2018-03-10 08:40:14 +0000";
layers = (
{
anchors = (
{
name = bottom;
position = "{304, 0}";
},
{
name = center;
position = "{304, 350}";
},
{
name = top;
position = "{304, 700}";
},
{
name = topright;
position = "{583, 700}";
}
);
layerId = "0B1DFD06-3317-40CA-B510-4969A0718C16";
paths = (
{
closed = 1;
nodes = (
"533 0 LINE SMOOTH",
"553 0 OFFCURVE",
"563 8 OFFCURVE",
"563 23 CURVE SMOOTH",
"563 41 OFFCURVE",
"552 47 OFFCURVE",
"533 47 CURVE SMOOTH",
"195 47 LINE SMOOTH",
"160 47 OFFCURVE",
"138 71 OFFCURVE",
"138 107 CURVE SMOOTH",
"138 678 LINE SMOOTH",
"138 698 OFFCURVE",
"129 710 OFFCURVE",
"111 710 CURVE SMOOTH",
"93 710 OFFCURVE",
"85 698 OFFCURVE",
"85 678 CURVE SMOOTH",
"85 110 LINE SMOOTH",
"85 50 OFFCURVE",
"119 0 OFFCURVE",
"201 0 CURVE SMOOTH"
);
}
);
width = 608;
},
{
anchors = (
{
name = bottom;
position = "{304, 0}";
},
{
name = center;
position = "{304, 350}";
},
{
name = top;
position = "{304, 700}";
},
{
name = topright;
position = "{583, 700}";
}
);
layerId = "258BB4CE-589F-454F-8E39-237B943AA0B4";
paths = (
{
closed = 1;
nodes = (
"546 0 LINE SMOOTH",
"582 0 OFFCURVE",
"608 17 OFFCURVE",
"608 51 CURVE SMOOTH",
"608 86 OFFCURVE",
"584 103 OFFCURVE",
"546 103 CURVE SMOOTH",
"226 103 LINE SMOOTH",
"199 103 OFFCURVE",
"183 121 OFFCURVE",
"183 152 CURVE SMOOTH",
"183 650 LINE SMOOTH",
"183 688 OFFCURVE",
"154 710 OFFCURVE",
"116 710 CURVE SMOOTH",
"77 710 OFFCURVE",
"50 688 OFFCURVE",
"50 650 CURVE SMOOTH",
"50 152 LINE SMOOTH",
"50 56 OFFCURVE",
"109 0 OFFCURVE",
"210 0 CURVE SMOOTH"
);
}
);
width = 628;
},
{
anchors = (
{
name = bottom;
position = "{303, 0}";
},
{
name = center;
position = "{303, 350}";
},
{
name = top;
position = "{303, 700}";
},
{
name = topright;
position = "{582, 700}";
}
);
layerId = "8ED59CAD-D047-43C0-8308-3370007B39AA";
paths = (
{
closed = 1;
nodes = (
"537 0 LINE SMOOTH",
"564 0 OFFCURVE",
"580 12 OFFCURVE",
"580 34 CURVE SMOOTH",
"580 59 OFFCURVE",
"564 69 OFFCURVE",
"537 69 CURVE SMOOTH",
"206 69 LINE SMOOTH",
"175 69 OFFCURVE",
"155 91 OFFCURVE",
"155 125 CURVE SMOOTH",
"155 667 LINE SMOOTH",
"155 694 OFFCURVE",
"138 710 OFFCURVE",
"112 710 CURVE SMOOTH",
"86 710 OFFCURVE",
"70 694 OFFCURVE",
"70 667 CURVE SMOOTH",
"70 127 LINE SMOOTH",
"70 52 OFFCURVE",
"114 0 OFFCURVE",
"204 0 CURVE SMOOTH"
);
}
);
width = 615;
}
);
note = L;
rightKerningGroup = L;
unicode = 004C;
},
{
glyphname = M;
lastChange = "2018-03-10 08:40:14 +0000";
layers = (
{
anchors = (
{
name = bottom;
position = "{486, 0}";
},
{
name = top;
position = "{486, 700}";
}
);
layerId = "0B1DFD06-3317-40CA-B510-4969A0718C16";
paths = (
{
closed = 1;
nodes = (
"124 -10 OFFCURVE",
"133 2 OFFCURVE",
"133 22 CURVE SMOOTH",
"133 490 LINE SMOOTH",
"133 613 OFFCURVE",
"194 660 OFFCURVE",
"296 660 CURVE SMOOTH",
"375 660 OFFCURVE",
"460 613 OFFCURVE",
"460 490 CURVE SMOOTH",
"460 22 LINE SMOOTH",
"460 2 OFFCURVE",
"468 -10 OFFCURVE",
"485 -10 CURVE SMOOTH",
"503 -10 OFFCURVE",
"511 2 OFFCURVE",
"511 22 CURVE SMOOTH",
"511 490 LINE SMOOTH",
"511 613 OFFCURVE",
"591 660 OFFCURVE",
"675 660 CURVE SMOOTH",
"777 660 OFFCURVE",
"838 613 OFFCURVE",
"838 490 CURVE SMOOTH",
"838 22 LINE SMOOTH",
"838 2 OFFCURVE",
"846 -10 OFFCURVE",
"864 -10 CURVE SMOOTH",
"882 -10 OFFCURVE",
"891 2 OFFCURVE",
"891 22 CURVE SMOOTH",
"891 490 LINE SMOOTH",
"891 633 OFFCURVE",
"804 710 OFFCURVE",
"675 710 CURVE SMOOTH",
"577 710 OFFCURVE",
"510 654 OFFCURVE",
"485 591 CURVE",
"460 654 OFFCURVE",
"389 710 OFFCURVE",
"296 710 CURVE SMOOTH",
"167 710 OFFCURVE",
"80 633 OFFCURVE",
"80 490 CURVE SMOOTH",
"80 22 LINE SMOOTH",
"80 2 OFFCURVE",
"88 -10 OFFCURVE",
"106 -10 CURVE SMOOTH"
);
}
);
width = 971;
},
{
anchors = (
{
name = bottom;
position = "{496, 0}";
},
{
name = top;
position = "{496, 700}";
}
);
layerId = "258BB4CE-589F-454F-8E39-237B943AA0B4";
paths = (
{
closed = 1;
nodes = (
"154 -10 OFFCURVE",
"183 12 OFFCURVE",
"183 50 CURVE SMOOTH",
"183 462 LINE SMOOTH",
"183 563 OFFCURVE",
"217 605 OFFCURVE",
"303 605 CURVE SMOOTH",
"380 605 OFFCURVE",
"424 550 OFFCURVE",
"424 462 CURVE SMOOTH",
"424 50 LINE SMOOTH",
"424 12 OFFCURVE",
"450 -10 OFFCURVE",
"489 -10 CURVE SMOOTH",
"528 -10 OFFCURVE",
"555 12 OFFCURVE",
"555 50 CURVE SMOOTH",
"555 462 LINE SMOOTH",
"555 553 OFFCURVE",
"597 605 OFFCURVE",
"676 605 CURVE SMOOTH",
"762 605 OFFCURVE",
"796 563 OFFCURVE",
"796 462 CURVE SMOOTH",
"796 50 LINE SMOOTH",
"796 12 OFFCURVE",
"823 -10 OFFCURVE",
"862 -10 CURVE SMOOTH",
"900 -10 OFFCURVE",
"929 12 OFFCURVE",
"929 50 CURVE SMOOTH",
"929 462 LINE SMOOTH",
"929 615 OFFCURVE",
"838 710 OFFCURVE",
"681 710 CURVE SMOOTH",
"602 710 OFFCURVE",
"535 671 OFFCURVE",
"489 604 CURVE",
"442 671 OFFCURVE",
"375 710 OFFCURVE",
"298 710 CURVE SMOOTH",
"141 710 OFFCURVE",
"50 615 OFFCURVE",
"50 462 CURVE SMOOTH",
"50 50 LINE SMOOTH",
"50 12 OFFCURVE",
"77 -10 OFFCURVE",
"116 -10 CURVE SMOOTH"
);
}
);
width = 979;
},
{
anchors = (
{
name = bottom;
position = "{487, 0}";
},
{
name = top;
position = "{487, 700}";
}
);
layerId = "8ED59CAD-D047-43C0-8308-3370007B39AA";
paths = (
{
closed = 1;
nodes = (
"133 -10 OFFCURVE",
"150 6 OFFCURVE",
"150 33 CURVE SMOOTH",
"150 479 LINE SMOOTH",
"150 593 OFFCURVE",
"200 638 OFFCURVE",
"296 638 CURVE SMOOTH",
"374 638 OFFCURVE",
"443 588 OFFCURVE",
"443 479 CURVE SMOOTH",
"443 33 LINE SMOOTH",
"443 6 OFFCURVE",
"458 -10 OFFCURVE",
"484 -10 CURVE SMOOTH",
"510 -10 OFFCURVE",
"526 6 OFFCURVE",
"526 33 CURVE SMOOTH",
"526 479 LINE SMOOTH",
"526 589 OFFCURVE",
"590 638 OFFCURVE",
"672 638 CURVE SMOOTH",
"768 638 OFFCURVE",
"818 593 OFFCURVE",
"818 479 CURVE SMOOTH",
"818 33 LINE SMOOTH",
"818 6 OFFCURVE",
"834 -10 OFFCURVE",
"860 -10 CURVE SMOOTH",
"886 -10 OFFCURVE",
"903 6 OFFCURVE",
"903 33 CURVE SMOOTH",
"903 479 LINE SMOOTH",
"903 626 OFFCURVE",
"815 710 OFFCURVE",
"674 710 CURVE SMOOTH",
"584 710 OFFCURVE",
"517 661 OFFCURVE",
"484 596 CURVE",
"450 661 OFFCURVE",
"380 710 OFFCURVE",
"294 710 CURVE SMOOTH",
"154 710 OFFCURVE",
"65 626 OFFCURVE",
"65 479 CURVE SMOOTH",
"65 33 LINE SMOOTH",
"65 6 OFFCURVE",
"81 -10 OFFCURVE",
"107 -10 CURVE SMOOTH"
);
}
);
width = 968;
}
);
leftKerningGroup = M;
note = M;
rightKerningGroup = M;
unicode = 004D;
},
{
glyphname = N;
lastChange = "2018-03-10 08:40:14 +0000";
layers = (
{
anchors = (
{
name = bottom;
position = "{361, 0}";
},
{
name = top;
position = "{361, 700}";
}
);
layerId = "0B1DFD06-3317-40CA-B510-4969A0718C16";
paths = (
{
closed = 1;
nodes = (
"124 -10 OFFCURVE",
"133 2 OFFCURVE",
"133 22 CURVE SMOOTH",
"133 557 LINE SMOOTH",
"133 622 OFFCURVE",
"163 659 OFFCURVE",
"229 659 CURVE SMOOTH",
"358 659 OFFCURVE",
"412 500 OFFCURVE",
"539 246 CURVE SMOOTH",
"584 156 LINE",
"584 22 LINE SMOOTH",
"584 2 OFFCURVE",
"592 -10 OFFCURVE",
"610 -10 CURVE SMOOTH",
"628 -10 OFFCURVE",
"637 2 OFFCURVE",
"637 22 CURVE SMOOTH",
"637 678 LINE SMOOTH",
"637 698 OFFCURVE",
"628 710 OFFCURVE",
"610 710 CURVE SMOOTH",
"592 710 OFFCURVE",
"584 698 OFFCURVE",
"584 678 CURVE SMOOTH",
"584 269 LINE",
"559 320 LINE SMOOTH",
"454 535 OFFCURVE",
"382 710 OFFCURVE",
"229 710 CURVE SMOOTH",
"152 710 OFFCURVE",
"80 662 OFFCURVE",
"80 557 CURVE SMOOTH",
"80 22 LINE SMOOTH",
"80 2 OFFCURVE",
"88 -10 OFFCURVE",
"106 -10 CURVE SMOOTH"
);
}
);
width = 722;
},
{
anchors = (
{
name = bottom;
position = "{366, 0}";
},
{
name = top;
position = "{366, 690}";
}
);
layerId = "258BB4CE-589F-454F-8E39-237B943AA0B4";
paths = (
{
closed = 1;
nodes = (
"154 -10 OFFCURVE",
"183 12 OFFCURVE",
"183 50 CURVE SMOOTH",
"183 514 LINE SMOOTH",
"183 567 OFFCURVE",
"204 603 OFFCURVE",
"248 603 CURVE SMOOTH",
"318 603 OFFCURVE",
"351 523 OFFCURVE",
"466 297 CURVE SMOOTH",
"539 153 LINE",
"539 50 LINE SMOOTH",
"539 12 OFFCURVE",
"566 -10 OFFCURVE",
"605 -10 CURVE SMOOTH",
"643 -10 OFFCURVE",
"672 12 OFFCURVE",
"672 50 CURVE SMOOTH",
"672 650 LINE SMOOTH",
"672 688 OFFCURVE",
"643 710 OFFCURVE",
"605 710 CURVE SMOOTH",
"566 710 OFFCURVE",
"539 688 OFFCURVE",
"539 650 CURVE SMOOTH",
"539 400 LINE",
"502 474 LINE SMOOTH",
"426 626 OFFCURVE",
"376 710 OFFCURVE",
"236 710 CURVE SMOOTH",
"122 710 OFFCURVE",
"50 629 OFFCURVE",
"50 514 CURVE SMOOTH",
"50 50 LINE SMOOTH",
"50 12 OFFCURVE",
"77 -10 OFFCURVE",
"116 -10 CURVE SMOOTH"
);
}
);
width = 722;
},
{
anchors = (
{
name = bottom;
position = "{360, 0}";
},
{
name = top;
position = "{360, 696}";
}
);
layerId = "8ED59CAD-D047-43C0-8308-3370007B39AA";
paths = (
{
closed = 1;
nodes = (
"133 -10 OFFCURVE",
"150 6 OFFCURVE",
"150 33 CURVE SMOOTH",
"150 540 LINE SMOOTH",
"150 600 OFFCURVE",
"176 637 OFFCURVE",
"234 637 CURVE SMOOTH",
"339 637 OFFCURVE",
"385 509 OFFCURVE",
"507 266 CURVE SMOOTH",
"563 155 LINE",
"563 33 LINE SMOOTH",
"563 6 OFFCURVE",
"579 -10 OFFCURVE",
"605 -10 CURVE SMOOTH",
"631 -10 OFFCURVE",
"648 6 OFFCURVE",
"648 33 CURVE SMOOTH",
"648 667 LINE SMOOTH",
"648 694 OFFCURVE",
"631 710 OFFCURVE",
"605 710 CURVE SMOOTH",
"579 710 OFFCURVE",
"563 694 OFFCURVE",
"563 667 CURVE SMOOTH",
"563 321 LINE",
"533 382 LINE SMOOTH",
"440 571 OFFCURVE",
"377 710 OFFCURVE",
"229 710 CURVE SMOOTH",
"137 710 OFFCURVE",
"65 649 OFFCURVE",
"65 540 CURVE SMOOTH",
"65 33 LINE SMOOTH",
"65 6 OFFCURVE",
"81 -10 OFFCURVE",
"107 -10 CURVE SMOOTH"
);
}
);
width = 718;
}
);
leftKerningGroup = N;
note = N;
rightKerningGroup = N;
unicode = 004E;
},
{
glyphname = O;
lastChange = "2018-03-10 08:40:14 +0000";
layers = (
{
anchors = (
{
name = bottom;
position = "{404, 0}";
},
{
name = center;
position = "{404, 350}";
},
{
name = ogonek;
position = "{723, 10}";
},
{
name = top;
position = "{404, 700}";
},
{
name = topleft;
position = "{25, 700}";
},
{
name = topright;
position = "{644, 660}";
}
);
layerId = "0B1DFD06-3317-40CA-B510-4969A0718C16";
paths = (
{
closed = 1;
nodes = (
"592 -10 OFFCURVE",
"753 127 OFFCURVE",
"753 350 CURVE SMOOTH",
"753 573 OFFCURVE",
"592 710 OFFCURVE",
"404 710 CURVE SMOOTH",
"216 710 OFFCURVE",
"55 573 OFFCURVE",
"55 350 CURVE SMOOTH",
"55 127 OFFCURVE",
"216 -10 OFFCURVE",
"404 -10 CURVE SMOOTH"
);
},
{
closed = 1;
nodes = (
"241 39 OFFCURVE",
"108 147 OFFCURVE",
"108 350 CURVE SMOOTH",
"108 553 OFFCURVE",
"241 661 OFFCURVE",
"404 661 CURVE SMOOTH",
"567 661 OFFCURVE",
"700 553 OFFCURVE",
"700 350 CURVE SMOOTH",
"700 147 OFFCURVE",
"567 39 OFFCURVE",
"404 39 CURVE SMOOTH"
);
}
);
width = 808;
},
{
anchors = (
{
name = bottom;
position = "{414, 0}";
},
{
name = center;
position = "{429, 350}";
},
{
name = ogonek;
position = "{748, 10}";
},
{
name = top;
position = "{414, 690}";
},
{
name = topleft;
position = "{50, 700}";
},
{
name = topright;
position = "{671, 640}";
}
);
layerId = "258BB4CE-589F-454F-8E39-237B943AA0B4";
paths = (
{
closed = 1;
nodes = (
"652 -10 OFFCURVE",
"788 139 OFFCURVE",
"788 350 CURVE SMOOTH",
"788 561 OFFCURVE",
"652 710 OFFCURVE",
"414 710 CURVE SMOOTH",
"176 710 OFFCURVE",
"40 561 OFFCURVE",
"40 350 CURVE SMOOTH",
"40 139 OFFCURVE",
"176 -10 OFFCURVE",
"414 -10 CURVE SMOOTH"
);
},
{
closed = 1;
nodes = (
"260 95 OFFCURVE",
"174 195 OFFCURVE",
"174 350 CURVE SMOOTH",
"174 505 OFFCURVE",
"260 610 OFFCURVE",
"414 605 CURVE SMOOTH",
"568 600 OFFCURVE",
"654 505 OFFCURVE",
"654 350 CURVE SMOOTH",
"654 195 OFFCURVE",
"568 95 OFFCURVE",
"414 95 CURVE SMOOTH"
);
}
);
width = 828;
},
{
anchors = (
{
name = bottom;
position = "{404, 0}";
},
{
name = center;
position = "{410, 350}";
},
{
name = ogonek;
position = "{729, 10}";
},
{
name = top;
position = "{404, 696}";
},
{
name = topleft;
position = "{31, 700}";
},
{
name = topright;
position = "{651, 652}";
}
);
layerId = "8ED59CAD-D047-43C0-8308-3370007B39AA";
paths = (
{
closed = 1;
nodes = (
"612 -10 OFFCURVE",
"763 132 OFFCURVE",
"763 350 CURVE SMOOTH",
"763 568 OFFCURVE",
"612 710 OFFCURVE",
"404 710 CURVE SMOOTH",
"196 710 OFFCURVE",
"45 568 OFFCURVE",
"45 350 CURVE SMOOTH",
"45 132 OFFCURVE",
"196 -10 OFFCURVE",
"404 -10 CURVE SMOOTH"
);
},
{
closed = 1;
nodes = (
"245 61 OFFCURVE",
"130 166 OFFCURVE",
"130 350 CURVE SMOOTH",
"130 534 OFFCURVE",
"245 641 OFFCURVE",
"404 639 CURVE SMOOTH",
"563 637 OFFCURVE",
"678 534 OFFCURVE",
"678 350 CURVE SMOOTH",
"678 166 OFFCURVE",
"563 61 OFFCURVE",
"404 61 CURVE SMOOTH"
);
}
);
width = 808;
}
);
leftKerningGroup = O;
note = O;
rightKerningGroup = O;
unicode = 004F;
},
{
glyphname = P;
lastChange = "2018-03-10 08:40:14 +0000";
layers = (
{
anchors = (
{
name = bottom;
position = "{349, 0}";
},
{
name = top;
position = "{349, 700}";
}
);
layerId = "0B1DFD06-3317-40CA-B510-4969A0718C16";
paths = (
{
closed = 1;
nodes = (
"124 -10 OFFCURVE",
"133 2 OFFCURVE",
"133 22 CURVE SMOOTH",
"133 291 LINE",
"210 244 OFFCURVE",
"295 227 OFFCURVE",
"364 227 CURVE SMOOTH",
"511 227 OFFCURVE",
"642 310 OFFCURVE",
"642 464 CURVE SMOOTH",
"642 616 OFFCURVE",
"559 700 OFFCURVE",
"367 700 CURVE SMOOTH",
"196 700 LINE SMOOTH",
"114 700 OFFCURVE",
"80 650 OFFCURVE",
"80 590 CURVE SMOOTH",
"80 22 LINE SMOOTH",
"80 2 OFFCURVE",
"88 -10 OFFCURVE",
"106 -10 CURVE SMOOTH"
);
},
{
closed = 1;
nodes = (
"294 277 OFFCURVE",
"207 295 OFFCURVE",
"133 345 CURVE",
"133 593 LINE SMOOTH",
"133 629 OFFCURVE",
"155 653 OFFCURVE",
"190 653 CURVE SMOOTH",
"372 653 LINE SMOOTH",
"504 653 OFFCURVE",
"588 608 OFFCURVE",
"588 464 CURVE SMOOTH",
"588 322 OFFCURVE",
"468 277 OFFCURVE",
"363 277 CURVE SMOOTH"
);
}
);
width = 697;
},
{
anchors = (
{
name = bottom;
position = "{359, 0}";
},
{
name = top;
position = "{359, 700}";
}
);
layerId = "258BB4CE-589F-454F-8E39-237B943AA0B4";
paths = (
{
closed = 1;
nodes = (
"154 -11 OFFCURVE",
"183 11 OFFCURVE",
"183 49 CURVE SMOOTH",
"183 219 LINE",
"241 193 OFFCURVE",
"305 181 OFFCURVE",
"369 181 CURVE SMOOTH",
"566 181 OFFCURVE",
"682 278 OFFCURVE",
"682 441 CURVE SMOOTH",
"682 604 OFFCURVE",
"574 700 OFFCURVE",
"372 700 CURVE SMOOTH",
"203 700 LINE SMOOTH",
"107 700 OFFCURVE",
"50 645 OFFCURVE",
"50 552 CURVE SMOOTH",
"50 49 LINE SMOOTH",
"50 11 OFFCURVE",
"77 -11 OFFCURVE",
"116 -11 CURVE SMOOTH"
);
},
{
closed = 1;
nodes = (
"298 287 OFFCURVE",
"230 304 OFFCURVE",
"183 334 CURVE",
"183 548 LINE SMOOTH",
"183 579 OFFCURVE",
"199 597 OFFCURVE",
"226 597 CURVE SMOOTH",
"377 597 LINE SMOOTH",
"491 597 OFFCURVE",
"548 539 OFFCURVE",
"548 441 CURVE SMOOTH",
"548 344 OFFCURVE",
"481 287 OFFCURVE",
"368 287 CURVE SMOOTH"
);
}
);
width = 722;
},
{
anchors = (
{
name = bottom;
position = "{355, 0}";
},
{
name = top;
position = "{355, 700}";
}
);
layerId = "8ED59CAD-D047-43C0-8308-3370007B39AA";
paths = (
{
closed = 1;
nodes = (
"138 -10 OFFCURVE",
"155 6 OFFCURVE",
"155 33 CURVE SMOOTH",
"155 262 LINE",
"224 224 OFFCURVE",
"301 209 OFFCURVE",
"368 209 CURVE SMOOTH",
"535 209 OFFCURVE",
"660 297 OFFCURVE",
"660 455 CURVE SMOOTH",
"660 611 OFFCURVE",
"567 700 OFFCURVE",
"371 700 CURVE SMOOTH",
"201 700 LINE SMOOTH",
"113 700 OFFCURVE",
"70 648 OFFCURVE",
"70 575 CURVE SMOOTH",
"70 33 LINE SMOOTH",
"70 6 OFFCURVE",
"86 -10 OFFCURVE",
"112 -10 CURVE SMOOTH"
);
},
{
closed = 1;
nodes = (
"298 281 OFFCURVE",
"218 299 OFFCURVE",
"155 341 CURVE",
"155 575 LINE SMOOTH",
"155 609 OFFCURVE",
"175 631 OFFCURVE",
"206 631 CURVE SMOOTH",
"376 631 LINE SMOOTH",
"501 631 OFFCURVE",
"574 580 OFFCURVE",
"574 455 CURVE SMOOTH",
"574 331 OFFCURVE",
"475 281 OFFCURVE",
"367 281 CURVE SMOOTH"
);
}
);
width = 705;
}
);
note = P;
rightKerningGroup = P;
unicode = 0050;
},
{
glyphname = Q;
lastChange = "2018-03-10 08:40:14 +0000";
layers = (
{
anchors = (
{
name = bottom;
position = "{404, 0}";
},
{
name = top;
position = "{404, 700}";
}
);
layerId = "0B1DFD06-3317-40CA-B510-4969A0718C16";
paths = (
{
closed = 1;
nodes = (
"685 -29 OFFCURVE",
"686 -19 OFFCURVE",
"678 -1 CURVE SMOOTH",
"664 30 OFFCURVE",
"653 48 OFFCURVE",
"638 78 CURVE",
"708 140 OFFCURVE",
"753 234 OFFCURVE",
"753 350 CURVE SMOOTH",
"753 573 OFFCURVE",
"592 710 OFFCURVE",
"404 710 CURVE SMOOTH",
"216 710 OFFCURVE",
"55 573 OFFCURVE",
"55 350 CURVE SMOOTH",
"55 127 OFFCURVE",
"216 -10 OFFCURVE",
"404 -10 CURVE SMOOTH",
"478 -10 OFFCURVE",
"541 10 OFFCURVE",
"598 49 CURVE",
"612 24 OFFCURVE",
"630 -9 OFFCURVE",
"640 -29 CURVE SMOOTH",
"646 -41 OFFCURVE",
"661 -43 OFFCURVE",
"673 -36 CURVE SMOOTH"
);
},
{
closed = 1;
nodes = (
"343 39 OFFCURVE",
"285 55 OFFCURVE",
"238 85 CURVE",
"269 139 OFFCURVE",
"326 182 OFFCURVE",
"413 182 CURVE SMOOTH",
"494 182 OFFCURVE",
"541 142 OFFCURVE",
"575 89 CURVE",
"527 57 OFFCURVE",
"469 39 OFFCURVE",
"404 39 CURVE SMOOTH"
);
},
{
closed = 1;
nodes = (
"144 166 OFFCURVE",
"108 246 OFFCURVE",
"108 350 CURVE SMOOTH",
"108 553 OFFCURVE",
"241 661 OFFCURVE",
"404 661 CURVE SMOOTH",
"567 661 OFFCURVE",
"700 553 OFFCURVE",
"700 350 CURVE SMOOTH",
"700 249 OFFCURVE",
"666 171 OFFCURVE",
"613 119 CURVE",
"571 184 OFFCURVE",
"508 231 OFFCURVE",
"411 231 CURVE SMOOTH",
"315 231 OFFCURVE",
"240 180 OFFCURVE",
"199 114 CURVE"
);
}
);
width = 808;
},
{
anchors = (
{
name = bottom;
position = "{404, 0}";
},
{
name = top;
position = "{404, 700}";
}
);
layerId = "258BB4CE-589F-454F-8E39-237B943AA0B4";
paths = (
{
closed = 1;
nodes = (
"725 -14 OFFCURVE",
"729 14 OFFCURVE",
"712 47 CURVE SMOOTH",
"705 61 OFFCURVE",
"696 71 OFFCURVE",
"687 89 CURVE",
"753 152 OFFCURVE",
"788 243 OFFCURVE",
"788 350 CURVE SMOOTH",
"788 561 OFFCURVE",
"652 710 OFFCURVE",
"414 710 CURVE SMOOTH",
"176 710 OFFCURVE",
"40 561 OFFCURVE",
"40 350 CURVE SMOOTH",
"40 139 OFFCURVE",
"176 -13 OFFCURVE",
"414 -10 CURVE SMOOTH",
"483 -9 OFFCURVE",
"544 4 OFFCURVE",
"595 27 CURVE",
"604 11 OFFCURVE",
"612 -2 OFFCURVE",
"618 -14 CURVE SMOOTH",
"631 -40 OFFCURVE",
"666 -48 OFFCURVE",
"692 -33 CURVE SMOOTH"
);
},
{
closed = 1;
nodes = (
"366 95 OFFCURVE",
"325 105 OFFCURVE",
"291 123 CURVE",
"320 159 OFFCURVE",
"365 180 OFFCURVE",
"413 180 CURVE SMOOTH",
"460 180 OFFCURVE",
"504 158 OFFCURVE",
"533 121 CURVE",
"500 104 OFFCURVE",
"460 95 OFFCURVE",
"414 95 CURVE SMOOTH"
);
},
{
closed = 1;
nodes = (
"187 237 OFFCURVE",
"174 289 OFFCURVE",
"174 350 CURVE SMOOTH",
"174 505 OFFCURVE",
"260 610 OFFCURVE",
"414 605 CURVE SMOOTH",
"568 600 OFFCURVE",
"654 505 OFFCURVE",
"654 350 CURVE SMOOTH",
"654 288 OFFCURVE",
"640 235 OFFCURVE",
"614 193 CURVE",
"563 249 OFFCURVE",
"488 281 OFFCURVE",
"411 281 CURVE SMOOTH",
"340 281 OFFCURVE",
"267 249 OFFCURVE",
"212 196 CURVE"
);
}
);
width = 828;
},
{
anchors = (
{
name = bottom;
position = "{400, 0}";
},
{
name = top;
position = "{400, 700}";
}
);
layerId = "8ED59CAD-D047-43C0-8308-3370007B39AA";
paths = (
{
closed = 1;
nodes = (
"697 -23 OFFCURVE",
"699 -6 OFFCURVE",
"688 18 CURVE SMOOTH",
"676 42 OFFCURVE",
"666 57 OFFCURVE",
"654 82 CURVE",
"722 145 OFFCURVE",
"763 238 OFFCURVE",
"763 350 CURVE SMOOTH",
"763 568 OFFCURVE",
"612 710 OFFCURVE",
"404 710 CURVE SMOOTH",
"196 710 OFFCURVE",
"45 568 OFFCURVE",
"45 350 CURVE SMOOTH",
"45 132 OFFCURVE",
"196 -11 OFFCURVE",
"404 -10 CURVE SMOOTH",
"476 -10 OFFCURVE",
"538 8 OFFCURVE",
"593 40 CURVE",
"605 19 OFFCURVE",
"619 -6 OFFCURVE",
"627 -23 CURVE SMOOTH",
"636 -41 OFFCURVE",
"659 -45 OFFCURVE",
"677 -35 CURVE SMOOTH"
);
},
{
closed = 1;
nodes = (
"348 61 OFFCURVE",
"297 75 OFFCURVE",
"255 100 CURVE",
"285 147 OFFCURVE",
"338 181 OFFCURVE",
"409 181 CURVE SMOOTH",
"476 181 OFFCURVE",
"522 148 OFFCURVE",
"554 102 CURVE",
"512 76 OFFCURVE",
"461 61 OFFCURVE",
"404 61 CURVE SMOOTH"
);
},
{
closed = 1;
nodes = (
"157 194 OFFCURVE",
"130 263 OFFCURVE",
"130 350 CURVE SMOOTH",
"130 534 OFFCURVE",
"245 641 OFFCURVE",
"404 639 CURVE SMOOTH",
"563 637 OFFCURVE",
"678 534 OFFCURVE",
"678 350 CURVE SMOOTH",
"678 265 OFFCURVE",
"652 197 OFFCURVE",
"609 149 CURVE",
"564 210 OFFCURVE",
"496 251 OFFCURVE",
"407 251 CURVE SMOOTH",
"321 251 OFFCURVE",
"247 208 OFFCURVE",
"200 147 CURVE"
);
}
);
width = 808;
}
);
leftKerningGroup = O;
note = Q;
rightKerningGroup = O;
unicode = 0051;
},
{
glyphname = R;
lastChange = "2018-03-10 08:40:14 +0000";
layers = (
{
anchors = (
{
name = bottom;
position = "{353, 0}";
},
{
name = top;
position = "{353, 700}";
}
);
layerId = "0B1DFD06-3317-40CA-B510-4969A0718C16";
paths = (
{
closed = 1;
nodes = (
"124 -10 OFFCURVE",
"133 2 OFFCURVE",
"133 22 CURVE SMOOTH",
"133 593 LINE SMOOTH",
"133 629 OFFCURVE",
"155 653 OFFCURVE",
"190 653 CURVE SMOOTH",
"384 653 LINE SMOOTH",
"521 653 OFFCURVE",
"598 604 OFFCURVE",
"598 490 CURVE SMOOTH",
"598 382 OFFCURVE",
"514 351 OFFCURVE",
"422 351 CURVE SMOOTH",
"384 351 OFFCURVE",
"327 360 OFFCURVE",
"286 372 CURVE SMOOTH",
"276 375 OFFCURVE",
"263 376 OFFCURVE",
"252 361 CURVE SMOOTH",
"243 349 OFFCURVE",
"246 333 OFFCURVE",
"264 315 CURVE SMOOTH",
"570 12 LINE",
"583 -6 OFFCURVE",
"596 -9 OFFCURVE",
"610 -1 CURVE SMOOTH",
"623 6 OFFCURVE",
"623 19 OFFCURVE",
"618 32 CURVE SMOOTH",
"331 312 LINE",
"332 315 LINE",
"364 308 OFFCURVE",
"396 304 OFFCURVE",
"426 304 CURVE SMOOTH",
"554 304 OFFCURVE",
"651 370 OFFCURVE",
"651 492 CURVE SMOOTH",
"651 664 OFFCURVE",
"506 700 OFFCURVE",
"379 700 CURVE SMOOTH",
"196 700 LINE SMOOTH",
"114 700 OFFCURVE",
"80 650 OFFCURVE",
"80 590 CURVE SMOOTH",
"80 22 LINE SMOOTH",
"80 2 OFFCURVE",
"88 -10 OFFCURVE",
"106 -10 CURVE SMOOTH"
);
}
);
width = 706;
},
{
anchors = (
{
name = bottom;
position = "{363, 0}";
},
{
name = top;
position = "{363, 690}";
}
);
layerId = "258BB4CE-589F-454F-8E39-237B943AA0B4";
paths = (
{
closed = 1;
nodes = (
"154 -10 OFFCURVE",
"183 12 OFFCURVE",
"183 50 CURVE SMOOTH",
"183 548 LINE SMOOTH",
"183 579 OFFCURVE",
"199 597 OFFCURVE",
"226 597 CURVE SMOOTH",
"432 597 LINE SMOOTH",
"510 597 OFFCURVE",
"553 557 OFFCURVE",
"553 488 CURVE SMOOTH",
"553 415 OFFCURVE",
"520 372 OFFCURVE",
"441 372 CURVE SMOOTH",
"405 372 OFFCURVE",
"365 377 OFFCURVE",
"330 386 CURVE SMOOTH",
"304 393 OFFCURVE",
"276 387 OFFCURVE",
"259 365 CURVE SMOOTH",
"235 334 OFFCURVE",
"241 298 OFFCURVE",
"272 269 CURVE SMOOTH",
"535 16 LINE SMOOTH",
"567 -14 OFFCURVE",
"603 -19 OFFCURVE",
"636 9 CURVE SMOOTH",
"663 32 OFFCURVE",
"658 67 OFFCURVE",
"632 90 CURVE SMOOTH",
"423 277 LINE",
"424 278 LINE",
"442 274 OFFCURVE",
"466 271 OFFCURVE",
"482 271 CURVE SMOOTH",
"599 271 OFFCURVE",
"686 368 OFFCURVE",
"686 490 CURVE SMOOTH",
"686 612 OFFCURVE",
"592 700 OFFCURVE",
"427 700 CURVE SMOOTH",
"203 700 LINE SMOOTH",
"107 700 OFFCURVE",
"50 645 OFFCURVE",
"50 552 CURVE SMOOTH",
"50 50 LINE SMOOTH",
"50 12 OFFCURVE",
"77 -10 OFFCURVE",
"116 -10 CURVE SMOOTH"
);
}
);
width = 726;
},
{
anchors = (
{
name = bottom;
position = "{359, 0}";
},
{
name = top;
position = "{359, 696}";
}
);
layerId = "8ED59CAD-D047-43C0-8308-3370007B39AA";
paths = (
{
closed = 1;
nodes = (
"138 -10 OFFCURVE",
"155 6 OFFCURVE",
"155 33 CURVE SMOOTH",
"155 575 LINE SMOOTH",
"155 609 OFFCURVE",
"175 631 OFFCURVE",
"206 631 CURVE SMOOTH",
"405 631 LINE SMOOTH",
"519 631 OFFCURVE",
"582 585 OFFCURVE",
"582 489 CURVE SMOOTH",
"582 395 OFFCURVE",
"518 359 OFFCURVE",
"432 359 CURVE SMOOTH",
"394 359 OFFCURVE",
"344 367 OFFCURVE",
"306 378 CURVE SMOOTH",
"289 382 OFFCURVE",
"270 380 OFFCURVE",
"257 363 CURVE SMOOTH",
"242 343 OFFCURVE",
"246 319 OFFCURVE",
"269 297 CURVE SMOOTH",
"558 14 LINE",
"579 -9 OFFCURVE",
"601 -13 OFFCURVE",
"622 3 CURVE SMOOTH",
"641 16 OFFCURVE",
"639 38 OFFCURVE",
"626 55 CURVE SMOOTH",
"370 298 LINE",
"371 300 LINE",
"397 294 OFFCURVE",
"426 291 OFFCURVE",
"450 291 CURVE SMOOTH",
"574 291 OFFCURVE",
"667 369 OFFCURVE",
"667 491 CURVE SMOOTH",
"667 643 OFFCURVE",
"542 700 OFFCURVE",
"400 700 CURVE SMOOTH",
"201 700 LINE SMOOTH",
"113 700 OFFCURVE",
"70 648 OFFCURVE",
"70 575 CURVE SMOOTH",
"70 33 LINE SMOOTH",
"70 6 OFFCURVE",
"86 -10 OFFCURVE",
"112 -10 CURVE SMOOTH"
);
}
);
width = 712;
}
);
leftKerningGroup = R;
note = R;
rightKerningGroup = R;
unicode = 0052;
},
{
glyphname = S;
lastChange = "2018-03-10 08:40:14 +0000";
layers = (
{
anchors = (
{
name = bottom;
position = "{331, 0}";
},
{
name = top;
position = "{331, 700}";
}
);
layerId = "0B1DFD06-3317-40CA-B510-4969A0718C16";
paths = (
{
closed = 1;
nodes = (
"492 -10 OFFCURVE",
"606 50 OFFCURVE",
"606 179 CURVE SMOOTH",
"606 316 OFFCURVE",
"457 356 OFFCURVE",
"336 384 CURVE SMOOTH",
"228 409 OFFCURVE",
"124 433 OFFCURVE",
"124 532 CURVE SMOOTH",
"124 621 OFFCURVE",
"191 660 OFFCURVE",
"323 660 CURVE SMOOTH",
"433 660 OFFCURVE",
"507 625 OFFCURVE",
"540 569 CURVE",
"549 556 OFFCURVE",
"566 551 OFFCURVE",
"579 557 CURVE",
"592 565 OFFCURVE",
"596 578 OFFCURVE",
"589 591 CURVE SMOOTH",
"549 666 OFFCURVE",
"441 710 OFFCURVE",
"323 710 CURVE SMOOTH",
"153 710 OFFCURVE",
"70 635 OFFCURVE",
"70 532 CURVE SMOOTH",
"70 400 OFFCURVE",
"201 360 OFFCURVE",
"336 330 CURVE SMOOTH",
"444 306 OFFCURVE",
"552 277 OFFCURVE",
"552 179 CURVE SMOOTH",
"552 88 OFFCURVE",
"478 40 OFFCURVE",
"349 40 CURVE SMOOTH",
"250 40 OFFCURVE",
"159 68 OFFCURVE",
"104 135 CURVE SMOOTH",
"95 146 OFFCURVE",
"81 156 OFFCURVE",
"67 147 CURVE SMOOTH",
"55 139 OFFCURVE",
"51 124 OFFCURVE",
"60 111 CURVE SMOOTH",
"112 35 OFFCURVE",
"228 -10 OFFCURVE",
"349 -10 CURVE SMOOTH"
);
}
);
width = 661;
},
{
anchors = (
{
name = bottom;
position = "{385, 0}";
},
{
name = top;
position = "{355, 690}";
}
);
layerId = "258BB4CE-589F-454F-8E39-237B943AA0B4";
paths = (
{
closed = 1;
nodes = (
"560 -10 OFFCURVE",
"662 70 OFFCURVE",
"662 181 CURVE SMOOTH",
"662 295 OFFCURVE",
"587 364 OFFCURVE",
"370 415 CURVE SMOOTH",
"247 444 OFFCURVE",
"198 472 OFFCURVE",
"198 524 CURVE SMOOTH",
"198 575 OFFCURVE",
"254 605 OFFCURVE",
"348 605 CURVE SMOOTH",
"424 605 OFFCURVE",
"492 577 OFFCURVE",
"531 530 CURVE SMOOTH",
"551 506 OFFCURVE",
"587 497 OFFCURVE",
"612 515 CURVE SMOOTH",
"640 535 OFFCURVE",
"644 564 OFFCURVE",
"624 594 CURVE SMOOTH",
"574 667 OFFCURVE",
"472 710 OFFCURVE",
"348 710 CURVE SMOOTH",
"169 710 OFFCURVE",
"64 627 OFFCURVE",
"64 524 CURVE SMOOTH",
"64 415 OFFCURVE",
"142 344 OFFCURVE",
"352 298 CURVE SMOOTH",
"484 269 OFFCURVE",
"528 237 OFFCURVE",
"528 181 CURVE SMOOTH",
"528 127 OFFCURVE",
"476 95 OFFCURVE",
"388 95 CURVE SMOOTH",
"293 95 OFFCURVE",
"204 130 OFFCURVE",
"143 185 CURVE SMOOTH",
"110 214 OFFCURVE",
"84 215 OFFCURVE",
"60 192 CURVE SMOOTH",
"37 170 OFFCURVE",
"31 139 OFFCURVE",
"55 116 CURVE SMOOTH",
"137 37 OFFCURVE",
"254 -10 OFFCURVE",
"388 -10 CURVE SMOOTH"
);
}
);
width = 702;
},
{
anchors = (
{
name = bottom;
position = "{349, 0}";
},
{
name = top;
position = "{337, 696}";
}
);
layerId = "8ED59CAD-D047-43C0-8308-3370007B39AA";
paths = (
{
closed = 1;
nodes = (
"515 -10 OFFCURVE",
"624 58 OFFCURVE",
"624 180 CURVE SMOOTH",
"624 308 OFFCURVE",
"505 359 OFFCURVE",
"346 396 CURVE SMOOTH",
"232 423 OFFCURVE",
"150 449 OFFCURVE",
"150 529 CURVE SMOOTH",
"150 603 OFFCURVE",
"212 638 OFFCURVE",
"329 638 CURVE SMOOTH",
"425 638 OFFCURVE",
"497 606 OFFCURVE",
"532 553 CURVE",
"546 536 OFFCURVE",
"570 529 OFFCURVE",
"588 540 CURVE",
"607 553 OFFCURVE",
"611 572 OFFCURVE",
"599 592 CURVE SMOOTH",
"555 666 OFFCURVE",
"449 710 OFFCURVE",
"329 710 CURVE SMOOTH",
"155 710 OFFCURVE",
"64 632 OFFCURVE",
"64 529 CURVE SMOOTH",
"64 406 OFFCURVE",
"173 354 OFFCURVE",
"338 317 CURVE SMOOTH",
"456 291 OFFCURVE",
"538 261 OFFCURVE",
"538 180 CURVE SMOOTH",
"538 104 OFFCURVE",
"473 62 OFFCURVE",
"361 62 CURVE SMOOTH",
"263 62 OFFCURVE",
"173 93 OFFCURVE",
"116 155 CURVE SMOOTH",
"97 173 OFFCURVE",
"78 180 OFFCURVE",
"60 165 CURVE SMOOTH",
"44 151 OFFCURVE",
"39 130 OFFCURVE",
"54 113 CURVE SMOOTH",
"118 36 OFFCURVE",
"234 -10 OFFCURVE",
"361 -10 CURVE SMOOTH"
);
}
);
width = 669;
}
);
leftKerningGroup = S;
note = S;
rightKerningGroup = S;
unicode = 0053;
},
{
glyphname = T;
lastChange = "2018-03-10 08:40:14 +0000";
layers = (
{
anchors = (
{
name = bottom;
position = "{345, 0}";
},
{
name = center;
position = "{345, 350}";
},
{
name = top;
position = "{345, 700}";
}
);
layerId = "0B1DFD06-3317-40CA-B510-4969A0718C16";
paths = (
{
closed = 1;
nodes = (
"362 -10 OFFCURVE",
"371 2 OFFCURVE",
"371 22 CURVE SMOOTH",
"371 653 LINE",
"614 653 LINE SMOOTH",
"634 653 OFFCURVE",
"644 661 OFFCURVE",
"644 676 CURVE SMOOTH",
"644 694 OFFCURVE",
"633 700 OFFCURVE",
"614 700 CURVE SMOOTH",
"75 700 LINE SMOOTH",
"56 700 OFFCURVE",
"45 694 OFFCURVE",
"45 676 CURVE SMOOTH",
"45 661 OFFCURVE",
"55 654 OFFCURVE",
"75 653 CURVE SMOOTH",
"318 653 LINE",
"318 22 LINE SMOOTH",
"318 2 OFFCURVE",
"326 -10 OFFCURVE",
"344 -10 CURVE SMOOTH"
);
}
);
width = 689;
},
{
anchors = (
{
name = bottom;
position = "{342, 0}";
},
{
name = center;
position = "{342, 350}";
},
{
name = top;
position = "{342, 690}";
}
);
layerId = "258BB4CE-589F-454F-8E39-237B943AA0B4";
paths = (
{
closed = 1;
nodes = (
"379 -10 OFFCURVE",
"408 12 OFFCURVE",
"408 50 CURVE SMOOTH",
"408 597 LINE",
"601 597 LINE SMOOTH",
"637 597 OFFCURVE",
"663 614 OFFCURVE",
"663 648 CURVE SMOOTH",
"663 683 OFFCURVE",
"639 700 OFFCURVE",
"601 700 CURVE SMOOTH",
"82 700 LINE SMOOTH",
"44 700 OFFCURVE",
"20 683 OFFCURVE",
"20 648 CURVE SMOOTH",
"20 614 OFFCURVE",
"46 597 OFFCURVE",
"82 597 CURVE SMOOTH",
"275 597 LINE",
"275 50 LINE SMOOTH",
"275 12 OFFCURVE",
"302 -10 OFFCURVE",
"341 -10 CURVE SMOOTH"
);
}
);
width = 683;
},
{
anchors = (
{
name = bottom;
position = "{344, 0}";
},
{
name = center;
position = "{344, 350}";
},
{
name = top;
position = "{344, 696}";
}
);
layerId = "8ED59CAD-D047-43C0-8308-3370007B39AA";
paths = (
{
closed = 1;
nodes = (
"369 -10 OFFCURVE",
"386 6 OFFCURVE",
"386 33 CURVE SMOOTH",
"386 631 LINE",
"609 631 LINE SMOOTH",
"635 631 OFFCURVE",
"652 642 OFFCURVE",
"652 665 CURVE SMOOTH",
"652 690 OFFCURVE",
"635 700 OFFCURVE",
"609 700 CURVE SMOOTH",
"78 700 LINE SMOOTH",
"51 700 OFFCURVE",
"35 690 OFFCURVE",
"35 665 CURVE SMOOTH",
"35 642 OFFCURVE",
"51 631 OFFCURVE",
"78 631 CURVE SMOOTH",
"301 631 LINE",
"301 33 LINE SMOOTH",
"301 6 OFFCURVE",
"316 -10 OFFCURVE",
"343 -10 CURVE SMOOTH"
);
}
);
width = 687;
}
);
leftKerningGroup = T;
note = T;
rightKerningGroup = T;
unicode = 0054;
},
{
glyphname = U;
lastChange = "2018-03-10 08:40:14 +0000";
layers = (
{
anchors = (
{
name = bottom;
position = "{366, 0}";
},
{
name = ogonek;
position = "{395, 10}";
},
{
name = top;
position = "{366, 700}";
},
{
name = topright;
position = "{635, 666}";
}
);
layerId = "0B1DFD06-3317-40CA-B510-4969A0718C16";
paths = (
{
closed = 1;
nodes = (
"532 -10 OFFCURVE",
"652 92 OFFCURVE",
"652 275 CURVE SMOOTH",
"652 678 LINE SMOOTH",
"652 698 OFFCURVE",
"644 710 OFFCURVE",
"626 710 CURVE SMOOTH",
"608 710 OFFCURVE",
"599 698 OFFCURVE",
"599 678 CURVE SMOOTH",
"599 272 LINE SMOOTH",
"599 119 OFFCURVE",
"506 39 OFFCURVE",
"366 39 CURVE SMOOTH",
"221 39 OFFCURVE",
"133 119 OFFCURVE",
"133 272 CURVE SMOOTH",
"133 678 LINE SMOOTH",
"133 698 OFFCURVE",
"124 710 OFFCURVE",
"106 710 CURVE SMOOTH",
"88 710 OFFCURVE",
"80 698 OFFCURVE",
"80 678 CURVE SMOOTH",
"80 275 LINE SMOOTH",
"80 92 OFFCURVE",
"190 -10 OFFCURVE",
"366 -10 CURVE SMOOTH"
);
}
);
width = 732;
},
{
anchors = (
{
name = bottom;
position = "{360, 0}";
},
{
name = ogonek;
position = "{391, 10}";
},
{
name = top;
position = "{360, 700}";
},
{
name = topright;
position = "{645, 640}";
}
);
layerId = "258BB4CE-589F-454F-8E39-237B943AA0B4";
paths = (
{
closed = 1;
nodes = (
"547 -10 OFFCURVE",
"675 113 OFFCURVE",
"675 303 CURVE SMOOTH",
"675 650 LINE SMOOTH",
"675 688 OFFCURVE",
"648 710 OFFCURVE",
"609 710 CURVE SMOOTH",
"571 710 OFFCURVE",
"542 688 OFFCURVE",
"542 650 CURVE SMOOTH",
"542 300 LINE SMOOTH",
"542 168 OFFCURVE",
"474 95 OFFCURVE",
"360 95 CURVE SMOOTH",
"244 95 OFFCURVE",
"178 166 OFFCURVE",
"178 300 CURVE SMOOTH",
"178 650 LINE SMOOTH",
"178 688 OFFCURVE",
"149 710 OFFCURVE",
"111 710 CURVE SMOOTH",
"72 710 OFFCURVE",
"45 688 OFFCURVE",
"45 650 CURVE SMOOTH",
"45 303 LINE SMOOTH",
"45 108 OFFCURVE",
"168 -10 OFFCURVE",
"360 -10 CURVE SMOOTH"
);
}
);
width = 720;
},
{
anchors = (
{
name = bottom;
position = "{363, 0}";
},
{
name = ogonek;
position = "{392, 10}";
},
{
name = top;
position = "{363, 700}";
},
{
name = topright;
position = "{638, 656}";
}
);
layerId = "8ED59CAD-D047-43C0-8308-3370007B39AA";
paths = (
{
closed = 1;
nodes = (
"537 -10 OFFCURVE",
"660 100 OFFCURVE",
"660 286 CURVE SMOOTH",
"660 667 LINE SMOOTH",
"660 694 OFFCURVE",
"645 710 OFFCURVE",
"618 710 CURVE SMOOTH",
"592 710 OFFCURVE",
"575 694 OFFCURVE",
"575 667 CURVE SMOOTH",
"575 283 LINE SMOOTH",
"575 139 OFFCURVE",
"492 61 OFFCURVE",
"363 61 CURVE SMOOTH",
"229 61 OFFCURVE",
"150 138 OFFCURVE",
"150 283 CURVE SMOOTH",
"150 667 LINE SMOOTH",
"150 694 OFFCURVE",
"133 710 OFFCURVE",
"107 710 CURVE SMOOTH",
"81 710 OFFCURVE",
"65 694 OFFCURVE",
"65 667 CURVE SMOOTH",
"65 286 LINE SMOOTH",
"65 98 OFFCURVE",
"180 -10 OFFCURVE",
"363 -10 CURVE SMOOTH"
);
}
);
width = 725;
}
);
leftKerningGroup = U;
note = U;
rightKerningGroup = U;
unicode = 0055;
},
{
glyphname = V;
lastChange = "2018-03-10 08:40:14 +0000";
layers = (
{
anchors = (
{
name = bottom;
position = "{354, 0}";
},
{
name = top;
position = "{354, 700}";
}
);
layerId = "0B1DFD06-3317-40CA-B510-4969A0718C16";
paths = (
{
closed = 1;
nodes = (
"437 -10 OFFCURVE",
"490 33 OFFCURVE",
"529 188 CURVE SMOOTH",
"651 675 LINE SMOOTH",
"656 696 OFFCURVE",
"652 710 OFFCURVE",
"630 710 CURVE SMOOTH",
"608 710 OFFCURVE",
"604 701 OFFCURVE",
"599 680 CURVE SMOOTH",
"478 194 LINE SMOOTH",
"450 80 OFFCURVE",
"421 38 OFFCURVE",
"354 38 CURVE SMOOTH",
"287 38 OFFCURVE",
"258 80 OFFCURVE",
"230 194 CURVE SMOOTH",
"109 680 LINE SMOOTH",
"104 701 OFFCURVE",
"100 710 OFFCURVE",
"78 710 CURVE SMOOTH",
"56 710 OFFCURVE",
"52 696 OFFCURVE",
"57 675 CURVE SMOOTH",
"179 188 LINE SMOOTH",
"218 33 OFFCURVE",
"271 -10 OFFCURVE",
"354 -10 CURVE SMOOTH"
);
}
);
width = 708;
},
{
anchors = (
{
name = bottom;
position = "{380, 0}";
},
{
name = top;
position = "{380, 700}";
}
);
layerId = "258BB4CE-589F-454F-8E39-237B943AA0B4";
paths = (
{
closed = 1;
nodes = (
"506 -10 OFFCURVE",
"551 68 OFFCURVE",
"589 199 CURVE SMOOTH",
"716 641 LINE SMOOTH",
"728 684 OFFCURVE",
"711 710 OFFCURVE",
"658 710 CURVE SMOOTH",
"613 710 OFFCURVE",
"595 691 OFFCURVE",
"586 659 CURVE SMOOTH",
"460 209 LINE SMOOTH",
"438 130 OFFCURVE",
"422 94 OFFCURVE",
"380 94 CURVE SMOOTH",
"338 94 OFFCURVE",
"322 130 OFFCURVE",
"300 209 CURVE SMOOTH",
"174 659 LINE SMOOTH",
"165 691 OFFCURVE",
"147 710 OFFCURVE",
"102 710 CURVE SMOOTH",
"49 710 OFFCURVE",
"32 684 OFFCURVE",
"44 641 CURVE SMOOTH",
"171 199 LINE SMOOTH",
"209 68 OFFCURVE",
"254 -10 OFFCURVE",
"380 -10 CURVE SMOOTH"
);
}
);
width = 760;
},
{
anchors = (
{
name = bottom;
position = "{360, 0}";
},
{
name = top;
position = "{360, 700}";
}
);
layerId = "8ED59CAD-D047-43C0-8308-3370007B39AA";
paths = (
{
closed = 1;
nodes = (
"461 -10 OFFCURVE",
"510 47 OFFCURVE",
"549 192 CURVE SMOOTH",
"673 661 LINE SMOOTH",
"681 691 OFFCURVE",
"672 710 OFFCURVE",
"637 710 CURVE SMOOTH",
"606 710 OFFCURVE",
"596 697 OFFCURVE",
"590 672 CURVE SMOOTH",
"467 200 LINE SMOOTH",
"441 100 OFFCURVE",
"417 60 OFFCURVE",
"360 60 CURVE SMOOTH",
"303 60 OFFCURVE",
"280 100 OFFCURVE",
"254 200 CURVE SMOOTH",
"131 672 LINE SMOOTH",
"124 697 OFFCURVE",
"115 710 OFFCURVE",
"84 710 CURVE SMOOTH",
"49 710 OFFCURVE",
"40 691 OFFCURVE",
"48 661 CURVE SMOOTH",
"172 192 LINE SMOOTH",
"210 47 OFFCURVE",
"260 -10 OFFCURVE",
"360 -10 CURVE SMOOTH"
);
}
);
width = 721;
}
);
note = V;
unicode = 0056;
},
{
glyphname = W;
lastChange = "2018-03-10 08:40:14 +0000";
layers = (
{
anchors = (
{
name = bottom;
position = "{467, 0}";
},
{
name = top;
position = "{467, 700}";
}
);
layerId = "0B1DFD06-3317-40CA-B510-4969A0718C16";
paths = (
{
closed = 1;
nodes = (
"302 -10 OFFCURVE",
"340 7 OFFCURVE",
"354 94 CURVE SMOOTH",
"440 622 LINE SMOOTH",
"445 650 OFFCURVE",
"452 662 OFFCURVE",
"467 662 CURVE SMOOTH",
"482 662 OFFCURVE",
"489 650 OFFCURVE",
"494 622 CURVE SMOOTH",
"580 94 LINE SMOOTH",
"594 7 OFFCURVE",
"632 -10 OFFCURVE",
"670 -10 CURVE SMOOTH",
"708 -10 OFFCURVE",
"748 7 OFFCURVE",
"765 94 CURVE SMOOTH",
"877 675 LINE SMOOTH",
"881 696 OFFCURVE",
"878 710 OFFCURVE",
"856 710 CURVE SMOOTH",
"834 710 OFFCURVE",
"829 701 OFFCURVE",
"825 680 CURVE SMOOTH",
"714 95 LINE SMOOTH",
"707 56 OFFCURVE",
"697 38 OFFCURVE",
"670 38 CURVE SMOOTH",
"643 38 OFFCURVE",
"632 56 OFFCURVE",
"626 95 CURVE SMOOTH",
"541 623 LINE SMOOTH",
"531 684 OFFCURVE",
"506 710 OFFCURVE",
"467 710 CURVE SMOOTH",
"428 710 OFFCURVE",
"403 684 OFFCURVE",
"393 623 CURVE SMOOTH",
"308 95 LINE SMOOTH",
"302 56 OFFCURVE",
"291 38 OFFCURVE",
"264 38 CURVE SMOOTH",
"237 38 OFFCURVE",
"227 56 OFFCURVE",
"220 95 CURVE SMOOTH",
"109 680 LINE SMOOTH",
"105 701 OFFCURVE",
"100 710 OFFCURVE",
"78 710 CURVE SMOOTH",
"56 710 OFFCURVE",
"53 696 OFFCURVE",
"57 675 CURVE SMOOTH",
"169 94 LINE SMOOTH",
"186 7 OFFCURVE",
"226 -10 OFFCURVE",
"264 -10 CURVE SMOOTH"
);
}
);
width = 934;
},
{
anchors = (
{
name = bottom;
position = "{479, 0}";
},
{
name = top;
position = "{479, 690}";
}
);
layerId = "258BB4CE-589F-454F-8E39-237B943AA0B4";
paths = (
{
closed = 1;
nodes = (
"357 -10 OFFCURVE",
"394 39 OFFCURVE",
"406 130 CURVE SMOOTH",
"465 578 LINE SMOOTH",
"467 592 OFFCURVE",
"469 605 OFFCURVE",
"479 605 CURVE SMOOTH",
"489 605 OFFCURVE",
"491 592 OFFCURVE",
"493 578 CURVE SMOOTH",
"552 130 LINE SMOOTH",
"564 39 OFFCURVE",
"601 -10 OFFCURVE",
"680 -10 CURVE SMOOTH",
"760 -10 OFFCURVE",
"799 41 OFFCURVE",
"817 133 CURVE SMOOTH",
"916 642 LINE SMOOTH",
"925 686 OFFCURVE",
"901 710 OFFCURVE",
"856 710 CURVE SMOOTH",
"817 710 OFFCURVE",
"793 694 OFFCURVE",
"786 657 CURVE SMOOTH",
"691 122 LINE SMOOTH",
"688 108 OFFCURVE",
"686 95 OFFCURVE",
"676 95 CURVE SMOOTH",
"667 95 OFFCURVE",
"663 105 OFFCURVE",
"661 121 CURVE SMOOTH",
"598 600 LINE SMOOTH",
"589 671 OFFCURVE",
"543 710 OFFCURVE",
"479 710 CURVE SMOOTH",
"415 710 OFFCURVE",
"369 671 OFFCURVE",
"360 600 CURVE SMOOTH",
"297 121 LINE SMOOTH",
"295 105 OFFCURVE",
"291 95 OFFCURVE",
"282 95 CURVE SMOOTH",
"272 95 OFFCURVE",
"270 108 OFFCURVE",
"267 122 CURVE SMOOTH",
"172 657 LINE SMOOTH",
"165 694 OFFCURVE",
"141 710 OFFCURVE",
"102 710 CURVE SMOOTH",
"57 710 OFFCURVE",
"33 686 OFFCURVE",
"42 642 CURVE SMOOTH",
"141 133 LINE SMOOTH",
"159 41 OFFCURVE",
"198 -10 OFFCURVE",
"278 -10 CURVE SMOOTH"
);
}
);
width = 958;
},
{
anchors = (
{
name = bottom;
position = "{468, 0}";
},
{
name = top;
position = "{468, 696}";
}
);
layerId = "8ED59CAD-D047-43C0-8308-3370007B39AA";
paths = (
{
closed = 1;
nodes = (
"320 -10 OFFCURVE",
"358 20 OFFCURVE",
"371 108 CURVE SMOOTH",
"446 604 LINE SMOOTH",
"450 627 OFFCURVE",
"455 639 OFFCURVE",
"468 639 CURVE SMOOTH",
"481 639 OFFCURVE",
"486 627 OFFCURVE",
"490 604 CURVE SMOOTH",
"565 108 LINE SMOOTH",
"578 20 OFFCURVE",
"616 -10 OFFCURVE",
"670 -10 CURVE SMOOTH",
"725 -10 OFFCURVE",
"764 21 OFFCURVE",
"782 110 CURVE SMOOTH",
"889 662 LINE SMOOTH",
"895 692 OFFCURVE",
"883 710 OFFCURVE",
"852 710 CURVE SMOOTH",
"823 710 OFFCURVE",
"811 698 OFFCURVE",
"805 671 CURVE SMOOTH",
"701 106 LINE SMOOTH",
"695 77 OFFCURVE",
"689 61 OFFCURVE",
"668 61 CURVE SMOOTH",
"649 61 OFFCURVE",
"640 76 OFFCURVE",
"636 105 CURVE SMOOTH",
"560 614 LINE SMOOTH",
"550 679 OFFCURVE",
"517 710 OFFCURVE",
"468 710 CURVE SMOOTH",
"419 710 OFFCURVE",
"385 679 OFFCURVE",
"376 614 CURVE SMOOTH",
"300 105 LINE SMOOTH",
"295 76 OFFCURVE",
"287 61 OFFCURVE",
"267 61 CURVE SMOOTH",
"247 61 OFFCURVE",
"240 77 OFFCURVE",
"235 106 CURVE SMOOTH",
"130 671 LINE SMOOTH",
"125 698 OFFCURVE",
"112 710 OFFCURVE",
"84 710 CURVE SMOOTH",
"52 710 OFFCURVE",
"41 692 OFFCURVE",
"47 662 CURVE SMOOTH",
"154 110 LINE SMOOTH",
"171 21 OFFCURVE",
"211 -10 OFFCURVE",
"266 -10 CURVE SMOOTH"
);
}
);
width = 935;
}
);
leftKerningGroup = W;
note = W;
rightKerningGroup = W;
unicode = 0057;
},
{
glyphname = X;
lastChange = "2018-03-10 08:40:14 +0000";
layers = (
{
anchors = (
{
name = bottom;
position = "{346, 0}";
},
{
name = top;
position = "{346, 700}";
}
);
layerId = "0B1DFD06-3317-40CA-B510-4969A0718C16";
paths = (
{
closed = 1;
nodes = (
"84 -12 OFFCURVE",
"98 -6 OFFCURVE",
"104 9 CURVE",
"216 234 LINE SMOOTH",
"258 313 OFFCURVE",
"299 333 OFFCURVE",
"347 333 CURVE SMOOTH",
"393 333 OFFCURVE",
"435 313 OFFCURVE",
"476 234 CURVE SMOOTH",
"589 9 LINE",
"594 -6 OFFCURVE",
"607 -12 OFFCURVE",
"623 -4 CURVE",
"634 3 OFFCURVE",
"640 20 OFFCURVE",
"634 33 CURVE",
"520 260 LINE",
"490 313 OFFCURVE",
"459 341 OFFCURVE",
"429 358 CURVE",
"459 377 OFFCURVE",
"491 407 OFFCURVE",
"520 454 CURVE",
"634 660 LINE",
"641 674 OFFCURVE",
"636 692 OFFCURVE",
"623 699 CURVE",
"609 705 OFFCURVE",
"594 699 OFFCURVE",
"589 686 CURVE",
"476 476 LINE SMOOTH",
"432 393 OFFCURVE",
"393 385 OFFCURVE",
"347 385 CURVE SMOOTH",
"299 385 OFFCURVE",
"261 393 OFFCURVE",
"216 476 CURVE SMOOTH",
"104 686 LINE",
"98 699 OFFCURVE",
"84 705 OFFCURVE",
"70 699 CURVE",
"57 692 OFFCURVE",
"51 674 OFFCURVE",
"59 660 CURVE",
"172 456 LINE SMOOTH",
"200 406 OFFCURVE",
"233 377 OFFCURVE",
"263 358 CURVE",
"216 331 OFFCURVE",
"205 309 OFFCURVE",
"176 263 CURVE",
"59 33 LINE",
"53 20 OFFCURVE",
"59 3 OFFCURVE",
"70 -4 CURVE"
);
}
);
width = 692;
},
{
anchors = (
{
name = bottom;
position = "{360, 0}";
},
{
name = top;
position = "{360, 700}";
}
);
layerId = "258BB4CE-589F-454F-8E39-237B943AA0B4";
paths = (
{
closed = 1;
nodes = (
"111 -20 OFFCURVE",
"143 -12 OFFCURVE",
"162 17 CURVE SMOOTH",
"265 221 LINE SMOOTH",
"293 274 OFFCURVE",
"319 305 OFFCURVE",
"361 305 CURVE SMOOTH",
"400 305 OFFCURVE",
"426 280 OFFCURVE",
"456 222 CURVE SMOOTH",
"560 17 LINE SMOOTH",
"576 -14 OFFCURVE",
"611 -20 OFFCURVE",
"644 -4 CURVE",
"675 14 OFFCURVE",
"689 42 OFFCURVE",
"675 68 CURVE SMOOTH",
"569 272 LINE SMOOTH",
"549 310 OFFCURVE",
"524 342 OFFCURVE",
"481 359 CURVE",
"530 383 OFFCURVE",
"553 410 OFFCURVE",
"571 442 CURVE SMOOTH",
"674 622 LINE SMOOTH",
"691 652 OFFCURVE",
"680 679 OFFCURVE",
"649 698 CURVE SMOOTH",
"616 718 OFFCURVE",
"580 714 OFFCURVE",
"561 680 CURVE SMOOTH",
"457 489 LINE SMOOTH",
"431 441 OFFCURVE",
"405 413 OFFCURVE",
"361 413 CURVE SMOOTH",
"317 413 OFFCURVE",
"291 441 OFFCURVE",
"265 489 CURVE SMOOTH",
"161 680 LINE SMOOTH",
"142 714 OFFCURVE",
"106 718 OFFCURVE",
"73 698 CURVE SMOOTH",
"42 679 OFFCURVE",
"31 652 OFFCURVE",
"48 622 CURVE SMOOTH",
"151 442 LINE SMOOTH",
"169 410 OFFCURVE",
"192 383 OFFCURVE",
"241 359 CURVE",
"198 342 OFFCURVE",
"173 310 OFFCURVE",
"153 272 CURVE SMOOTH",
"47 68 LINE SMOOTH",
"35 41 OFFCURVE",
"47 14 OFFCURVE",
"78 -4 CURVE"
);
}
);
width = 722;
},
{
anchors = (
{
name = bottom;
position = "{348, 0}";
},
{
name = top;
position = "{348, 700}";
}
);
layerId = "8ED59CAD-D047-43C0-8308-3370007B39AA";
paths = (
{
closed = 1;
nodes = (
"91 -15 OFFCURVE",
"112 -8 OFFCURVE",
"123 12 CURVE SMOOTH",
"232 229 LINE SMOOTH",
"268 297 OFFCURVE",
"303 322 OFFCURVE",
"349 322 CURVE SMOOTH",
"392 322 OFFCURVE",
"427 300 OFFCURVE",
"464 229 CURVE SMOOTH",
"573 12 LINE SMOOTH",
"583 -9 OFFCURVE",
"605 -15 OFFCURVE",
"627 -4 CURVE SMOOTH",
"646 7 OFFCURVE",
"656 29 OFFCURVE",
"646 47 CURVE SMOOTH",
"536 265 LINE SMOOTH",
"510 312 OFFCURVE",
"481 341 OFFCURVE",
"446 358 CURVE",
"483 379 OFFCURVE",
"512 408 OFFCURVE",
"536 449 CURVE SMOOTH",
"646 645 LINE SMOOTH",
"657 665 OFFCURVE",
"650 687 OFFCURVE",
"629 699 CURVE SMOOTH",
"608 710 OFFCURVE",
"584 705 OFFCURVE",
"574 684 CURVE SMOOTH",
"464 481 LINE SMOOTH",
"428 412 OFFCURVE",
"394 396 OFFCURVE",
"349 396 CURVE SMOOTH",
"302 396 OFFCURVE",
"269 412 OFFCURVE",
"232 481 CURVE SMOOTH",
"123 684 LINE SMOOTH",
"112 705 OFFCURVE",
"89 710 OFFCURVE",
"67 699 CURVE SMOOTH",
"47 687 OFFCURVE",
"39 665 OFFCURVE",
"51 645 CURVE SMOOTH",
"160 450 LINE SMOOTH",
"184 408 OFFCURVE",
"213 379 OFFCURVE",
"250 358 CURVE",
"205 335 OFFCURVE",
"188 309 OFFCURVE",
"163 267 CURVE SMOOTH",
"50 47 LINE SMOOTH",
"42 28 OFFCURVE",
"50 7 OFFCURVE",
"69 -4 CURVE"
);
}
);
width = 696;
}
);
note = X;
unicode = 0058;
},
{
glyphname = Y;
lastChange = "2018-03-10 08:40:14 +0000";
layers = (
{
anchors = (
{
name = bottom;
position = "{336, 0}";
},
{
name = top;
position = "{336, 700}";
},
{
name = topleft;
position = "{25, 700}";
}
);
layerId = "0B1DFD06-3317-40CA-B510-4969A0718C16";
paths = (
{
closed = 1;
nodes = (
"497 230 OFFCURVE",
"617 362 OFFCURVE",
"617 545 CURVE SMOOTH",
"617 678 LINE SMOOTH",
"617 698 OFFCURVE",
"609 710 OFFCURVE",
"591 710 CURVE SMOOTH",
"573 710 OFFCURVE",
"564 698 OFFCURVE",
"564 678 CURVE SMOOTH",
"564 542 LINE SMOOTH",
"564 379 OFFCURVE",
"476 279 OFFCURVE",
"336 279 CURVE SMOOTH",
"191 279 OFFCURVE",
"108 379 OFFCURVE",
"108 542 CURVE SMOOTH",
"108 678 LINE SMOOTH",
"108 698 OFFCURVE",
"99 710 OFFCURVE",
"81 710 CURVE SMOOTH",
"63 710 OFFCURVE",
"55 698 OFFCURVE",
"55 678 CURVE SMOOTH",
"55 545 LINE SMOOTH",
"55 362 OFFCURVE",
"160 230 OFFCURVE",
"336 230 CURVE SMOOTH"
);
},
{
closed = 1;
nodes = (
"354 -10 OFFCURVE",
"363 2 OFFCURVE",
"363 22 CURVE SMOOTH",
"363 241 LINE",
"310 241 LINE",
"310 241 LINE",
"310 22 LINE SMOOTH",
"310 2 OFFCURVE",
"318 -10 OFFCURVE",
"336 -10 CURVE SMOOTH"
);
}
);
width = 672;
},
{
anchors = (
{
name = bottom;
position = "{361, 0}";
},
{
name = top;
position = "{361, 690}";
},
{
name = topleft;
position = "{50, 700}";
}
);
layerId = "258BB4CE-589F-454F-8E39-237B943AA0B4";
paths = (
{
closed = 1;
nodes = (
"560 222 OFFCURVE",
"682 342 OFFCURVE",
"682 545 CURVE SMOOTH",
"682 650 LINE SMOOTH",
"682 688 OFFCURVE",
"655 710 OFFCURVE",
"616 710 CURVE SMOOTH",
"578 710 OFFCURVE",
"549 688 OFFCURVE",
"549 650 CURVE SMOOTH",
"549 542 LINE SMOOTH",
"549 397 OFFCURVE",
"476 327 OFFCURVE",
"361 327 CURVE SMOOTH",
"246 327 OFFCURVE",
"173 397 OFFCURVE",
"173 542 CURVE SMOOTH",
"173 650 LINE SMOOTH",
"173 688 OFFCURVE",
"144 710 OFFCURVE",
"106 710 CURVE SMOOTH",
"67 710 OFFCURVE",
"40 688 OFFCURVE",
"40 650 CURVE SMOOTH",
"40 545 LINE SMOOTH",
"40 342 OFFCURVE",
"162 222 OFFCURVE",
"361 222 CURVE SMOOTH"
);
},
{
closed = 1;
nodes = (
"399 -10 OFFCURVE",
"428 12 OFFCURVE",
"428 50 CURVE SMOOTH",
"428 289 LINE",
"335 289 LINE",
"295 289 LINE",
"295 50 LINE SMOOTH",
"295 12 OFFCURVE",
"322 -10 OFFCURVE",
"361 -10 CURVE SMOOTH"
);
}
);
width = 722;
},
{
anchors = (
{
name = bottom;
position = "{342, 0}";
},
{
name = top;
position = "{342, 696}";
},
{
name = topleft;
position = "{31, 700}";
}
);
layerId = "8ED59CAD-D047-43C0-8308-3370007B39AA";
paths = (
{
closed = 1;
nodes = (
"518 227 OFFCURVE",
"639 354 OFFCURVE",
"639 545 CURVE SMOOTH",
"639 667 LINE SMOOTH",
"639 694 OFFCURVE",
"623 710 OFFCURVE",
"597 710 CURVE SMOOTH",
"571 710 OFFCURVE",
"554 694 OFFCURVE",
"554 667 CURVE SMOOTH",
"554 542 LINE SMOOTH",
"554 386 OFFCURVE",
"472 298 OFFCURVE",
"342 298 CURVE SMOOTH",
"209 298 OFFCURVE",
"130 386 OFFCURVE",
"130 542 CURVE SMOOTH",
"130 667 LINE SMOOTH",
"130 694 OFFCURVE",
"113 710 OFFCURVE",
"87 710 CURVE SMOOTH",
"61 710 OFFCURVE",
"45 694 OFFCURVE",
"45 667 CURVE SMOOTH",
"45 545 LINE SMOOTH",
"45 354 OFFCURVE",
"157 227 OFFCURVE",
"342 227 CURVE SMOOTH"
);
},
{
closed = 1;
nodes = (
"368 -10 OFFCURVE",
"385 6 OFFCURVE",
"385 33 CURVE SMOOTH",
"385 260 LINE",
"316 260 LINE",
"300 260 LINE",
"300 33 LINE SMOOTH",
"300 6 OFFCURVE",
"316 -10 OFFCURVE",
"342 -10 CURVE SMOOTH"
);
}
);
width = 684;
}
);
leftKerningGroup = Y;
note = Y;
rightKerningGroup = Y;
unicode = 0059;
},
{
glyphname = Z;
lastChange = "2018-03-10 08:40:14 +0000";
layers = (
{
anchors = (
{
name = bottom;
position = "{345, 0}";
},
{
name = top;
position = "{345, 700}";
}
);
layerId = "0B1DFD06-3317-40CA-B510-4969A0718C16";
paths = (
{
closed = 1;
nodes = (
"605 0 LINE SMOOTH",
"624 0 OFFCURVE",
"635 6 OFFCURVE",
"635 24 CURVE SMOOTH",
"635 39 OFFCURVE",
"625 47 OFFCURVE",
"605 47 CURVE SMOOTH",
"153 47 LINE SMOOTH",
"118 47 OFFCURVE",
"108 61 OFFCURVE",
"108 85 CURVE SMOOTH",
"108 116 OFFCURVE",
"118 133 OFFCURVE",
"147 157 CURVE SMOOTH",
"568 509 LINE SMOOTH",
"610 544 OFFCURVE",
"627 566 OFFCURVE",
"627 615 CURVE SMOOTH",
"627 677 OFFCURVE",
"587 700 OFFCURVE",
"529 700 CURVE SMOOTH",
"104 700 LINE SMOOTH",
"85 700 OFFCURVE",
"74 694 OFFCURVE",
"74 676 CURVE SMOOTH",
"74 661 OFFCURVE",
"84 653 OFFCURVE",
"104 653 CURVE SMOOTH",
"529 653 LINE SMOOTH",
"564 653 OFFCURVE",
"574 639 OFFCURVE",
"574 615 CURVE SMOOTH",
"574 584 OFFCURVE",
"564 567 OFFCURVE",
"535 543 CURVE SMOOTH",
"114 192 LINE SMOOTH",
"72 157 OFFCURVE",
"55 134 OFFCURVE",
"55 85 CURVE SMOOTH",
"55 23 OFFCURVE",
"95 0 OFFCURVE",
"153 0 CURVE SMOOTH"
);
}
);
width = 690;
},
{
anchors = (
{
name = bottom;
position = "{370, 0}";
},
{
name = top;
position = "{370, 690}";
}
);
layerId = "258BB4CE-589F-454F-8E39-237B943AA0B4";
paths = (
{
closed = 1;
nodes = (
"602 0 LINE SMOOTH",
"640 0 OFFCURVE",
"672 17 OFFCURVE",
"672 52 CURVE SMOOTH",
"672 86 OFFCURVE",
"638 103 OFFCURVE",
"602 103 CURVE SMOOTH",
"221 103 LINE SMOOTH",
"187 103 OFFCURVE",
"173 111 OFFCURVE",
"173 124 CURVE SMOOTH",
"173 141 OFFCURVE",
"182 151 OFFCURVE",
"198 163 CURVE SMOOTH",
"591 460 LINE SMOOTH",
"650 504 OFFCURVE",
"664 534 OFFCURVE",
"664 587 CURVE SMOOTH",
"664 659 OFFCURVE",
"612 700 OFFCURVE",
"526 700 CURVE SMOOTH",
"129 700 LINE SMOOTH",
"91 700 OFFCURVE",
"59 683 OFFCURVE",
"59 648 CURVE SMOOTH",
"59 614 OFFCURVE",
"93 597 OFFCURVE",
"129 597 CURVE SMOOTH",
"495 597 LINE SMOOTH",
"523 597 OFFCURVE",
"531 586 OFFCURVE",
"531 574 CURVE SMOOTH",
"531 558 OFFCURVE",
"522 549 OFFCURVE",
"506 537 CURVE SMOOTH",
"113 240 LINE SMOOTH",
"53 195 OFFCURVE",
"40 160 OFFCURVE",
"40 113 CURVE SMOOTH",
"40 46 OFFCURVE",
"92 0 OFFCURVE",
"178 0 CURVE SMOOTH"
);
}
);
width = 712;
},
{
anchors = (
{
name = bottom;
position = "{351, 0}";
},
{
name = top;
position = "{351, 696}";
}
);
layerId = "8ED59CAD-D047-43C0-8308-3370007B39AA";
paths = (
{
closed = 1;
nodes = (
"600 0 LINE SMOOTH",
"626 0 OFFCURVE",
"646 10 OFFCURVE",
"646 35 CURVE SMOOTH",
"646 58 OFFCURVE",
"626 69 OFFCURVE",
"600 69 CURVE SMOOTH",
"176 69 LINE SMOOTH",
"142 69 OFFCURVE",
"130 81 OFFCURVE",
"130 101 CURVE SMOOTH",
"130 126 OFFCURVE",
"140 140 OFFCURVE",
"163 159 CURVE SMOOTH",
"573 489 LINE SMOOTH",
"622 528 OFFCURVE",
"638 553 OFFCURVE",
"638 604 CURVE SMOOTH",
"638 670 OFFCURVE",
"593 700 OFFCURVE",
"524 700 CURVE SMOOTH",
"110 700 LINE SMOOTH",
"83 700 OFFCURVE",
"64 690 OFFCURVE",
"64 665 CURVE SMOOTH",
"64 642 OFFCURVE",
"84 631 OFFCURVE",
"110 631 CURVE SMOOTH",
"511 631 LINE SMOOTH",
"544 631 OFFCURVE",
"553 618 OFFCURVE",
"553 599 CURVE SMOOTH",
"553 574 OFFCURVE",
"543 560 OFFCURVE",
"519 541 CURVE SMOOTH",
"110 211 LINE SMOOTH",
"60 172 OFFCURVE",
"45 144 OFFCURVE",
"45 96 CURVE SMOOTH",
"45 32 OFFCURVE",
"90 0 OFFCURVE",
"159 0 CURVE SMOOTH"
);
}
);
width = 691;
}
);
leftKerningGroup = Z;
note = Z;
rightKerningGroup = Z;
unicode = 005A;
},
{
glyphname = a;
lastChange = "2018-03-10 08:40:14 +0000";
layers = (
{
anchors = (
{
name = bottom;
position = "{301, 0}";
},
{
name = ogonek;
position = "{556, 10}";
},
{
name = top;
position = "{301, 470}";
}
);
layerId = "0B1DFD06-3317-40CA-B510-4969A0718C16";
paths = (
{
closed = 1;
nodes = (
"347 -10 OFFCURVE",
"416 14 OFFCURVE",
"461 67 CURVE",
"461 22 LINE SMOOTH",
"461 2 OFFCURVE",
"469 -10 OFFCURVE",
"486 -10 CURVE SMOOTH",
"504 -10 OFFCURVE",
"511 2 OFFCURVE",
"511 22 CURVE SMOOTH",
"511 323 LINE SMOOTH",
"511 424 OFFCURVE",
"448 500 OFFCURVE",
"295 500 CURVE SMOOTH",
"201 500 OFFCURVE",
"127 468 OFFCURVE",
"88 438 CURVE SMOOTH",
"79 431 OFFCURVE",
"78 410 OFFCURVE",
"90 402 CURVE SMOOTH",
"102 394 OFFCURVE",
"111 397 OFFCURVE",
"124 405 CURVE SMOOTH",
"171 434 OFFCURVE",
"226 452 OFFCURVE",
"297 452 CURVE SMOOTH",
"431 452 OFFCURVE",
"460 389 OFFCURVE",
"460 327 CURVE SMOOTH",
"460 262 LINE",
"429 300 OFFCURVE",
"362 328 OFFCURVE",
"272 328 CURVE SMOOTH",
"128 328 OFFCURVE",
"55 254 OFFCURVE",
"55 158 CURVE SMOOTH",
"55 70 OFFCURVE",
"115 -10 OFFCURVE",
"267 -10 CURVE SMOOTH"
);
},
{
closed = 1;
nodes = (
"167 38 OFFCURVE",
"107 78 OFFCURVE",
"107 158 CURVE SMOOTH",
"107 227 OFFCURVE",
"156 280 OFFCURVE",
"269 280 CURVE SMOOTH",
"393 280 OFFCURVE",
"461 235 OFFCURVE",
"461 165 CURVE SMOOTH",
"461 81 OFFCURVE",
"369 38 OFFCURVE",
"267 38 CURVE SMOOTH"
);
}
);
width = 591;
},
{
anchors = (
{
name = bottom;
position = "{319, 0}";
},
{
name = ogonek;
position = "{532, 10}";
},
{
name = top;
position = "{319, 470}";
}
);
layerId = "258BB4CE-589F-454F-8E39-237B943AA0B4";
paths = (
{
closed = 1;
nodes = (
"337 -10 OFFCURVE",
"394 13 OFFCURVE",
"427 55 CURVE",
"427 44 LINE SMOOTH",
"427 9 OFFCURVE",
"453 -10 OFFCURVE",
"492 -10 CURVE SMOOTH",
"531 -10 OFFCURVE",
"557 10 OFFCURVE",
"557 46 CURVE SMOOTH",
"557 303 LINE SMOOTH",
"557 427 OFFCURVE",
"458 500 OFFCURVE",
"304 500 CURVE SMOOTH",
"225 500 OFFCURVE",
"141 478 OFFCURVE",
"90 437 CURVE SMOOTH",
"61 414 OFFCURVE",
"56 387 OFFCURVE",
"77 363 CURVE SMOOTH",
"98 338 OFFCURVE",
"131 337 OFFCURVE",
"164 360 CURVE",
"203 384 OFFCURVE",
"247 397 OFFCURVE",
"306 397 CURVE SMOOTH",
"376 397 OFFCURVE",
"422 363 OFFCURVE",
"422 303 CURVE SMOOTH",
"422 288 LINE",
"385 314 OFFCURVE",
"333 327 OFFCURVE",
"272 327 CURVE SMOOTH",
"142 327 OFFCURVE",
"40 269 OFFCURVE",
"40 160 CURVE SMOOTH",
"40 53 OFFCURVE",
"131 -10 OFFCURVE",
"252 -10 CURVE SMOOTH"
);
},
{
closed = 1;
nodes = (
"221 82 OFFCURVE",
"170 107 OFFCURVE",
"170 160 CURVE SMOOTH",
"170 212 OFFCURVE",
"222 237 OFFCURVE",
"287 237 CURVE SMOOTH",
"362 237 OFFCURVE",
"423 212 OFFCURVE",
"423 160 CURVE SMOOTH",
"423 107 OFFCURVE",
"372 82 OFFCURVE",
"285 82 CURVE SMOOTH"
);
}
);
width = 602;
},
{
anchors = (
{
name = bottom;
position = "{304, 0}";
},
{
name = ogonek;
position = "{542, 10}";
},
{
name = top;
position = "{304, 470}";
}
);
layerId = "8ED59CAD-D047-43C0-8308-3370007B39AA";
paths = (
{
closed = 1;
nodes = (
"339 -10 OFFCURVE",
"403 14 OFFCURVE",
"443 62 CURVE",
"443 31 LINE SMOOTH",
"443 5 OFFCURVE",
"459 -10 OFFCURVE",
"484 -10 CURVE SMOOTH",
"511 -10 OFFCURVE",
"525 5 OFFCURVE",
"525 32 CURVE SMOOTH",
"525 315 LINE SMOOTH",
"525 425 OFFCURVE",
"448 500 OFFCURVE",
"295 500 CURVE SMOOTH",
"207 500 OFFCURVE",
"129 472 OFFCURVE",
"85 438 CURVE SMOOTH",
"68 424 OFFCURVE",
"65 401 OFFCURVE",
"81 386 CURVE SMOOTH",
"96 372 OFFCURVE",
"115 373 OFFCURVE",
"136 387 CURVE SMOOTH",
"180 414 OFFCURVE",
"230 430 OFFCURVE",
"297 430 CURVE SMOOTH",
"405 430 OFFCURVE",
"441 379 OFFCURVE",
"441 317 CURVE SMOOTH",
"441 272 LINE",
"407 306 OFFCURVE",
"346 328 OFFCURVE",
"268 328 CURVE SMOOTH",
"130 328 OFFCURVE",
"45 260 OFFCURVE",
"45 159 CURVE SMOOTH",
"45 63 OFFCURVE",
"117 -10 OFFCURVE",
"257 -10 CURVE SMOOTH"
);
},
{
closed = 1;
nodes = (
"185 56 OFFCURVE",
"128 90 OFFCURVE",
"128 159 CURVE SMOOTH",
"128 221 OFFCURVE",
"178 263 OFFCURVE",
"272 263 CURVE SMOOTH",
"377 263 OFFCURVE",
"442 226 OFFCURVE",
"442 163 CURVE SMOOTH",
"442 91 OFFCURVE",
"366 56 OFFCURVE",
"270 56 CURVE SMOOTH"
);
}
);
width = 590;
}
);
leftKerningGroup = a;
note = a;
rightKerningGroup = a;
unicode = 0061;
},
{
glyphname = b;
lastChange = "2018-03-10 08:40:14 +0000";
layers = (
{
anchors = (
{
name = bottom;
position = "{342, 0}";
},
{
name = top;
position = "{342, 750}";
}
);
layerId = "0B1DFD06-3317-40CA-B510-4969A0718C16";
paths = (
{
closed = 1;
nodes = (
"128 -10 OFFCURVE",
"136 2 OFFCURVE",
"136 22 CURVE SMOOTH",
"136 103 LINE",
"184 28 OFFCURVE",
"264 -10 OFFCURVE",
"362 -10 CURVE SMOOTH",
"541 -10 OFFCURVE",
"629 90 OFFCURVE",
"629 245 CURVE SMOOTH",
"629 388 OFFCURVE",
"539 500 OFFCURVE",
"362 500 CURVE SMOOTH",
"254 500 OFFCURVE",
"186 452 OFFCURVE",
"137 389 CURVE",
"136 727 LINE",
"136 747 OFFCURVE",
"128 759 OFFCURVE",
"110 759 CURVE SMOOTH",
"92 759 OFFCURVE",
"85 747 OFFCURVE",
"85 727 CURVE SMOOTH",
"85 22 LINE SMOOTH",
"85 2 OFFCURVE",
"92 -10 OFFCURVE",
"110 -10 CURVE SMOOTH"
);
},
{
closed = 1;
nodes = (
"220 38 OFFCURVE",
"136 118 OFFCURVE",
"136 245 CURVE SMOOTH",
"136 379 OFFCURVE",
"249 452 OFFCURVE",
"362 452 CURVE SMOOTH",
"503 452 OFFCURVE",
"577 368 OFFCURVE",
"577 245 CURVE SMOOTH",
"577 105 OFFCURVE",
"507 38 OFFCURVE",
"362 38 CURVE SMOOTH"
);
}
);
width = 684;
},
{
anchors = (
{
name = bottom;
position = "{347, 0}";
},
{
name = top;
position = "{347, 750}";
}
);
layerId = "258BB4CE-589F-454F-8E39-237B943AA0B4";
paths = (
{
closed = 1;
nodes = (
"154 -10 OFFCURVE",
"181 12 OFFCURVE",
"181 50 CURVE SMOOTH",
"181 70 LINE",
"228 23 OFFCURVE",
"277 -10 OFFCURVE",
"367 -10 CURVE SMOOTH",
"535 -10 OFFCURVE",
"634 85 OFFCURVE",
"634 245 CURVE SMOOTH",
"634 405 OFFCURVE",
"536 500 OFFCURVE",
"370 500 CURVE SMOOTH",
"295 500 OFFCURVE",
"228 471 OFFCURVE",
"182 422 CURVE",
"181 699 LINE SMOOTH",
"181 737 OFFCURVE",
"154 759 OFFCURVE",
"115 759 CURVE SMOOTH",
"76 759 OFFCURVE",
"50 738 OFFCURVE",
"50 699 CURVE SMOOTH",
"50 50 LINE SMOOTH",
"50 11 OFFCURVE",
"76 -10 OFFCURVE",
"115 -10 CURVE SMOOTH"
);
},
{
closed = 1;
nodes = (
"243 94 OFFCURVE",
"181 150 OFFCURVE",
"181 245 CURVE SMOOTH",
"181 340 OFFCURVE",
"243 396 OFFCURVE",
"347 396 CURVE SMOOTH",
"444 396 OFFCURVE",
"502 340 OFFCURVE",
"502 245 CURVE SMOOTH",
"502 150 OFFCURVE",
"444 94 OFFCURVE",
"347 94 CURVE SMOOTH"
);
}
);
width = 674;
},
{
anchors = (
{
name = bottom;
position = "{343, 0}";
},
{
name = top;
position = "{343, 750}";
}
);
layerId = "8ED59CAD-D047-43C0-8308-3370007B39AA";
paths = (
{
closed = 1;
nodes = (
"137 -10 OFFCURVE",
"153 6 OFFCURVE",
"153 33 CURVE SMOOTH",
"153 90 LINE",
"201 26 OFFCURVE",
"268 -10 OFFCURVE",
"363 -10 CURVE SMOOTH",
"538 -10 OFFCURVE",
"630 88 OFFCURVE",
"630 245 CURVE SMOOTH",
"630 395 OFFCURVE",
"537 500 OFFCURVE",
"364 500 CURVE SMOOTH",
"269 500 OFFCURVE",
"202 460 OFFCURVE",
"154 402 CURVE",
"153 716 LINE",
"153 743 OFFCURVE",
"137 759 OFFCURVE",
"111 759 CURVE SMOOTH",
"85 759 OFFCURVE",
"70 743 OFFCURVE",
"70 716 CURVE SMOOTH",
"70 33 LINE SMOOTH",
"70 6 OFFCURVE",
"85 -10 OFFCURVE",
"111 -10 CURVE SMOOTH"
);
},
{
closed = 1;
nodes = (
"228 60 OFFCURVE",
"153 131 OFFCURVE",
"153 245 CURVE SMOOTH",
"153 363 OFFCURVE",
"246 430 OFFCURVE",
"355 430 CURVE SMOOTH",
"478 430 OFFCURVE",
"546 357 OFFCURVE",
"546 245 CURVE SMOOTH",
"546 123 OFFCURVE",
"481 60 OFFCURVE",
"355 60 CURVE SMOOTH"
);
}
);
width = 675;
}
);
leftKerningGroup = b;
note = b;
rightKerningGroup = b;
unicode = 0062;
},
{
glyphname = c;
lastChange = "2018-03-10 08:40:14 +0000";
layers = (
{
anchors = (
{
name = bottom;
position = "{299, 0}";
},
{
name = top;
position = "{299, 470}";
}
);
layerId = "0B1DFD06-3317-40CA-B510-4969A0718C16";
paths = (
{
closed = 1;
nodes = (
"415 -10 OFFCURVE",
"481 21 OFFCURVE",
"534 70 CURVE SMOOTH",
"545 80 OFFCURVE",
"545 95 OFFCURVE",
"533 105 CURVE",
"522 117 OFFCURVE",
"506 111 OFFCURVE",
"496 100 CURVE SMOOTH",
"459 60 OFFCURVE",
"401 38 OFFCURVE",
"319 38 CURVE SMOOTH",
"171 38 OFFCURVE",
"107 128 OFFCURVE",
"107 246 CURVE SMOOTH",
"107 371 OFFCURVE",
"175 452 OFFCURVE",
"319 452 CURVE SMOOTH",
"405 452 OFFCURVE",
"459 431 OFFCURVE",
"496 390 CURVE SMOOTH",
"506 379 OFFCURVE",
"523 374 OFFCURVE",
"533 384 CURVE",
"545 394 OFFCURVE",
"546 408 OFFCURVE",
"536 420 CURVE SMOOTH",
"490 475 OFFCURVE",
"417 500 OFFCURVE",
"319 500 CURVE SMOOTH",
"129 500 OFFCURVE",
"55 365 OFFCURVE",
"55 246 CURVE SMOOTH",
"55 99 OFFCURVE",
"156 -10 OFFCURVE",
"319 -10 CURVE SMOOTH"
);
}
);
width = 598;
},
{
anchors = (
{
name = bottom;
position = "{331, 0}";
},
{
name = top;
position = "{331, 470}";
}
);
layerId = "258BB4CE-589F-454F-8E39-237B943AA0B4";
paths = (
{
closed = 1;
nodes = (
"434 -10 OFFCURVE",
"503 25 OFFCURVE",
"568 85 CURVE",
"589 112 OFFCURVE",
"585 142 OFFCURVE",
"558 164 CURVE SMOOTH",
"533 184 OFFCURVE",
"501 179 OFFCURVE",
"468 147 CURVE SMOOTH",
"434 114 OFFCURVE",
"379 94 OFFCURVE",
"327 94 CURVE SMOOTH",
"231 94 OFFCURVE",
"172 150 OFFCURVE",
"172 246 CURVE SMOOTH",
"172 340 OFFCURVE",
"231 396 OFFCURVE",
"327 396 CURVE SMOOTH",
"375 396 OFFCURVE",
"424 378 OFFCURVE",
"451 348 CURVE SMOOTH",
"472 325 OFFCURVE",
"511 314 OFFCURVE",
"536 332 CURVE SMOOTH",
"564 352 OFFCURVE",
"572 381 OFFCURVE",
"551 410 CURVE SMOOTH",
"510 467 OFFCURVE",
"424 500 OFFCURVE",
"327 500 CURVE SMOOTH",
"148 500 OFFCURVE",
"40 406 OFFCURVE",
"40 246 CURVE SMOOTH",
"40 85 OFFCURVE",
"148 -10 OFFCURVE",
"327 -10 CURVE SMOOTH"
);
}
);
width = 621;
},
{
anchors = (
{
name = bottom;
position = "{308, 0}";
},
{
name = top;
position = "{308, 470}";
}
);
layerId = "8ED59CAD-D047-43C0-8308-3370007B39AA";
paths = (
{
closed = 1;
nodes = (
"419 -10 OFFCURVE",
"486 23 OFFCURVE",
"544 76 CURVE SMOOTH",
"559 93 OFFCURVE",
"557 114 OFFCURVE",
"539 129 CURVE",
"522 144 OFFCURVE",
"500 138 OFFCURVE",
"481 119 CURVE SMOOTH",
"445 82 OFFCURVE",
"388 60 OFFCURVE",
"318 60 CURVE SMOOTH",
"191 60 OFFCURVE",
"129 137 OFFCURVE",
"129 246 CURVE SMOOTH",
"129 359 OFFCURVE",
"193 430 OFFCURVE",
"318 430 CURVE SMOOTH",
"389 430 OFFCURVE",
"441 410 OFFCURVE",
"474 373 CURVE SMOOTH",
"488 357 OFFCURVE",
"514 350 OFFCURVE",
"530 363 CURVE",
"549 377 OFFCURVE",
"552 397 OFFCURVE",
"538 416 CURVE SMOOTH",
"494 472 OFFCURVE",
"416 500 OFFCURVE",
"318 500 CURVE SMOOTH",
"133 500 OFFCURVE",
"45 381 OFFCURVE",
"45 246 CURVE SMOOTH",
"45 93 OFFCURVE",
"149 -10 OFFCURVE",
"318 -10 CURVE SMOOTH"
);
}
);
width = 599;
}
);
leftKerningGroup = c;
note = c;
rightKerningGroup = c;
unicode = 0063;
},
{
glyphname = d;
lastChange = "2018-03-10 08:40:14 +0000";
layers = (
{
anchors = (
{
name = bottom;
position = "{342, 0}";
},
{
name = center;
position = "{342, 235}";
},
{
name = top;
position = "{342, 750}";
},
{
name = topright;
position = "{659, 470}";
}
);
layerId = "0B1DFD06-3317-40CA-B510-4969A0718C16";
paths = (
{
closed = 1;
nodes = (
"420 -10 OFFCURVE",
"500 28 OFFCURVE",
"548 103 CURVE",
"548 22 LINE SMOOTH",
"548 2 OFFCURVE",
"556 -10 OFFCURVE",
"574 -10 CURVE SMOOTH",
"592 -10 OFFCURVE",
"599 2 OFFCURVE",
"599 22 CURVE SMOOTH",
"599 727 LINE SMOOTH",
"599 747 OFFCURVE",
"592 759 OFFCURVE",
"574 759 CURVE SMOOTH",
"556 759 OFFCURVE",
"548 747 OFFCURVE",
"548 727 CURVE",
"547 389 LINE",
"498 452 OFFCURVE",
"432 500 OFFCURVE",
"324 500 CURVE SMOOTH",
"147 500 OFFCURVE",
"55 384 OFFCURVE",
"55 241 CURVE SMOOTH",
"55 86 OFFCURVE",
"153 -10 OFFCURVE",
"322 -10 CURVE SMOOTH"
);
},
{
closed = 1;
nodes = (
"187 38 OFFCURVE",
"107 101 OFFCURVE",
"107 241 CURVE SMOOTH",
"107 364 OFFCURVE",
"183 452 OFFCURVE",
"324 452 CURVE SMOOTH",
"437 452 OFFCURVE",
"548 379 OFFCURVE",
"548 245 CURVE SMOOTH",
"548 118 OFFCURVE",
"464 38 OFFCURVE",
"322 38 CURVE SMOOTH"
);
}
);
width = 684;
},
{
anchors = (
{
name = bottom;
position = "{317, 0}";
},
{
name = center;
position = "{317, 235}";
},
{
name = top;
position = "{317, 750}";
},
{
name = topright;
position = "{634, 470}";
}
);
layerId = "258BB4CE-589F-454F-8E39-237B943AA0B4";
paths = (
{
closed = 1;
nodes = (
"393 -10 OFFCURVE",
"451 20 OFFCURVE",
"493 70 CURVE",
"493 50 LINE SMOOTH",
"493 12 OFFCURVE",
"520 -10 OFFCURVE",
"559 -10 CURVE SMOOTH",
"598 -10 OFFCURVE",
"624 11 OFFCURVE",
"624 50 CURVE SMOOTH",
"624 699 LINE SMOOTH",
"624 738 OFFCURVE",
"598 759 OFFCURVE",
"559 759 CURVE SMOOTH",
"520 759 OFFCURVE",
"493 737 OFFCURVE",
"493 699 CURVE SMOOTH",
"492 422 LINE",
"446 471 OFFCURVE",
"395 500 OFFCURVE",
"310 500 CURVE SMOOTH",
"143 500 OFFCURVE",
"40 402 OFFCURVE",
"40 245 CURVE SMOOTH",
"40 85 OFFCURVE",
"151 -10 OFFCURVE",
"307 -10 CURVE SMOOTH"
);
},
{
closed = 1;
nodes = (
"230 94 OFFCURVE",
"172 150 OFFCURVE",
"172 245 CURVE SMOOTH",
"172 340 OFFCURVE",
"230 396 OFFCURVE",
"327 396 CURVE SMOOTH",
"431 396 OFFCURVE",
"493 340 OFFCURVE",
"493 245 CURVE SMOOTH",
"493 150 OFFCURVE",
"431 94 OFFCURVE",
"327 94 CURVE SMOOTH"
);
}
);
width = 674;
},
{
anchors = (
{
name = bottom;
position = "{328, 0}";
},
{
name = center;
position = "{328, 235}";
},
{
name = top;
position = "{328, 750}";
},
{
name = topright;
position = "{645, 470}";
}
);
layerId = "8ED59CAD-D047-43C0-8308-3370007B39AA";
paths = (
{
closed = 1;
nodes = (
"405 -10 OFFCURVE",
"476 25 OFFCURVE",
"522 90 CURVE",
"522 33 LINE SMOOTH",
"522 6 OFFCURVE",
"538 -10 OFFCURVE",
"564 -10 CURVE SMOOTH",
"590 -10 OFFCURVE",
"605 6 OFFCURVE",
"605 33 CURVE SMOOTH",
"605 716 LINE SMOOTH",
"605 743 OFFCURVE",
"590 759 OFFCURVE",
"564 759 CURVE SMOOTH",
"538 759 OFFCURVE",
"522 743 OFFCURVE",
"522 716 CURVE",
"521 402 LINE",
"473 460 OFFCURVE",
"413 500 OFFCURVE",
"314 500 CURVE SMOOTH",
"141 500 OFFCURVE",
"45 391 OFFCURVE",
"45 243 CURVE SMOOTH",
"45 86 OFFCURVE",
"148 -10 OFFCURVE",
"312 -10 CURVE SMOOTH"
);
},
{
closed = 1;
nodes = (
"200 60 OFFCURVE",
"129 121 OFFCURVE",
"129 243 CURVE SMOOTH",
"129 354 OFFCURVE",
"198 430 OFFCURVE",
"321 430 CURVE SMOOTH",
"431 430 OFFCURVE",
"522 363 OFFCURVE",
"522 245 CURVE SMOOTH",
"522 131 OFFCURVE",
"447 60 OFFCURVE",
"320 60 CURVE SMOOTH"
);
}
);
width = 675;
}
);
leftKerningGroup = d;
note = d;
rightKerningGroup = d;
unicode = 0064;
},
{
glyphname = e;
lastChange = "2018-03-10 08:40:14 +0000";
layers = (
{
anchors = (
{
name = bottom;
position = "{322, 0}";
},
{
name = ogonek;
position = "{350, 10}";
},
{
name = top;
position = "{322, 470}";
}
);
layerId = "0B1DFD06-3317-40CA-B510-4969A0718C16";
paths = (
{
closed = 1;
nodes = (
"419 -9 OFFCURVE",
"499 20 OFFCURVE",
"553 79 CURVE SMOOTH",
"564 91 OFFCURVE",
"562 104 OFFCURVE",
"549 114 CURVE SMOOTH",
"537 123 OFFCURVE",
"527 118 OFFCURVE",
"513 105 CURVE SMOOTH",
"469 65 OFFCURVE",
"419 39 OFFCURVE",
"324 39 CURVE SMOOTH",
"195 39 OFFCURVE",
"109 102 OFFCURVE",
"109 223 CURVE",
"511 223 LINE SMOOTH",
"558 223 OFFCURVE",
"588 250 OFFCURVE",
"588 304 CURVE SMOOTH",
"588 396 OFFCURVE",
"513 500 OFFCURVE",
"324 500 CURVE SMOOTH",
"170 500 OFFCURVE",
"55 413 OFFCURVE",
"55 250 CURVE SMOOTH",
"55 70 OFFCURVE",
"165 -9 OFFCURVE",
"324 -9 CURVE SMOOTH"
);
},
{
closed = 1;
nodes = (
"111 363 OFFCURVE",
"179 452 OFFCURVE",
"324 452 CURVE SMOOTH",
"447 452 OFFCURVE",
"536 390 OFFCURVE",
"536 305 CURVE SMOOTH",
"536 275 OFFCURVE",
"523 268 OFFCURVE",
"497 268 CURVE SMOOTH",
"111 268 LINE"
);
}
);
width = 643;
},
{
anchors = (
{
name = bottom;
position = "{318, 0}";
},
{
name = ogonek;
position = "{370, 10}";
},
{
name = top;
position = "{318, 470}";
}
);
layerId = "258BB4CE-589F-454F-8E39-237B943AA0B4";
paths = (
{
closed = 1;
nodes = (
"416 -9 OFFCURVE",
"495 16 OFFCURVE",
"553 61 CURVE SMOOTH",
"579 81 OFFCURVE",
"579 113 OFFCURVE",
"556 137 CURVE SMOOTH",
"533 160 OFFCURVE",
"511 159 OFFCURVE",
"472 133 CURVE SMOOTH",
"436 109 OFFCURVE",
"393 93 OFFCURVE",
"330 93 CURVE SMOOTH",
"234 93 OFFCURVE",
"168 135 OFFCURVE",
"168 203 CURVE",
"480 203 LINE SMOOTH",
"552 203 OFFCURVE",
"597 237 OFFCURVE",
"597 304 CURVE SMOOTH",
"597 417 OFFCURVE",
"490 500 OFFCURVE",
"320 500 CURVE SMOOTH",
"140 500 OFFCURVE",
"40 398 OFFCURVE",
"40 241 CURVE SMOOTH",
"40 87 OFFCURVE",
"149 -9 OFFCURVE",
"330 -9 CURVE SMOOTH"
);
},
{
closed = 1;
nodes = (
"170 359 OFFCURVE",
"231 398 OFFCURVE",
"320 398 CURVE SMOOTH",
"417 398 OFFCURVE",
"469 369 OFFCURVE",
"469 324 CURVE SMOOTH",
"469 304 OFFCURVE",
"460 296 OFFCURVE",
"438 296 CURVE SMOOTH",
"170 296 LINE"
);
}
);
width = 637;
},
{
anchors = (
{
name = bottom;
position = "{316, 0}";
},
{
name = ogonek;
position = "{354, 10}";
},
{
name = top;
position = "{316, 470}";
}
);
layerId = "8ED59CAD-D047-43C0-8308-3370007B39AA";
paths = (
{
closed = 1;
nodes = (
"414 -9 OFFCURVE",
"493 18 OFFCURVE",
"549 72 CURVE SMOOTH",
"566 87 OFFCURVE",
"565 108 OFFCURVE",
"548 123 CURVE SMOOTH",
"531 138 OFFCURVE",
"517 134 OFFCURVE",
"493 116 CURVE SMOOTH",
"452 83 OFFCURVE",
"405 61 OFFCURVE",
"322 61 CURVE SMOOTH",
"207 61 OFFCURVE",
"129 115 OFFCURVE",
"129 215 CURVE",
"495 215 LINE SMOOTH",
"552 215 OFFCURVE",
"588 245 OFFCURVE",
"588 304 CURVE SMOOTH",
"588 404 OFFCURVE",
"500 500 OFFCURVE",
"318 500 CURVE SMOOTH",
"154 500 OFFCURVE",
"45 407 OFFCURVE",
"45 246 CURVE SMOOTH",
"45 77 OFFCURVE",
"155 -9 OFFCURVE",
"322 -9 CURVE SMOOTH"
);
},
{
closed = 1;
nodes = (
"131 361 OFFCURVE",
"196 430 OFFCURVE",
"318 430 CURVE SMOOTH",
"431 430 OFFCURVE",
"505 382 OFFCURVE",
"505 313 CURVE SMOOTH",
"505 287 OFFCURVE",
"494 279 OFFCURVE",
"469 279 CURVE SMOOTH",
"131 279 LINE"
);
}
);
width = 633;
}
);
leftKerningGroup = c;
note = e;
rightKerningGroup = c;
unicode = 0065;
},
{
glyphname = f;
lastChange = "2018-03-10 08:40:14 +0000";
layers = (
{
anchors = (
{
name = bottom;
position = "{212, 0}";
},
{
name = top;
position = "{212, 750}";
}
);
layerId = "0B1DFD06-3317-40CA-B510-4969A0718C16";
paths = (
{
closed = 1;
nodes = (
"167 -10 OFFCURVE",
"174 2 OFFCURVE",
"174 22 CURVE SMOOTH",
"174 603 LINE SMOOTH",
"174 671 OFFCURVE",
"208 691 OFFCURVE",
"254 691 CURVE SMOOTH",
"300 691 OFFCURVE",
"322 676 OFFCURVE",
"342 657 CURVE SMOOTH",
"355 644 OFFCURVE",
"367 639 OFFCURVE",
"380 650 CURVE SMOOTH",
"392 660 OFFCURVE",
"392 672 OFFCURVE",
"382 684 CURVE SMOOTH",
"358 711 OFFCURVE",
"314 739 OFFCURVE",
"254 739 CURVE SMOOTH",
"188 739 OFFCURVE",
"123 699 OFFCURVE",
"123 599 CURVE SMOOTH",
"123 22 LINE SMOOTH",
"123 2 OFFCURVE",
"131 -10 OFFCURVE",
"149 -10 CURVE SMOOTH"
);
},
{
closed = 1;
nodes = (
"325 455 LINE SMOOTH",
"345 455 OFFCURVE",
"355 462 OFFCURVE",
"355 477 CURVE SMOOTH",
"355 495 OFFCURVE",
"344 500 OFFCURVE",
"325 500 CURVE SMOOTH",
"65 500 LINE SMOOTH",
"46 500 OFFCURVE",
"35 495 OFFCURVE",
"35 477 CURVE SMOOTH",
"35 462 OFFCURVE",
"45 455 OFFCURVE",
"65 455 CURVE SMOOTH"
);
}
);
width = 424;
},
{
anchors = (
{
name = bottom;
position = "{247, 0}";
},
{
name = top;
position = "{247, 750}";
}
);
layerId = "258BB4CE-589F-454F-8E39-237B943AA0B4";
paths = (
{
closed = 1;
nodes = (
"223 -10 OFFCURVE",
"249 11 OFFCURVE",
"249 50 CURVE SMOOTH",
"249 570 LINE SMOOTH",
"249 617 OFFCURVE",
"269 630 OFFCURVE",
"298 630 CURVE SMOOTH",
"318 630 OFFCURVE",
"335 625 OFFCURVE",
"352 609 CURVE SMOOTH",
"375 588 OFFCURVE",
"412 575 OFFCURVE",
"437 593 CURVE SMOOTH",
"465 613 OFFCURVE",
"474 642 OFFCURVE",
"452 671 CURVE SMOOTH",
"421 711 OFFCURVE",
"351 734 OFFCURVE",
"289 734 CURVE SMOOTH",
"187 734 OFFCURVE",
"118 668 OFFCURVE",
"118 566 CURVE SMOOTH",
"118 50 LINE SMOOTH",
"118 12 OFFCURVE",
"145 -10 OFFCURVE",
"184 -10 CURVE SMOOTH"
);
},
{
closed = 1;
nodes = (
"364 387 LINE SMOOTH",
"401 387 OFFCURVE",
"430 404 OFFCURVE",
"430 438 CURVE SMOOTH",
"430 473 OFFCURVE",
"402 490 OFFCURVE",
"364 490 CURVE SMOOTH",
"96 490 LINE SMOOTH",
"58 490 OFFCURVE",
"30 473 OFFCURVE",
"30 438 CURVE SMOOTH",
"30 404 OFFCURVE",
"59 387 OFFCURVE",
"96 387 CURVE SMOOTH"
);
}
);
width = 494;
},
{
anchors = (
{
name = bottom;
position = "{228, 0}";
},
{
name = top;
position = "{228, 750}";
}
);
layerId = "8ED59CAD-D047-43C0-8308-3370007B39AA";
paths = (
{
closed = 1;
nodes = (
"191 -10 OFFCURVE",
"206 6 OFFCURVE",
"206 33 CURVE SMOOTH",
"206 590 LINE SMOOTH",
"206 649 OFFCURVE",
"234 667 OFFCURVE",
"274 667 CURVE SMOOTH",
"309 667 OFFCURVE",
"329 656 OFFCURVE",
"348 638 CURVE SMOOTH",
"365 622 OFFCURVE",
"387 613 OFFCURVE",
"405 627 CURVE SMOOTH",
"423 641 OFFCURVE",
"427 660 OFFCURVE",
"412 679 CURVE SMOOTH",
"385 711 OFFCURVE",
"331 737 OFFCURVE",
"270 737 CURVE SMOOTH",
"190 737 OFFCURVE",
"123 687 OFFCURVE",
"123 586 CURVE SMOOTH",
"123 33 LINE SMOOTH",
"123 6 OFFCURVE",
"139 -10 OFFCURVE",
"165 -10 CURVE SMOOTH"
);
},
{
closed = 1;
nodes = (
"343 428 LINE SMOOTH",
"369 428 OFFCURVE",
"387 439 OFFCURVE",
"387 461 CURVE SMOOTH",
"387 486 OFFCURVE",
"369 496 OFFCURVE",
"343 496 CURVE SMOOTH",
"79 496 LINE SMOOTH",
"53 496 OFFCURVE",
"35 486 OFFCURVE",
"35 461 CURVE SMOOTH",
"35 439 OFFCURVE",
"53 428 OFFCURVE",
"79 428 CURVE SMOOTH"
);
}
);
width = 456;
}
);
note = f;
unicode = 0066;
},
{
glyphname = g;
lastChange = "2018-03-10 08:40:14 +0000";
layers = (
{
anchors = (
{
name = bottom;
position = "{342, -250}";
},
{
name = top;
position = "{342, 470}";
}
);
layerId = "0B1DFD06-3317-40CA-B510-4969A0718C16";
paths = (
{
closed = 1;
nodes = (
"491 -251 OFFCURVE",
"599 -171 OFFCURVE",
"599 -21 CURVE SMOOTH",
"599 474 LINE SMOOTH",
"599 490 OFFCURVE",
"589 503 OFFCURVE",
"574 503 CURVE SMOOTH",
"560 503 OFFCURVE",
"548 490 OFFCURVE",
"548 474 CURVE SMOOTH",
"548 386 LINE",
"499 458 OFFCURVE",
"426 500 OFFCURVE",
"328 500 CURVE SMOOTH",
"140 500 OFFCURVE",
"55 378 OFFCURVE",
"55 231 CURVE SMOOTH",
"55 87 OFFCURVE",
"144 -16 OFFCURVE",
"321 -16 CURVE SMOOTH",
"427 -16 OFFCURVE",
"506 37 OFFCURVE",
"548 95 CURVE",
"548 -21 LINE SMOOTH",
"548 -143 OFFCURVE",
"472 -206 OFFCURVE",
"331 -206 CURVE SMOOTH",
"248 -206 OFFCURVE",
"193 -180 OFFCURVE",
"163 -144 CURVE SMOOTH",
"153 -132 OFFCURVE",
"140 -130 OFFCURVE",
"128 -138 CURVE SMOOTH",
"116 -146 OFFCURVE",
"113 -160 OFFCURVE",
"122 -171 CURVE SMOOTH",
"170 -226 OFFCURVE",
"251 -251 OFFCURVE",
"338 -251 CURVE SMOOTH"
);
},
{
closed = 1;
nodes = (
"175 32 OFFCURVE",
"107 113 OFFCURVE",
"107 231 CURVE SMOOTH",
"107 373 OFFCURVE",
"185 452 OFFCURVE",
"328 452 CURVE SMOOTH",
"470 452 OFFCURVE",
"546 357 OFFCURVE",
"546 241 CURVE SMOOTH",
"546 93 OFFCURVE",
"423 32 OFFCURVE",
"321 32 CURVE SMOOTH"
);
}
);
width = 684;
},
{
anchors = (
{
name = bottom;
position = "{346, -250}";
},
{
name = top;
position = "{346, 470}";
}
);
layerId = "258BB4CE-589F-454F-8E39-237B943AA0B4";
paths = (
{
closed = 1;
nodes = (
"517 -250 OFFCURVE",
"624 -132 OFFCURVE",
"624 28 CURVE SMOOTH",
"624 440 LINE SMOOTH",
"624 479 OFFCURVE",
"598 500 OFFCURVE",
"559 500 CURVE SMOOTH",
"520 500 OFFCURVE",
"493 478 OFFCURVE",
"493 440 CURVE SMOOTH",
"493 420 LINE",
"443 470 OFFCURVE",
"377 500 OFFCURVE",
"307 500 CURVE SMOOTH",
"139 500 OFFCURVE",
"40 405 OFFCURVE",
"40 245 CURVE SMOOTH",
"40 85 OFFCURVE",
"137 -10 OFFCURVE",
"301 -10 CURVE SMOOTH",
"390 -10 OFFCURVE",
"447 15 OFFCURVE",
"492 68 CURVE",
"493 28 LINE SMOOTH",
"496 -83 OFFCURVE",
"435 -149 OFFCURVE",
"331 -149 CURVE SMOOTH",
"276 -149 OFFCURVE",
"224 -132 OFFCURVE",
"192 -102 CURVE SMOOTH",
"158 -70 OFFCURVE",
"127 -65 OFFCURVE",
"102 -85 CURVE SMOOTH",
"75 -107 OFFCURVE",
"69 -139 OFFCURVE",
"92 -164 CURVE SMOOTH",
"142 -218 OFFCURVE",
"234 -250 OFFCURVE",
"338 -250 CURVE SMOOTH"
);
},
{
closed = 1;
nodes = (
"230 94 OFFCURVE",
"172 150 OFFCURVE",
"172 245 CURVE SMOOTH",
"172 340 OFFCURVE",
"230 396 OFFCURVE",
"327 396 CURVE SMOOTH",
"431 396 OFFCURVE",
"493 340 OFFCURVE",
"493 245 CURVE SMOOTH",
"493 150 OFFCURVE",
"431 94 OFFCURVE",
"327 94 CURVE SMOOTH"
);
}
);
width = 674;
},
{
anchors = (
{
name = bottom;
position = "{340, -250}";
},
{
name = top;
position = "{340, 470}";
}
);
layerId = "8ED59CAD-D047-43C0-8308-3370007B39AA";
paths = (
{
closed = 1;
nodes = (
"497 -251 OFFCURVE",
"605 -155 OFFCURVE",
"605 -1 CURVE SMOOTH",
"605 460 LINE SMOOTH",
"605 486 OFFCURVE",
"589 502 OFFCURVE",
"564 502 CURVE SMOOTH",
"540 502 OFFCURVE",
"522 485 OFFCURVE",
"522 460 CURVE SMOOTH",
"522 400 LINE",
"473 463 OFFCURVE",
"402 500 OFFCURVE",
"316 500 CURVE SMOOTH",
"136 500 OFFCURVE",
"45 389 OFFCURVE",
"45 237 CURVE SMOOTH",
"45 86 OFFCURVE",
"137 -14 OFFCURVE",
"309 -14 CURVE SMOOTH",
"408 -14 OFFCURVE",
"478 28 OFFCURVE",
"522 84 CURVE",
"522 -1 LINE SMOOTH",
"523 -119 OFFCURVE",
"453 -183 OFFCURVE",
"327 -183 CURVE SMOOTH",
"255 -183 OFFCURVE",
"201 -161 OFFCURVE",
"171 -127 CURVE SMOOTH",
"151 -107 OFFCURVE",
"131 -104 OFFCURVE",
"114 -117 CURVE SMOOTH",
"96 -130 OFFCURVE",
"91 -152 OFFCURVE",
"106 -168 CURVE SMOOTH",
"155 -223 OFFCURVE",
"240 -251 OFFCURVE",
"334 -251 CURVE SMOOTH"
);
},
{
closed = 1;
nodes = (
"193 57 OFFCURVE",
"129 128 OFFCURVE",
"129 237 CURVE SMOOTH",
"129 360 OFFCURVE",
"199 430 OFFCURVE",
"324 430 CURVE SMOOTH",
"450 430 OFFCURVE",
"521 350 OFFCURVE",
"521 243 CURVE SMOOTH",
"521 116 OFFCURVE",
"422 57 OFFCURVE",
"319 57 CURVE SMOOTH"
);
}
);
width = 670;
}
);
leftKerningGroup = d;
note = g;
rightKerningGroup = d;
unicode = 0067;
},
{
glyphname = h;
lastChange = "2018-03-10 08:40:14 +0000";
layers = (
{
anchors = (
{
name = bottom;
position = "{310, 0}";
},
{
name = center;
position = "{310, 375}";
},
{
name = top;
position = "{310, 750}";
}
);
layerId = "0B1DFD06-3317-40CA-B510-4969A0718C16";
paths = (
{
closed = 1;
nodes = (
"128 -10 OFFCURVE",
"136 2 OFFCURVE",
"136 22 CURVE SMOOTH",
"136 255 LINE SMOOTH",
"136 383 OFFCURVE",
"230 452 OFFCURVE",
"344 452 CURVE SMOOTH",
"450 452 OFFCURVE",
"488 398 OFFCURVE",
"488 303 CURVE SMOOTH",
"488 22 LINE SMOOTH",
"488 2 OFFCURVE",
"495 -10 OFFCURVE",
"513 -10 CURVE SMOOTH",
"531 -10 OFFCURVE",
"539 2 OFFCURVE",
"539 22 CURVE SMOOTH",
"539 303 LINE SMOOTH",
"539 420 OFFCURVE",
"484 500 OFFCURVE",
"344 500 CURVE SMOOTH",
"246 500 OFFCURVE",
"178 453 OFFCURVE",
"136 397 CURVE",
"136 727 LINE SMOOTH",
"136 747 OFFCURVE",
"128 759 OFFCURVE",
"110 759 CURVE SMOOTH",
"92 759 OFFCURVE",
"85 747 OFFCURVE",
"85 727 CURVE SMOOTH",
"85 22 LINE SMOOTH",
"85 2 OFFCURVE",
"92 -10 OFFCURVE",
"110 -10 CURVE SMOOTH"
);
}
);
width = 619;
},
{
anchors = (
{
name = bottom;
position = "{323, 0}";
},
{
name = center;
position = "{323, 375}";
},
{
name = top;
position = "{240, 750}";
}
);
layerId = "258BB4CE-589F-454F-8E39-237B943AA0B4";
paths = (
{
closed = 1;
nodes = (
"154 -10 OFFCURVE",
"181 12 OFFCURVE",
"181 50 CURVE SMOOTH",
"181 227 LINE SMOOTH",
"181 333 OFFCURVE",
"240 396 OFFCURVE",
"341 396 CURVE SMOOTH",
"408 396 OFFCURVE",
"447 350 OFFCURVE",
"447 275 CURVE SMOOTH",
"447 50 LINE SMOOTH",
"447 11 OFFCURVE",
"473 -10 OFFCURVE",
"512 -10 CURVE SMOOTH",
"551 -10 OFFCURVE",
"578 12 OFFCURVE",
"578 50 CURVE SMOOTH",
"578 275 LINE SMOOTH",
"578 412 OFFCURVE",
"501 500 OFFCURVE",
"371 500 CURVE SMOOTH",
"285 500 OFFCURVE",
"227 468 OFFCURVE",
"181 411 CURVE",
"181 699 LINE SMOOTH",
"181 737 OFFCURVE",
"154 759 OFFCURVE",
"115 759 CURVE SMOOTH",
"76 759 OFFCURVE",
"50 738 OFFCURVE",
"50 699 CURVE SMOOTH",
"50 50 LINE SMOOTH",
"50 11 OFFCURVE",
"76 -10 OFFCURVE",
"115 -10 CURVE SMOOTH"
);
}
);
width = 623;
},
{
anchors = (
{
name = bottom;
position = "{314, 0}";
},
{
name = center;
position = "{314, 375}";
},
{
name = top;
position = "{281, 750}";
}
);
layerId = "8ED59CAD-D047-43C0-8308-3370007B39AA";
paths = (
{
closed = 1;
nodes = (
"137 -10 OFFCURVE",
"153 6 OFFCURVE",
"153 33 CURVE SMOOTH",
"153 244 LINE SMOOTH",
"153 363 OFFCURVE",
"233 430 OFFCURVE",
"342 430 CURVE SMOOTH",
"432 430 OFFCURVE",
"471 379 OFFCURVE",
"471 292 CURVE SMOOTH",
"471 33 LINE SMOOTH",
"471 6 OFFCURVE",
"485 -10 OFFCURVE",
"512 -10 CURVE SMOOTH",
"538 -10 OFFCURVE",
"554 6 OFFCURVE",
"554 33 CURVE SMOOTH",
"554 292 LINE SMOOTH",
"554 417 OFFCURVE",
"490 500 OFFCURVE",
"354 500 CURVE SMOOTH",
"261 500 OFFCURVE",
"197 459 OFFCURVE",
"153 403 CURVE",
"153 716 LINE SMOOTH",
"153 743 OFFCURVE",
"137 759 OFFCURVE",
"111 759 CURVE SMOOTH",
"85 759 OFFCURVE",
"70 743 OFFCURVE",
"70 716 CURVE SMOOTH",
"70 33 LINE SMOOTH",
"70 6 OFFCURVE",
"85 -10 OFFCURVE",
"111 -10 CURVE SMOOTH"
);
}
);
width = 619;
}
);
leftKerningGroup = n;
note = h;
rightKerningGroup = n;
unicode = 0068;
},
{
glyphname = i;
lastChange = "2018-03-10 08:40:14 +0000";
layers = (
{
anchors = (
{
name = bottom;
position = "{128, 0}";
}
);
layerId = "0B1DFD06-3317-40CA-B510-4969A0718C16";
paths = (
{
closed = 1;
nodes = (
"145 -10 OFFCURVE",
"153 2 OFFCURVE",
"153 22 CURVE SMOOTH",
"153 468 LINE SMOOTH",
"153 488 OFFCURVE",
"145 500 OFFCURVE",
"127 500 CURVE SMOOTH",
"109 500 OFFCURVE",
"102 488 OFFCURVE",
"102 468 CURVE SMOOTH",
"102 22 LINE SMOOTH",
"102 2 OFFCURVE",
"109 -10 OFFCURVE",
"127 -10 CURVE SMOOTH"
);
},
{
closed = 1;
nodes = (
"149 586 OFFCURVE",
"171 607 OFFCURVE",
"171 628 CURVE SMOOTH",
"171 649 OFFCURVE",
"149 670 OFFCURVE",
"127 670 CURVE SMOOTH",
"104 670 OFFCURVE",
"85 649 OFFCURVE",
"85 628 CURVE SMOOTH",
"85 607 OFFCURVE",
"104 586 OFFCURVE",
"127 586 CURVE SMOOTH"
);
}
);
width = 256;
},
{
anchors = (
{
name = bottom;
position = "{133, 0}";
}
);
layerId = "258BB4CE-589F-454F-8E39-237B943AA0B4";
paths = (
{
closed = 1;
nodes = (
"172 -10 OFFCURVE",
"199 12 OFFCURVE",
"199 50 CURVE SMOOTH",
"199 440 LINE SMOOTH",
"199 478 OFFCURVE",
"172 500 OFFCURVE",
"133 500 CURVE SMOOTH",
"94 500 OFFCURVE",
"68 479 OFFCURVE",
"68 440 CURVE SMOOTH",
"68 50 LINE SMOOTH",
"68 11 OFFCURVE",
"94 -10 OFFCURVE",
"133 -10 CURVE"
);
},
{
closed = 1;
nodes = (
"182 550 OFFCURVE",
"216 580 OFFCURVE",
"216 624 CURVE SMOOTH",
"216 668 OFFCURVE",
"182 698 OFFCURVE",
"132 698 CURVE SMOOTH",
"83 698 OFFCURVE",
"50 668 OFFCURVE",
"50 624 CURVE SMOOTH",
"50 580 OFFCURVE",
"83 550 OFFCURVE",
"132 550 CURVE SMOOTH"
);
}
);
width = 266;
},
{
anchors = (
{
name = bottom;
position = "{129, 0}";
}
);
layerId = "8ED59CAD-D047-43C0-8308-3370007B39AA";
paths = (
{
closed = 1;
nodes = (
"155 -10 OFFCURVE",
"170 6 OFFCURVE",
"170 33 CURVE SMOOTH",
"170 457 LINE SMOOTH",
"170 484 OFFCURVE",
"155 500 OFFCURVE",
"128 500 CURVE SMOOTH",
"102 500 OFFCURVE",
"87 484 OFFCURVE",
"87 457 CURVE SMOOTH",
"87 33 LINE SMOOTH",
"87 6 OFFCURVE",
"102 -10 OFFCURVE",
"128 -10 CURVE SMOOTH"
);
},
{
closed = 1;
nodes = (
"161 572 OFFCURVE",
"188 596 OFFCURVE",
"188 626 CURVE SMOOTH",
"188 657 OFFCURVE",
"161 681 OFFCURVE",
"128 681 CURVE SMOOTH",
"95 681 OFFCURVE",
"70 657 OFFCURVE",
"70 626 CURVE SMOOTH",
"70 596 OFFCURVE",
"95 572 OFFCURVE",
"128 572 CURVE SMOOTH"
);
}
);
width = 258;
}
);
note = i;
unicode = 0069;
},
{
glyphname = j;
lastChange = "2018-03-10 08:40:14 +0000";
layers = (
{
layerId = "0B1DFD06-3317-40CA-B510-4969A0718C16";
paths = (
{
closed = 1;
nodes = (
"190 -292 OFFCURVE",
"222 -226 OFFCURVE",
"222 -124 CURVE SMOOTH",
"223 468 LINE SMOOTH",
"223 488 OFFCURVE",
"215 500 OFFCURVE",
"197 500 CURVE SMOOTH",
"179 500 OFFCURVE",
"172 488 OFFCURVE",
"172 468 CURVE SMOOTH",
"171 -124 LINE SMOOTH",
"171 -216 OFFCURVE",
"148 -243 OFFCURVE",
"61 -243 CURVE SMOOTH",
"46 -243 OFFCURVE",
"35 -252 OFFCURVE",
"35 -267 CURVE SMOOTH",
"35 -282 OFFCURVE",
"46 -292 OFFCURVE",
"61 -292 CURVE SMOOTH"
);
},
{
closed = 1;
nodes = (
"219 586 OFFCURVE",
"241 607 OFFCURVE",
"241 628 CURVE SMOOTH",
"241 649 OFFCURVE",
"219 670 OFFCURVE",
"197 670 CURVE SMOOTH",
"174 670 OFFCURVE",
"155 649 OFFCURVE",
"155 628 CURVE SMOOTH",
"155 607 OFFCURVE",
"174 586 OFFCURVE",
"197 586 CURVE SMOOTH"
);
}
);
width = 326;
},
{
layerId = "258BB4CE-589F-454F-8E39-237B943AA0B4";
paths = (
{
closed = 1;
nodes = (
"218 -292 OFFCURVE",
"287 -229 OFFCURVE",
"287 -96 CURVE SMOOTH",
"287 440 LINE SMOOTH",
"287 478 OFFCURVE",
"260 500 OFFCURVE",
"221 500 CURVE SMOOTH",
"182 500 OFFCURVE",
"156 479 OFFCURVE",
"156 440 CURVE SMOOTH",
"156 -96 LINE SMOOTH",
"156 -177 OFFCURVE",
"140 -187 OFFCURVE",
"80 -187 CURVE SMOOTH",
"46 -187 OFFCURVE",
"20 -207 OFFCURVE",
"20 -239 CURVE SMOOTH",
"20 -271 OFFCURVE",
"46 -292 OFFCURVE",
"80 -292 CURVE SMOOTH"
);
},
{
closed = 1;
nodes = (
"270 550 OFFCURVE",
"304 580 OFFCURVE",
"304 624 CURVE SMOOTH",
"304 668 OFFCURVE",
"270 698 OFFCURVE",
"220 698 CURVE SMOOTH",
"171 698 OFFCURVE",
"138 668 OFFCURVE",
"138 624 CURVE SMOOTH",
"138 580 OFFCURVE",
"171 550 OFFCURVE",
"220 550 CURVE SMOOTH"
);
}
);
width = 354;
},
{
layerId = "8ED59CAD-D047-43C0-8308-3370007B39AA";
paths = (
{
closed = 1;
nodes = (
"207 -292 OFFCURVE",
"254 -227 OFFCURVE",
"254 -113 CURVE SMOOTH",
"255 457 LINE SMOOTH",
"255 484 OFFCURVE",
"239 500 OFFCURVE",
"213 500 CURVE SMOOTH",
"186 500 OFFCURVE",
"172 484 OFFCURVE",
"172 457 CURVE SMOOTH",
"171 -113 LINE SMOOTH",
"171 -200 OFFCURVE",
"151 -221 OFFCURVE",
"75 -221 CURVE SMOOTH",
"52 -221 OFFCURVE",
"35 -234 OFFCURVE",
"35 -256 CURVE SMOOTH",
"35 -278 OFFCURVE",
"52 -292 OFFCURVE",
"75 -292 CURVE SMOOTH"
);
},
{
closed = 1;
nodes = (
"245 572 OFFCURVE",
"272 596 OFFCURVE",
"272 626 CURVE SMOOTH",
"272 657 OFFCURVE",
"245 681 OFFCURVE",
"212 681 CURVE SMOOTH",
"179 681 OFFCURVE",
"154 657 OFFCURVE",
"154 626 CURVE SMOOTH",
"154 596 OFFCURVE",
"179 572 OFFCURVE",
"212 572 CURVE SMOOTH"
);
}
);
width = 342;
}
);
note = j;
unicode = 006A;
},
{
glyphname = k;
lastChange = "2018-03-10 08:40:14 +0000";
layers = (
{
anchors = (
{
name = bottom;
position = "{308, 0}";
},
{
name = top;
position = "{308, 750}";
}
);
layerId = "0B1DFD06-3317-40CA-B510-4969A0718C16";
paths = (
{
closed = 1;
nodes = (
"128 -10 OFFCURVE",
"136 2 OFFCURVE",
"136 22 CURVE SMOOTH",
"136 248 LINE",
"278 317 LINE",
"400 240 OFFCURVE",
"468 150 OFFCURVE",
"498 11 CURVE SMOOTH",
"501 -3 OFFCURVE",
"509 -10 OFFCURVE",
"526 -10 CURVE SMOOTH",
"544 -10 OFFCURVE",
"551 5 OFFCURVE",
"548 21 CURVE SMOOTH",
"521 166 OFFCURVE",
"430 273 OFFCURVE",
"326 341 CURVE",
"551 454 LINE SMOOTH",
"564 460 OFFCURVE",
"565 478 OFFCURVE",
"558 489 CURVE SMOOTH",
"552 498 OFFCURVE",
"540 504 OFFCURVE",
"526 497 CURVE SMOOTH",
"136 305 LINE",
"136 727 LINE SMOOTH",
"136 747 OFFCURVE",
"128 759 OFFCURVE",
"110 759 CURVE SMOOTH",
"92 759 OFFCURVE",
"85 747 OFFCURVE",
"85 727 CURVE SMOOTH",
"85 22 LINE SMOOTH",
"85 2 OFFCURVE",
"92 -10 OFFCURVE",
"110 -10 CURVE SMOOTH"
);
}
);
width = 617;
},
{
anchors = (
{
name = bottom;
position = "{314, 0}";
},
{
name = top;
position = "{314, 750}";
}
);
layerId = "258BB4CE-589F-454F-8E39-237B943AA0B4";
paths = (
{
closed = 1;
nodes = (
"154 -10 OFFCURVE",
"181 12 OFFCURVE",
"181 50 CURVE SMOOTH",
"181 201 LINE",
"280 257 LINE",
"364 199 OFFCURVE",
"405 149 OFFCURVE",
"442 33 CURVE SMOOTH",
"451 5 OFFCURVE",
"476 -10 OFFCURVE",
"509 -10 CURVE SMOOTH",
"549 -10 OFFCURVE",
"574 15 OFFCURVE",
"566 54 CURVE SMOOTH",
"542 167 OFFCURVE",
"480 237 OFFCURVE",
"379 310 CURVE",
"534 396 LINE SMOOTH",
"564 413 OFFCURVE",
"573 437 OFFCURVE",
"555 473 CURVE SMOOTH",
"541 501 OFFCURVE",
"510 510 OFFCURVE",
"473 489 CURVE SMOOTH",
"181 326 LINE",
"181 699 LINE SMOOTH",
"181 737 OFFCURVE",
"154 759 OFFCURVE",
"115 759 CURVE SMOOTH",
"76 759 OFFCURVE",
"50 738 OFFCURVE",
"50 699 CURVE SMOOTH",
"50 50 LINE SMOOTH",
"50 11 OFFCURVE",
"76 -10 OFFCURVE",
"115 -10 CURVE SMOOTH"
);
}
);
width = 607;
},
{
anchors = (
{
name = bottom;
position = "{309, 0}";
},
{
name = top;
position = "{309, 750}";
}
);
layerId = "8ED59CAD-D047-43C0-8308-3370007B39AA";
paths = (
{
closed = 1;
nodes = (
"137 -10 OFFCURVE",
"153 6 OFFCURVE",
"153 33 CURVE SMOOTH",
"153 229 LINE",
"278 293 LINE",
"385 224 OFFCURVE",
"442 150 OFFCURVE",
"475 20 CURVE SMOOTH",
"480 0 OFFCURVE",
"495 -10 OFFCURVE",
"518 -10 CURVE SMOOTH",
"545 -10 OFFCURVE",
"559 9 OFFCURVE",
"554 34 CURVE SMOOTH",
"528 166 OFFCURVE",
"449 259 OFFCURVE",
"346 329 CURVE",
"543 431 LINE SMOOTH",
"563 441 OFFCURVE",
"567 462 OFFCURVE",
"556 483 CURVE SMOOTH",
"547 499 OFFCURVE",
"527 506 OFFCURVE",
"504 494 CURVE SMOOTH",
"153 313 LINE",
"153 716 LINE SMOOTH",
"153 743 OFFCURVE",
"137 759 OFFCURVE",
"111 759 CURVE SMOOTH",
"85 759 OFFCURVE",
"70 743 OFFCURVE",
"70 716 CURVE SMOOTH",
"70 33 LINE SMOOTH",
"70 6 OFFCURVE",
"85 -10 OFFCURVE",
"111 -10 CURVE SMOOTH"
);
}
);
width = 607;
}
);
note = k;
unicode = 006B;
},
{
glyphname = l;
lastChange = "2018-03-10 08:40:14 +0000";
layers = (
{
anchors = (
{
name = bottom;
position = "{111, 0}";
},
{
name = center;
position = "{111, 375}";
},
{
name = top;
position = "{111, 750}";
},
{
name = topright;
position = "{196, 750}";
}
);
layerId = "0B1DFD06-3317-40CA-B510-4969A0718C16";
paths = (
{
closed = 1;
nodes = (
"128 -10 OFFCURVE",
"136 2 OFFCURVE",
"136 22 CURVE SMOOTH",
"136 727 LINE SMOOTH",
"136 747 OFFCURVE",
"128 759 OFFCURVE",
"110 759 CURVE SMOOTH",
"92 759 OFFCURVE",
"85 747 OFFCURVE",
"85 727 CURVE SMOOTH",
"85 22 LINE SMOOTH",
"85 2 OFFCURVE",
"92 -10 OFFCURVE",
"110 -10 CURVE SMOOTH"
);
}
);
width = 221;
},
{
anchors = (
{
name = bottom;
position = "{116, 0}";
},
{
name = center;
position = "{116, 375}";
},
{
name = top;
position = "{116, 750}";
},
{
name = topright;
position = "{201, 750}";
}
);
layerId = "258BB4CE-589F-454F-8E39-237B943AA0B4";
paths = (
{
closed = 1;
nodes = (
"154 -10 OFFCURVE",
"181 12 OFFCURVE",
"181 50 CURVE SMOOTH",
"181 699 LINE SMOOTH",
"181 737 OFFCURVE",
"154 759 OFFCURVE",
"115 759 CURVE SMOOTH",
"76 759 OFFCURVE",
"50 738 OFFCURVE",
"50 699 CURVE SMOOTH",
"50 50 LINE SMOOTH",
"50 11 OFFCURVE",
"76 -10 OFFCURVE",
"115 -10 CURVE SMOOTH"
);
}
);
width = 231;
},
{
anchors = (
{
name = bottom;
position = "{112, 0}";
},
{
name = center;
position = "{112, 375}";
},
{
name = top;
position = "{112, 750}";
},
{
name = topright;
position = "{197, 750}";
}
);
layerId = "8ED59CAD-D047-43C0-8308-3370007B39AA";
paths = (
{
closed = 1;
nodes = (
"137 -10 OFFCURVE",
"153 6 OFFCURVE",
"153 33 CURVE SMOOTH",
"153 716 LINE SMOOTH",
"153 743 OFFCURVE",
"137 759 OFFCURVE",
"111 759 CURVE SMOOTH",
"85 759 OFFCURVE",
"70 743 OFFCURVE",
"70 716 CURVE SMOOTH",
"70 33 LINE SMOOTH",
"70 6 OFFCURVE",
"85 -10 OFFCURVE",
"111 -10 CURVE SMOOTH"
);
}
);
width = 223;
}
);
note = l;
unicode = 006C;
},
{
glyphname = m;
lastChange = "2018-03-10 08:40:14 +0000";
layers = (
{
anchors = (
{
name = bottom;
position = "{423, 0}";
},
{
name = top;
position = "{423, 470}";
}
);
layerId = "0B1DFD06-3317-40CA-B510-4969A0718C16";
paths = (
{
closed = 1;
nodes = (
"128 -10 OFFCURVE",
"136 2 OFFCURVE",
"136 22 CURVE SMOOTH",
"136 255 LINE SMOOTH",
"136 383 OFFCURVE",
"220 452 OFFCURVE",
"304 452 CURVE SMOOTH",
"372 452 OFFCURVE",
"408 398 OFFCURVE",
"408 303 CURVE SMOOTH",
"408 22 LINE SMOOTH",
"408 2 OFFCURVE",
"415 -10 OFFCURVE",
"433 -10 CURVE SMOOTH",
"451 -10 OFFCURVE",
"459 2 OFFCURVE",
"459 22 CURVE SMOOTH",
"459 336 LINE",
"489 412 OFFCURVE",
"547 452 OFFCURVE",
"611 452 CURVE SMOOTH",
"689 452 OFFCURVE",
"715 411 OFFCURVE",
"715 316 CURVE SMOOTH",
"715 22 LINE SMOOTH",
"715 2 OFFCURVE",
"722 -10 OFFCURVE",
"740 -10 CURVE SMOOTH",
"758 -10 OFFCURVE",
"766 2 OFFCURVE",
"766 22 CURVE SMOOTH",
"766 316 LINE SMOOTH",
"766 433 OFFCURVE",
"723 500 OFFCURVE",
"611 500 CURVE SMOOTH",
"544 500 OFFCURVE",
"486 458 OFFCURVE",
"444 398 CURVE",
"421 461 OFFCURVE",
"372 500 OFFCURVE",
"304 500 CURVE SMOOTH",
"236 500 OFFCURVE",
"173 460 OFFCURVE",
"136 397 CURVE",
"136 468 LINE SMOOTH",
"136 488 OFFCURVE",
"128 500 OFFCURVE",
"110 500 CURVE SMOOTH",
"92 500 OFFCURVE",
"85 488 OFFCURVE",
"85 468 CURVE SMOOTH",
"85 22 LINE SMOOTH",
"85 2 OFFCURVE",
"92 -10 OFFCURVE",
"110 -10 CURVE SMOOTH"
);
}
);
width = 846;
},
{
anchors = (
{
name = bottom;
position = "{428, 0}";
},
{
name = top;
position = "{428, 470}";
}
);
guideLines = (
{
position = "{357, 416}";
}
);
layerId = "258BB4CE-589F-454F-8E39-237B943AA0B4";
paths = (
{
closed = 1;
nodes = (
"154 -10 OFFCURVE",
"181 12 OFFCURVE",
"181 50 CURVE SMOOTH",
"181 257 LINE SMOOTH",
"181 344 OFFCURVE",
"218 396 OFFCURVE",
"281 396 CURVE SMOOTH",
"330 396 OFFCURVE",
"350 351 OFFCURVE",
"350 275 CURVE SMOOTH",
"350 50 LINE SMOOTH",
"350 11 OFFCURVE",
"376 -10 OFFCURVE",
"415 -10 CURVE SMOOTH",
"454 -10 OFFCURVE",
"481 12 OFFCURVE",
"481 50 CURVE SMOOTH",
"481 329 LINE",
"506 376 OFFCURVE",
"534 396 OFFCURVE",
"573 396 CURVE SMOOTH",
"616 396 OFFCURVE",
"642 364 OFFCURVE",
"642 296 CURVE SMOOTH",
"642 50 LINE SMOOTH",
"642 11 OFFCURVE",
"668 -10 OFFCURVE",
"707 -10 CURVE SMOOTH",
"746 -10 OFFCURVE",
"773 12 OFFCURVE",
"773 50 CURVE SMOOTH",
"773 288 LINE SMOOTH",
"773 421 OFFCURVE",
"710 500 OFFCURVE",
"603 500 CURVE SMOOTH",
"538 500 OFFCURVE",
"487 469 OFFCURVE",
"442 416 CURVE",
"419 469 OFFCURVE",
"370 500 OFFCURVE",
"315 500 CURVE SMOOTH",
"261 500 OFFCURVE",
"212 470 OFFCURVE",
"181 416 CURVE",
"181 440 LINE SMOOTH",
"181 478 OFFCURVE",
"154 500 OFFCURVE",
"115 500 CURVE SMOOTH",
"76 500 OFFCURVE",
"50 479 OFFCURVE",
"50 440 CURVE SMOOTH",
"50 50 LINE SMOOTH",
"50 11 OFFCURVE",
"76 -10 OFFCURVE",
"115 -10 CURVE SMOOTH"
);
}
);
width = 818;
},
{
anchors = (
{
name = bottom;
position = "{424, 0}";
},
{
name = top;
position = "{424, 470}";
}
);
layerId = "8ED59CAD-D047-43C0-8308-3370007B39AA";
paths = (
{
closed = 1;
nodes = (
"137 -10 OFFCURVE",
"153 6 OFFCURVE",
"153 33 CURVE SMOOTH",
"153 256 LINE SMOOTH",
"153 367 OFFCURVE",
"218 430 OFFCURVE",
"294 430 CURVE SMOOTH",
"354 430 OFFCURVE",
"384 379 OFFCURVE",
"384 292 CURVE SMOOTH",
"384 33 LINE SMOOTH",
"384 6 OFFCURVE",
"398 -10 OFFCURVE",
"425 -10 CURVE SMOOTH",
"451 -10 OFFCURVE",
"467 6 OFFCURVE",
"467 33 CURVE SMOOTH",
"467 333 LINE",
"495 398 OFFCURVE",
"541 430 OFFCURVE",
"595 430 CURVE SMOOTH",
"659 430 OFFCURVE",
"685 392 OFFCURVE",
"685 308 CURVE SMOOTH",
"685 33 LINE SMOOTH",
"685 6 OFFCURVE",
"699 -10 OFFCURVE",
"726 -10 CURVE SMOOTH",
"752 -10 OFFCURVE",
"768 6 OFFCURVE",
"768 33 CURVE SMOOTH",
"768 305 LINE SMOOTH",
"768 428 OFFCURVE",
"717 500 OFFCURVE",
"607 500 CURVE SMOOTH",
"541 500 OFFCURVE",
"485 462 OFFCURVE",
"442 405 CURVE",
"419 464 OFFCURVE",
"370 500 OFFCURVE",
"307 500 CURVE SMOOTH",
"245 500 OFFCURVE",
"188 464 OFFCURVE",
"153 405 CURVE",
"153 457 LINE SMOOTH",
"153 484 OFFCURVE",
"137 500 OFFCURVE",
"111 500 CURVE SMOOTH",
"85 500 OFFCURVE",
"70 484 OFFCURVE",
"70 457 CURVE SMOOTH",
"70 33 LINE SMOOTH",
"70 6 OFFCURVE",
"85 -10 OFFCURVE",
"111 -10 CURVE SMOOTH"
);
}
);
width = 833;
}
);
leftKerningGroup = n;
note = m;
rightKerningGroup = n;
unicode = 006D;
},
{
glyphname = n;
lastChange = "2018-03-10 08:40:14 +0000";
layers = (
{
anchors = (
{
name = bottom;
position = "{310, 0}";
},
{
name = top;
position = "{310, 470}";
}
);
layerId = "0B1DFD06-3317-40CA-B510-4969A0718C16";
paths = (
{
closed = 1;
nodes = (
"128 -10 OFFCURVE",
"136 2 OFFCURVE",
"136 22 CURVE SMOOTH",
"136 255 LINE SMOOTH",
"136 383 OFFCURVE",
"230 452 OFFCURVE",
"344 452 CURVE SMOOTH",
"450 452 OFFCURVE",
"488 398 OFFCURVE",
"488 303 CURVE SMOOTH",
"488 22 LINE SMOOTH",
"488 2 OFFCURVE",
"495 -10 OFFCURVE",
"513 -10 CURVE SMOOTH",
"531 -10 OFFCURVE",
"539 2 OFFCURVE",
"539 22 CURVE SMOOTH",
"539 303 LINE SMOOTH",
"539 420 OFFCURVE",
"484 500 OFFCURVE",
"344 500 CURVE SMOOTH",
"246 500 OFFCURVE",
"178 453 OFFCURVE",
"136 397 CURVE",
"136 468 LINE SMOOTH",
"136 488 OFFCURVE",
"128 500 OFFCURVE",
"110 500 CURVE SMOOTH",
"92 500 OFFCURVE",
"85 488 OFFCURVE",
"85 468 CURVE SMOOTH",
"85 22 LINE SMOOTH",
"85 2 OFFCURVE",
"92 -10 OFFCURVE",
"110 -10 CURVE SMOOTH"
);
}
);
width = 619;
},
{
anchors = (
{
name = bottom;
position = "{315, 0}";
},
{
name = top;
position = "{315, 470}";
}
);
layerId = "258BB4CE-589F-454F-8E39-237B943AA0B4";
paths = (
{
closed = 1;
nodes = (
"154 -10 OFFCURVE",
"181 12 OFFCURVE",
"181 50 CURVE SMOOTH",
"181 227 LINE SMOOTH",
"181 333 OFFCURVE",
"240 396 OFFCURVE",
"341 396 CURVE SMOOTH",
"408 396 OFFCURVE",
"447 350 OFFCURVE",
"447 275 CURVE SMOOTH",
"447 50 LINE SMOOTH",
"447 11 OFFCURVE",
"473 -10 OFFCURVE",
"512 -10 CURVE SMOOTH",
"551 -10 OFFCURVE",
"578 12 OFFCURVE",
"578 50 CURVE SMOOTH",
"578 275 LINE SMOOTH",
"578 412 OFFCURVE",
"501 500 OFFCURVE",
"371 500 CURVE SMOOTH",
"285 500 OFFCURVE",
"223 468 OFFCURVE",
"177 411 CURVE",
"177 440 LINE SMOOTH",
"177 478 OFFCURVE",
"152 500 OFFCURVE",
"113 500 CURVE SMOOTH",
"74 500 OFFCURVE",
"50 479 OFFCURVE",
"50 440 CURVE SMOOTH",
"50 50 LINE SMOOTH",
"50 11 OFFCURVE",
"76 -10 OFFCURVE",
"115 -10 CURVE SMOOTH"
);
}
);
width = 623;
},
{
anchors = (
{
name = bottom;
position = "{311, 0}";
},
{
name = top;
position = "{311, 470}";
}
);
layerId = "8ED59CAD-D047-43C0-8308-3370007B39AA";
paths = (
{
closed = 1;
nodes = (
"137 -10 OFFCURVE",
"153 6 OFFCURVE",
"153 33 CURVE SMOOTH",
"153 244 LINE SMOOTH",
"153 363 OFFCURVE",
"233 430 OFFCURVE",
"342 430 CURVE SMOOTH",
"432 430 OFFCURVE",
"471 379 OFFCURVE",
"471 292 CURVE SMOOTH",
"471 33 LINE SMOOTH",
"471 6 OFFCURVE",
"485 -10 OFFCURVE",
"512 -10 CURVE SMOOTH",
"538 -10 OFFCURVE",
"554 6 OFFCURVE",
"554 33 CURVE SMOOTH",
"554 292 LINE SMOOTH",
"554 417 OFFCURVE",
"490 500 OFFCURVE",
"354 500 CURVE SMOOTH",
"261 500 OFFCURVE",
"195 459 OFFCURVE",
"151 403 CURVE",
"151 457 LINE SMOOTH",
"151 484 OFFCURVE",
"137 500 OFFCURVE",
"110 500 CURVE SMOOTH",
"84 500 OFFCURVE",
"70 484 OFFCURVE",
"70 457 CURVE SMOOTH",
"70 33 LINE SMOOTH",
"70 6 OFFCURVE",
"85 -10 OFFCURVE",
"111 -10 CURVE SMOOTH"
);
}
);
width = 619;
}
);
leftKerningGroup = n;
note = n;
rightKerningGroup = n;
unicode = 006E;
},
{
glyphname = o;
lastChange = "2018-03-10 08:40:14 +0000";
layers = (
{
anchors = (
{
name = bottom;
position = "{319, 0}";
},
{
name = center;
position = "{319, 235}";
},
{
name = ogonek;
position = "{570, 10}";
},
{
name = top;
position = "{319, 470}";
},
{
name = topright;
position = "{522, 470}";
}
);
layerId = "0B1DFD06-3317-40CA-B510-4969A0718C16";
paths = (
{
closed = 1;
nodes = (
"503 -10 OFFCURVE",
"583 120 OFFCURVE",
"583 245 CURVE SMOOTH",
"583 370 OFFCURVE",
"503 500 OFFCURVE",
"319 500 CURVE SMOOTH",
"135 500 OFFCURVE",
"55 370 OFFCURVE",
"55 245 CURVE SMOOTH",
"55 120 OFFCURVE",
"135 -10 OFFCURVE",
"319 -10 CURVE SMOOTH"
);
},
{
closed = 1;
nodes = (
"194 38 OFFCURVE",
"107 111 OFFCURVE",
"107 245 CURVE SMOOTH",
"107 379 OFFCURVE",
"194 452 OFFCURVE",
"319 452 CURVE SMOOTH",
"444 452 OFFCURVE",
"531 379 OFFCURVE",
"531 245 CURVE SMOOTH",
"531 111 OFFCURVE",
"444 38 OFFCURVE",
"319 38 CURVE SMOOTH"
);
}
);
width = 638;
},
{
anchors = (
{
name = bottom;
position = "{338, 0}";
},
{
name = center;
position = "{338, 235}";
},
{
name = ogonek;
position = "{589, 10}";
},
{
name = top;
position = "{338, 470}";
},
{
name = topright;
position = "{541, 463}";
}
);
layerId = "258BB4CE-589F-454F-8E39-237B943AA0B4";
paths = (
{
closed = 1;
nodes = (
"513 -10 OFFCURVE",
"636 90 OFFCURVE",
"636 245 CURVE SMOOTH",
"636 400 OFFCURVE",
"513 500 OFFCURVE",
"338 500 CURVE SMOOTH",
"163 500 OFFCURVE",
"40 400 OFFCURVE",
"40 245 CURVE SMOOTH",
"40 90 OFFCURVE",
"163 -10 OFFCURVE",
"338 -10 CURVE SMOOTH"
);
},
{
closed = 1;
nodes = (
"236 94 OFFCURVE",
"172 150 OFFCURVE",
"172 245 CURVE SMOOTH",
"172 340 OFFCURVE",
"236 396 OFFCURVE",
"338 396 CURVE SMOOTH",
"440 396 OFFCURVE",
"504 340 OFFCURVE",
"504 245 CURVE SMOOTH",
"504 150 OFFCURVE",
"440 94 OFFCURVE",
"338 94 CURVE SMOOTH"
);
}
);
width = 676;
},
{
anchors = (
{
name = bottom;
position = "{323, 0}";
},
{
name = center;
position = "{323, 235}";
},
{
name = ogonek;
position = "{574, 10}";
},
{
name = top;
position = "{323, 470}";
},
{
name = topright;
position = "{526, 467}";
}
);
layerId = "8ED59CAD-D047-43C0-8308-3370007B39AA";
paths = (
{
closed = 1;
nodes = (
"503 -10 OFFCURVE",
"600 108 OFFCURVE",
"600 245 CURVE SMOOTH",
"600 382 OFFCURVE",
"503 500 OFFCURVE",
"323 500 CURVE SMOOTH",
"142 500 OFFCURVE",
"45 382 OFFCURVE",
"45 245 CURVE SMOOTH",
"45 108 OFFCURVE",
"142 -10 OFFCURVE",
"323 -10 CURVE SMOOTH"
);
},
{
closed = 1;
nodes = (
"207 60 OFFCURVE",
"129 127 OFFCURVE",
"129 245 CURVE SMOOTH",
"129 363 OFFCURVE",
"207 430 OFFCURVE",
"323 430 CURVE SMOOTH",
"438 430 OFFCURVE",
"516 363 OFFCURVE",
"516 245 CURVE SMOOTH",
"516 127 OFFCURVE",
"438 60 OFFCURVE",
"323 60 CURVE SMOOTH"
);
}
);
width = 645;
}
);
note = o;
unicode = 006F;
},
{
glyphname = p;
lastChange = "2018-03-10 08:40:14 +0000";
layers = (
{
anchors = (
{
name = bottom;
position = "{342, 0}";
},
{
name = top;
position = "{342, 470}";
}
);
layerId = "0B1DFD06-3317-40CA-B510-4969A0718C16";
paths = (
{
closed = 1;
nodes = (
"128 -299 OFFCURVE",
"136 -287 OFFCURVE",
"136 -267 CURVE",
"137 101 LINE",
"186 38 OFFCURVE",
"254 -10 OFFCURVE",
"362 -10 CURVE SMOOTH",
"539 -10 OFFCURVE",
"629 102 OFFCURVE",
"629 245 CURVE SMOOTH",
"629 400 OFFCURVE",
"541 500 OFFCURVE",
"362 500 CURVE SMOOTH",
"264 500 OFFCURVE",
"184 462 OFFCURVE",
"136 387 CURVE",
"136 468 LINE SMOOTH",
"136 488 OFFCURVE",
"128 500 OFFCURVE",
"110 500 CURVE SMOOTH",
"92 500 OFFCURVE",
"85 488 OFFCURVE",
"85 468 CURVE SMOOTH",
"85 -267 LINE SMOOTH",
"85 -287 OFFCURVE",
"92 -299 OFFCURVE",
"110 -299 CURVE SMOOTH"
);
},
{
closed = 1;
nodes = (
"249 38 OFFCURVE",
"136 111 OFFCURVE",
"136 245 CURVE SMOOTH",
"136 372 OFFCURVE",
"220 452 OFFCURVE",
"362 452 CURVE SMOOTH",
"507 452 OFFCURVE",
"577 385 OFFCURVE",
"577 245 CURVE SMOOTH",
"577 122 OFFCURVE",
"503 38 OFFCURVE",
"362 38 CURVE SMOOTH"
);
}
);
width = 684;
},
{
anchors = (
{
name = bottom;
position = "{342, 0}";
},
{
name = top;
position = "{342, 470}";
}
);
layerId = "258BB4CE-589F-454F-8E39-237B943AA0B4";
paths = (
{
closed = 1;
nodes = (
"154 -299 OFFCURVE",
"181 -277 OFFCURVE",
"181 -239 CURVE SMOOTH",
"182 68 LINE",
"228 19 OFFCURVE",
"292 -10 OFFCURVE",
"363 -10 CURVE SMOOTH",
"533 -10 OFFCURVE",
"634 85 OFFCURVE",
"634 245 CURVE SMOOTH",
"634 405 OFFCURVE",
"535 500 OFFCURVE",
"367 500 CURVE SMOOTH",
"297 500 OFFCURVE",
"231 470 OFFCURVE",
"181 420 CURVE",
"181 440 LINE SMOOTH",
"181 478 OFFCURVE",
"154 500 OFFCURVE",
"115 500 CURVE SMOOTH",
"76 500 OFFCURVE",
"50 479 OFFCURVE",
"50 440 CURVE SMOOTH",
"50 -239 LINE SMOOTH",
"50 -278 OFFCURVE",
"76 -299 OFFCURVE",
"115 -299 CURVE SMOOTH"
);
},
{
closed = 1;
nodes = (
"243 94 OFFCURVE",
"181 150 OFFCURVE",
"181 245 CURVE SMOOTH",
"181 340 OFFCURVE",
"243 396 OFFCURVE",
"347 396 CURVE SMOOTH",
"444 396 OFFCURVE",
"502 340 OFFCURVE",
"502 245 CURVE SMOOTH",
"502 150 OFFCURVE",
"444 94 OFFCURVE",
"347 94 CURVE SMOOTH"
);
}
);
width = 674;
},
{
anchors = (
{
name = bottom;
position = "{341, 0}";
},
{
name = top;
position = "{341, 470}";
}
);
layerId = "8ED59CAD-D047-43C0-8308-3370007B39AA";
paths = (
{
closed = 1;
nodes = (
"137 -299 OFFCURVE",
"153 -283 OFFCURVE",
"153 -256 CURVE",
"154 88 LINE",
"202 30 OFFCURVE",
"268 -10 OFFCURVE",
"361 -10 CURVE SMOOTH",
"536 -10 OFFCURVE",
"630 95 OFFCURVE",
"630 245 CURVE SMOOTH",
"630 402 OFFCURVE",
"538 500 OFFCURVE",
"363 500 CURVE SMOOTH",
"276 500 OFFCURVE",
"202 465 OFFCURVE",
"153 400 CURVE",
"153 457 LINE SMOOTH",
"153 484 OFFCURVE",
"137 500 OFFCURVE",
"111 500 CURVE SMOOTH",
"85 500 OFFCURVE",
"70 484 OFFCURVE",
"70 457 CURVE SMOOTH",
"70 -256 LINE SMOOTH",
"70 -283 OFFCURVE",
"85 -299 OFFCURVE",
"111 -299 CURVE SMOOTH"
);
},
{
closed = 1;
nodes = (
"246 60 OFFCURVE",
"153 127 OFFCURVE",
"153 245 CURVE SMOOTH",
"153 359 OFFCURVE",
"228 430 OFFCURVE",
"355 430 CURVE SMOOTH",
"481 430 OFFCURVE",
"546 367 OFFCURVE",
"546 245 CURVE SMOOTH",
"546 133 OFFCURVE",
"478 60 OFFCURVE",
"355 60 CURVE SMOOTH"
);
}
);
width = 675;
}
);
leftKerningGroup = b;
note = p;
rightKerningGroup = b;
unicode = 0070;
},
{
glyphname = q;
lastChange = "2018-03-10 08:40:14 +0000";
layers = (
{
anchors = (
{
name = bottom;
position = "{342, 0}";
},
{
name = top;
position = "{342, 470}";
}
);
layerId = "0B1DFD06-3317-40CA-B510-4969A0718C16";
paths = (
{
closed = 1;
nodes = (
"592 -299 OFFCURVE",
"599 -287 OFFCURVE",
"599 -267 CURVE SMOOTH",
"599 468 LINE SMOOTH",
"599 488 OFFCURVE",
"592 500 OFFCURVE",
"574 500 CURVE SMOOTH",
"556 500 OFFCURVE",
"548 488 OFFCURVE",
"548 468 CURVE SMOOTH",
"548 387 LINE",
"500 462 OFFCURVE",
"420 500 OFFCURVE",
"322 500 CURVE SMOOTH",
"143 500 OFFCURVE",
"55 396 OFFCURVE",
"55 241 CURVE SMOOTH",
"55 92 OFFCURVE",
"148 -10 OFFCURVE",
"317 -10 CURVE SMOOTH",
"425 -10 OFFCURVE",
"498 38 OFFCURVE",
"547 101 CURVE",
"548 -267 LINE",
"548 -287 OFFCURVE",
"556 -299 OFFCURVE",
"574 -299 CURVE SMOOTH"
);
},
{
closed = 1;
nodes = (
"184 38 OFFCURVE",
"107 112 OFFCURVE",
"107 241 CURVE SMOOTH",
"107 381 OFFCURVE",
"177 452 OFFCURVE",
"322 452 CURVE SMOOTH",
"464 452 OFFCURVE",
"548 372 OFFCURVE",
"548 245 CURVE SMOOTH",
"548 111 OFFCURVE",
"430 38 OFFCURVE",
"317 38 CURVE SMOOTH"
);
}
);
width = 684;
},
{
anchors = (
{
name = bottom;
position = "{312, 0}";
},
{
name = top;
position = "{312, 470}";
}
);
layerId = "258BB4CE-589F-454F-8E39-237B943AA0B4";
paths = (
{
closed = 1;
nodes = (
"598 -299 OFFCURVE",
"624 -278 OFFCURVE",
"624 -239 CURVE SMOOTH",
"624 440 LINE SMOOTH",
"624 479 OFFCURVE",
"598 500 OFFCURVE",
"559 500 CURVE SMOOTH",
"520 500 OFFCURVE",
"493 478 OFFCURVE",
"493 440 CURVE SMOOTH",
"493 420 LINE",
"446 471 OFFCURVE",
"387 500 OFFCURVE",
"307 500 CURVE SMOOTH",
"139 500 OFFCURVE",
"40 405 OFFCURVE",
"40 245 CURVE SMOOTH",
"40 85 OFFCURVE",
"137 -10 OFFCURVE",
"301 -10 CURVE SMOOTH",
"383 -10 OFFCURVE",
"450 19 OFFCURVE",
"492 68 CURVE",
"493 -239 LINE SMOOTH",
"493 -277 OFFCURVE",
"520 -299 OFFCURVE",
"559 -299 CURVE SMOOTH"
);
},
{
closed = 1;
nodes = (
"230 94 OFFCURVE",
"172 150 OFFCURVE",
"172 245 CURVE SMOOTH",
"172 340 OFFCURVE",
"230 396 OFFCURVE",
"327 396 CURVE SMOOTH",
"431 396 OFFCURVE",
"493 340 OFFCURVE",
"493 245 CURVE SMOOTH",
"493 150 OFFCURVE",
"431 94 OFFCURVE",
"327 94 CURVE SMOOTH"
);
}
);
width = 674;
},
{
anchors = (
{
name = bottom;
position = "{326, 0}";
},
{
name = top;
position = "{326, 470}";
}
);
layerId = "8ED59CAD-D047-43C0-8308-3370007B39AA";
paths = (
{
closed = 1;
nodes = (
"590 -299 OFFCURVE",
"605 -283 OFFCURVE",
"605 -256 CURVE SMOOTH",
"605 457 LINE SMOOTH",
"605 484 OFFCURVE",
"590 500 OFFCURVE",
"564 500 CURVE SMOOTH",
"538 500 OFFCURVE",
"522 484 OFFCURVE",
"522 457 CURVE SMOOTH",
"522 400 LINE",
"474 466 OFFCURVE",
"403 500 OFFCURVE",
"312 500 CURVE SMOOTH",
"137 500 OFFCURVE",
"45 400 OFFCURVE",
"45 243 CURVE SMOOTH",
"45 89 OFFCURVE",
"140 -10 OFFCURVE",
"307 -10 CURVE SMOOTH",
"404 -10 OFFCURVE",
"475 30 OFFCURVE",
"521 88 CURVE",
"522 -256 LINE",
"522 -283 OFFCURVE",
"538 -299 OFFCURVE",
"564 -299 CURVE SMOOTH"
);
},
{
closed = 1;
nodes = (
"198 60 OFFCURVE",
"129 127 OFFCURVE",
"129 243 CURVE SMOOTH",
"129 365 OFFCURVE",
"194 430 OFFCURVE",
"320 430 CURVE SMOOTH",
"447 430 OFFCURVE",
"522 359 OFFCURVE",
"522 245 CURVE SMOOTH",
"522 127 OFFCURVE",
"426 60 OFFCURVE",
"317 60 CURVE SMOOTH"
);
}
);
width = 675;
}
);
leftKerningGroup = d;
note = q;
rightKerningGroup = d;
unicode = 0071;
},
{
glyphname = r;
lastChange = "2018-03-10 08:40:14 +0000";
layers = (
{
anchors = (
{
name = bottom;
position = "{112, 0}";
},
{
name = top;
position = "{112, 470}";
}
);
layerId = "0B1DFD06-3317-40CA-B510-4969A0718C16";
paths = (
{
closed = 1;
nodes = (
"128 -10 OFFCURVE",
"136 2 OFFCURVE",
"136 22 CURVE SMOOTH",
"136 255 LINE SMOOTH",
"136 379 OFFCURVE",
"220 442 OFFCURVE",
"334 442 CURVE SMOOTH",
"360 442 LINE SMOOTH",
"377 442 OFFCURVE",
"391 448 OFFCURVE",
"391 466 CURVE SMOOTH",
"391 484 OFFCURVE",
"377 490 OFFCURVE",
"360 490 CURVE SMOOTH",
"334 490 LINE SMOOTH",
"236 490 OFFCURVE",
"178 453 OFFCURVE",
"136 397 CURVE",
"136 468 LINE SMOOTH",
"136 488 OFFCURVE",
"128 500 OFFCURVE",
"110 500 CURVE SMOOTH",
"92 500 OFFCURVE",
"85 488 OFFCURVE",
"85 468 CURVE SMOOTH",
"85 22 LINE SMOOTH",
"85 2 OFFCURVE",
"92 -10 OFFCURVE",
"110 -10 CURVE SMOOTH"
);
}
);
width = 436;
},
{
anchors = (
{
name = bottom;
position = "{115, 0}";
},
{
name = top;
position = "{195, 470}";
}
);
layerId = "258BB4CE-589F-454F-8E39-237B943AA0B4";
paths = (
{
closed = 1;
nodes = (
"154 -10 OFFCURVE",
"181 12 OFFCURVE",
"181 50 CURVE SMOOTH",
"181 227 LINE SMOOTH",
"181 331 OFFCURVE",
"243 386 OFFCURVE",
"327 386 CURVE SMOOTH",
"361 386 LINE SMOOTH",
"403 386 OFFCURVE",
"428 405 OFFCURVE",
"428 438 CURVE SMOOTH",
"428 471 OFFCURVE",
"403 490 OFFCURVE",
"361 490 CURVE SMOOTH",
"339 490 LINE SMOOTH",
"271 490 OFFCURVE",
"215 457 OFFCURVE",
"177 407 CURVE",
"177 440 LINE SMOOTH",
"177 478 OFFCURVE",
"152 500 OFFCURVE",
"113 500 CURVE SMOOTH",
"74 500 OFFCURVE",
"50 479 OFFCURVE",
"50 440 CURVE SMOOTH",
"50 50 LINE SMOOTH",
"50 11 OFFCURVE",
"76 -10 OFFCURVE",
"115 -10 CURVE SMOOTH"
);
}
);
width = 448;
},
{
anchors = (
{
name = bottom;
position = "{112, 0}";
},
{
name = top;
position = "{144, 470}";
}
);
layerId = "8ED59CAD-D047-43C0-8308-3370007B39AA";
paths = (
{
closed = 1;
nodes = (
"137 -10 OFFCURVE",
"153 6 OFFCURVE",
"153 33 CURVE SMOOTH",
"153 244 LINE SMOOTH",
"153 360 OFFCURVE",
"228 420 OFFCURVE",
"330 420 CURVE SMOOTH",
"359 420 LINE SMOOTH",
"386 420 OFFCURVE",
"405 431 OFFCURVE",
"405 455 CURVE SMOOTH",
"405 479 OFFCURVE",
"386 490 OFFCURVE",
"359 490 CURVE SMOOTH",
"335 490 LINE SMOOTH",
"249 490 OFFCURVE",
"192 455 OFFCURVE",
"151 401 CURVE",
"151 457 LINE SMOOTH",
"151 484 OFFCURVE",
"137 500 OFFCURVE",
"110 500 CURVE SMOOTH",
"84 500 OFFCURVE",
"70 484 OFFCURVE",
"70 457 CURVE SMOOTH",
"70 33 LINE SMOOTH",
"70 6 OFFCURVE",
"85 -10 OFFCURVE",
"111 -10 CURVE SMOOTH"
);
}
);
width = 440;
}
);
leftKerningGroup = r;
note = r;
rightKerningGroup = r;
unicode = 0072;
},
{
glyphname = s;
lastChange = "2018-03-10 08:40:14 +0000";
layers = (
{
anchors = (
{
name = bottom;
position = "{277, 0}";
},
{
name = top;
position = "{261, 470}";
}
);
layerId = "0B1DFD06-3317-40CA-B510-4969A0718C16";
paths = (
{
closed = 1;
nodes = (
"380 -9 OFFCURVE",
"464 34 OFFCURVE",
"464 119 CURVE",
"464 201 OFFCURVE",
"402 231 OFFCURVE",
"273 274 CURVE SMOOTH",
"192 301 OFFCURVE",
"137 311 OFFCURVE",
"137 373 CURVE SMOOTH",
"137 422 OFFCURVE",
"179 451 OFFCURVE",
"261 451 CURVE SMOOTH",
"338 451 OFFCURVE",
"371 429 OFFCURVE",
"404 395 CURVE SMOOTH",
"415 383 OFFCURVE",
"426 380 OFFCURVE",
"441 387 CURVE SMOOTH",
"456 394 OFFCURVE",
"456 411 OFFCURVE",
"447 423 CURVE SMOOTH",
"412 469 OFFCURVE",
"338 500 OFFCURVE",
"261 500 CURVE SMOOTH",
"153 500 OFFCURVE",
"83 449 OFFCURVE",
"83 375 CURVE SMOOTH",
"83 282 OFFCURVE",
"167 259 OFFCURVE",
"250 230 CURVE SMOOTH",
"363 191 OFFCURVE",
"413 177 OFFCURVE",
"413 119 CURVE SMOOTH",
"413 60 OFFCURVE",
"348 40 OFFCURVE",
"278 40 CURVE SMOOTH",
"213 40 OFFCURVE",
"152 59 OFFCURVE",
"107 111 CURVE SMOOTH",
"94 126 OFFCURVE",
"92 134 OFFCURVE",
"74 130 CURVE SMOOTH",
"57 126 OFFCURVE",
"50 109 OFFCURVE",
"60 94 CURVE SMOOTH",
"104 28 OFFCURVE",
"191 -9 OFFCURVE",
"278 -9 CURVE SMOOTH"
);
}
);
width = 519;
},
{
anchors = (
{
name = bottom;
position = "{300, 0}";
},
{
name = top;
position = "{280, 470}";
}
);
layerId = "258BB4CE-589F-454F-8E39-237B943AA0B4";
paths = (
{
closed = 1;
nodes = (
"450 -9 OFFCURVE",
"514 60 OFFCURVE",
"514 130 CURVE SMOOTH",
"514 207 OFFCURVE",
"471 250 OFFCURVE",
"337 291 CURVE SMOOTH",
"242 320 OFFCURVE",
"197 334 OFFCURVE",
"197 365 CURVE SMOOTH",
"197 387 OFFCURVE",
"221 398 OFFCURVE",
"267 398 CURVE SMOOTH",
"316 398 OFFCURVE",
"360 384 OFFCURVE",
"387 359 CURVE SMOOTH",
"411 336 OFFCURVE",
"445 326 OFFCURVE",
"475 346 CURVE SMOOTH",
"502 364 OFFCURVE",
"507 390 OFFCURVE",
"486 419 CURVE SMOOTH",
"449 470 OFFCURVE",
"362 500 OFFCURVE",
"268 500 CURVE SMOOTH",
"135 500 OFFCURVE",
"65 445 OFFCURVE",
"65 365 CURVE SMOOTH",
"65 275 OFFCURVE",
"152 236 OFFCURVE",
"267 200 CURVE SMOOTH",
"364 170 OFFCURVE",
"383 156 OFFCURVE",
"383 130 CURVE SMOOTH",
"383 107 OFFCURVE",
"354 93 OFFCURVE",
"316 93 CURVE SMOOTH",
"242 93 OFFCURVE",
"187 108 OFFCURVE",
"139 156 CURVE SMOOTH",
"116 179 OFFCURVE",
"89 181 OFFCURVE",
"65 164 CURVE SMOOTH",
"37 144 OFFCURVE",
"30 110 OFFCURVE",
"56 84 CURVE SMOOTH",
"119 22 OFFCURVE",
"211 -9 OFFCURVE",
"316 -9 CURVE SMOOTH"
);
}
);
width = 554;
},
{
anchors = (
{
name = bottom;
position = "{282, 0}";
},
{
name = top;
position = "{265, 470}";
}
);
layerId = "8ED59CAD-D047-43C0-8308-3370007B39AA";
paths = (
{
closed = 1;
nodes = (
"404 -9 OFFCURVE",
"480 44 OFFCURVE",
"480 123 CURVE",
"480 203 OFFCURVE",
"426 239 OFFCURVE",
"295 281 CURVE SMOOTH",
"208 309 OFFCURVE",
"157 320 OFFCURVE",
"157 370 CURVE SMOOTH",
"157 408 OFFCURVE",
"192 430 OFFCURVE",
"259 430 CURVE SMOOTH",
"325 430 OFFCURVE",
"363 411 OFFCURVE",
"393 381 CURVE SMOOTH",
"409 364 OFFCURVE",
"430 358 OFFCURVE",
"451 371 CURVE SMOOTH",
"470 382 OFFCURVE",
"472 403 OFFCURVE",
"459 421 CURVE SMOOTH",
"423 469 OFFCURVE",
"344 500 OFFCURVE",
"260 500 CURVE SMOOTH",
"142 500 OFFCURVE",
"72 447 OFFCURVE",
"72 371 CURVE SMOOTH",
"72 279 OFFCURVE",
"157 250 OFFCURVE",
"253 218 CURVE SMOOTH",
"359 183 OFFCURVE",
"397 169 OFFCURVE",
"397 123 CURVE SMOOTH",
"397 79 OFFCURVE",
"346 61 OFFCURVE",
"289 61 CURVE SMOOTH",
"221 61 OFFCURVE",
"162 79 OFFCURVE",
"116 129 CURVE SMOOTH",
"99 147 OFFCURVE",
"87 153 OFFCURVE",
"66 144 CURVE SMOOTH",
"45 133 OFFCURVE",
"38 109 OFFCURVE",
"54 90 CURVE SMOOTH",
"106 26 OFFCURVE",
"195 -9 OFFCURVE",
"289 -9 CURVE SMOOTH"
);
}
);
width = 525;
}
);
leftKerningGroup = s;
note = s;
rightKerningGroup = s;
unicode = 0073;
},
{
glyphname = t;
lastChange = "2018-03-10 08:40:14 +0000";
layers = (
{
anchors = (
{
name = bottom;
position = "{254, 0}";
},
{
name = center;
position = "{212, 235}";
},
{
name = top;
position = "{212, 470}";
},
{
name = topright;
position = "{399, 470}";
}
);
layerId = "0B1DFD06-3317-40CA-B510-4969A0718C16";
paths = (
{
closed = 1;
nodes = (
"314 -10 OFFCURVE",
"361 23 OFFCURVE",
"382 53 CURVE SMOOTH",
"391 66 OFFCURVE",
"392 77 OFFCURVE",
"380 87 CURVE SMOOTH",
"367 98 OFFCURVE",
"354 94 OFFCURVE",
"342 80 CURVE SMOOTH",
"323 58 OFFCURVE",
"300 38 OFFCURVE",
"254 38 CURVE SMOOTH",
"208 38 OFFCURVE",
"174 58 OFFCURVE",
"174 126 CURVE SMOOTH",
"174 667 LINE SMOOTH",
"174 687 OFFCURVE",
"167 699 OFFCURVE",
"149 699 CURVE SMOOTH",
"131 699 OFFCURVE",
"123 687 OFFCURVE",
"123 667 CURVE SMOOTH",
"123 130 LINE SMOOTH",
"123 30 OFFCURVE",
"188 -10 OFFCURVE",
"254 -10 CURVE SMOOTH"
);
},
{
closed = 1;
nodes = (
"325 455 LINE SMOOTH",
"344 455 OFFCURVE",
"355 460 OFFCURVE",
"355 478 CURVE SMOOTH",
"355 493 OFFCURVE",
"345 500 OFFCURVE",
"325 500 CURVE SMOOTH",
"65 500 LINE SMOOTH",
"45 500 OFFCURVE",
"35 493 OFFCURVE",
"35 478 CURVE SMOOTH",
"35 460 OFFCURVE",
"46 455 OFFCURVE",
"65 455 CURVE SMOOTH"
);
}
);
width = 424;
},
{
anchors = (
{
name = bottom;
position = "{299, 0}";
},
{
name = center;
position = "{266, 235}";
},
{
name = top;
position = "{266, 470}";
},
{
name = topright;
position = "{453, 470}";
}
);
layerId = "258BB4CE-589F-454F-8E39-237B943AA0B4";
paths = (
{
closed = 1;
nodes = (
"375 -10 OFFCURVE",
"431 15 OFFCURVE",
"460 58 CURVE SMOOTH",
"480 88 OFFCURVE",
"479 112 OFFCURVE",
"458 129 CURVE SMOOTH",
"431 151 OFFCURVE",
"406 145 OFFCURVE",
"377 118 CURVE SMOOTH",
"360 102 OFFCURVE",
"344 94 OFFCURVE",
"318 94 CURVE SMOOTH",
"288 94 OFFCURVE",
"268 112 OFFCURVE",
"268 142 CURVE SMOOTH",
"268 639 LINE SMOOTH",
"268 678 OFFCURVE",
"242 699 OFFCURVE",
"203 699 CURVE SMOOTH",
"164 699 OFFCURVE",
"137 677 OFFCURVE",
"137 639 CURVE SMOOTH",
"137 153 LINE SMOOTH",
"137 51 OFFCURVE",
"201 -10 OFFCURVE",
"308 -10 CURVE SMOOTH"
);
},
{
closed = 1;
nodes = (
"364 387 LINE SMOOTH",
"401 387 OFFCURVE",
"430 404 OFFCURVE",
"430 438 CURVE SMOOTH",
"430 473 OFFCURVE",
"402 490 OFFCURVE",
"364 490 CURVE SMOOTH",
"96 490 LINE SMOOTH",
"58 490 OFFCURVE",
"30 473 OFFCURVE",
"30 438 CURVE SMOOTH",
"30 404 OFFCURVE",
"59 387 OFFCURVE",
"96 387 CURVE SMOOTH"
);
}
);
width = 504;
},
{
anchors = (
{
name = bottom;
position = "{274, 0}";
},
{
name = center;
position = "{236, 235}";
},
{
name = top;
position = "{236, 470}";
},
{
name = topright;
position = "{423, 470}";
}
);
layerId = "8ED59CAD-D047-43C0-8308-3370007B39AA";
paths = (
{
closed = 1;
nodes = (
"340 -10 OFFCURVE",
"391 20 OFFCURVE",
"415 55 CURVE SMOOTH",
"429 75 OFFCURVE",
"429 91 OFFCURVE",
"413 104 CURVE SMOOTH",
"395 119 OFFCURVE",
"377 114 OFFCURVE",
"358 95 CURVE SMOOTH",
"340 76 OFFCURVE",
"320 60 OFFCURVE",
"282 60 CURVE SMOOTH",
"242 60 OFFCURVE",
"214 80 OFFCURVE",
"214 132 CURVE SMOOTH",
"214 656 LINE SMOOTH",
"214 683 OFFCURVE",
"199 699 OFFCURVE",
"173 699 CURVE SMOOTH",
"146 699 OFFCURVE",
"131 683 OFFCURVE",
"131 656 CURVE SMOOTH",
"131 139 LINE SMOOTH",
"131 38 OFFCURVE",
"195 -10 OFFCURVE",
"278 -10 CURVE SMOOTH"
);
},
{
closed = 1;
nodes = (
"343 428 LINE SMOOTH",
"369 428 OFFCURVE",
"387 438 OFFCURVE",
"387 462 CURVE SMOOTH",
"387 485 OFFCURVE",
"370 496 OFFCURVE",
"343 496 CURVE SMOOTH",
"79 496 LINE SMOOTH",
"52 496 OFFCURVE",
"35 485 OFFCURVE",
"35 462 CURVE SMOOTH",
"35 438 OFFCURVE",
"53 428 OFFCURVE",
"79 428 CURVE SMOOTH"
);
}
);
width = 460;
}
);
note = t;
unicode = 0074;
},
{
glyphname = u;
lastChange = "2018-03-10 08:40:14 +0000";
layers = (
{
anchors = (
{
name = bottom;
position = "{310, 0}";
},
{
name = ogonek;
position = "{522, 10}";
},
{
name = top;
position = "{310, 470}";
},
{
name = topright;
position = "{516, 470}";
}
);
layerId = "0B1DFD06-3317-40CA-B510-4969A0718C16";
paths = (
{
closed = 1;
nodes = (
"373 -10 OFFCURVE",
"441 37 OFFCURVE",
"483 93 CURVE",
"483 22 LINE SMOOTH",
"483 2 OFFCURVE",
"491 -10 OFFCURVE",
"509 -10 CURVE SMOOTH",
"527 -10 OFFCURVE",
"534 2 OFFCURVE",
"534 22 CURVE SMOOTH",
"534 468 LINE SMOOTH",
"534 488 OFFCURVE",
"527 500 OFFCURVE",
"509 500 CURVE SMOOTH",
"491 500 OFFCURVE",
"483 488 OFFCURVE",
"483 468 CURVE SMOOTH",
"483 235 LINE SMOOTH",
"483 107 OFFCURVE",
"389 38 OFFCURVE",
"285 38 CURVE SMOOTH",
"186 38 OFFCURVE",
"131 95 OFFCURVE",
"131 197 CURVE SMOOTH",
"131 468 LINE SMOOTH",
"131 488 OFFCURVE",
"124 500 OFFCURVE",
"106 500 CURVE SMOOTH",
"88 500 OFFCURVE",
"80 488 OFFCURVE",
"80 468 CURVE SMOOTH",
"80 197 LINE SMOOTH",
"80 73 OFFCURVE",
"152 -10 OFFCURVE",
"285 -10 CURVE SMOOTH"
);
}
);
width = 619;
},
{
anchors = (
{
name = bottom;
position = "{305, 0}";
},
{
name = ogonek;
position = "{528, 10}";
},
{
name = top;
position = "{305, 470}";
},
{
name = topright;
position = "{561, 420}";
}
);
layerId = "258BB4CE-589F-454F-8E39-237B943AA0B4";
paths = (
{
closed = 1;
nodes = (
"345 -10 OFFCURVE",
"401 23 OFFCURVE",
"446 79 CURVE",
"446 50 LINE SMOOTH",
"446 12 OFFCURVE",
"471 -10 OFFCURVE",
"510 -10 CURVE SMOOTH",
"549 -10 OFFCURVE",
"573 11 OFFCURVE",
"573 50 CURVE SMOOTH",
"573 440 LINE SMOOTH",
"573 479 OFFCURVE",
"547 500 OFFCURVE",
"508 500 CURVE SMOOTH",
"469 500 OFFCURVE",
"442 478 OFFCURVE",
"442 440 CURVE SMOOTH",
"442 263 LINE SMOOTH",
"442 157 OFFCURVE",
"386 94 OFFCURVE",
"292 94 CURVE SMOOTH",
"219 94 OFFCURVE",
"176 139 OFFCURVE",
"176 215 CURVE SMOOTH",
"176 440 LINE SMOOTH",
"176 479 OFFCURVE",
"150 500 OFFCURVE",
"111 500 CURVE SMOOTH",
"72 500 OFFCURVE",
"45 478 OFFCURVE",
"45 440 CURVE SMOOTH",
"45 215 LINE SMOOTH",
"45 74 OFFCURVE",
"126 -10 OFFCURVE",
"263 -10 CURVE SMOOTH"
);
}
);
width = 623;
},
{
anchors = (
{
name = bottom;
position = "{307, 0}";
},
{
name = ogonek;
position = "{523, 10}";
},
{
name = top;
position = "{307, 470}";
},
{
name = topright;
position = "{533, 450}";
}
);
layerId = "8ED59CAD-D047-43C0-8308-3370007B39AA";
paths = (
{
closed = 1;
nodes = (
"361 -10 OFFCURVE",
"424 31 OFFCURVE",
"467 87 CURVE",
"467 33 LINE SMOOTH",
"467 6 OFFCURVE",
"482 -10 OFFCURVE",
"508 -10 CURVE SMOOTH",
"535 -10 OFFCURVE",
"549 6 OFFCURVE",
"549 33 CURVE SMOOTH",
"549 457 LINE SMOOTH",
"549 484 OFFCURVE",
"534 500 OFFCURVE",
"508 500 CURVE SMOOTH",
"481 500 OFFCURVE",
"466 484 OFFCURVE",
"466 457 CURVE SMOOTH",
"466 246 LINE SMOOTH",
"466 127 OFFCURVE",
"387 60 OFFCURVE",
"287 60 CURVE SMOOTH",
"198 60 OFFCURVE",
"148 113 OFFCURVE",
"148 204 CURVE SMOOTH",
"148 457 LINE SMOOTH",
"148 484 OFFCURVE",
"133 500 OFFCURVE",
"107 500 CURVE SMOOTH",
"81 500 OFFCURVE",
"65 484 OFFCURVE",
"65 457 CURVE SMOOTH",
"65 204 LINE SMOOTH",
"65 73 OFFCURVE",
"141 -10 OFFCURVE",
"275 -10 CURVE SMOOTH"
);
}
);
width = 619;
}
);
note = u;
unicode = 0075;
},
{
glyphname = v;
lastChange = "2018-03-10 08:40:14 +0000";
layers = (
{
anchors = (
{
name = bottom;
position = "{328, 0}";
},
{
name = top;
position = "{328, 470}";
}
);
layerId = "0B1DFD06-3317-40CA-B510-4969A0718C16";
paths = (
{
closed = 1;
nodes = (
"413 -10 OFFCURVE",
"450 46 OFFCURVE",
"470 101 CURVE SMOOTH",
"599 464 LINE",
"604 479 OFFCURVE",
"597 495 OFFCURVE",
"582 500 CURVE",
"569 505 OFFCURVE",
"553 497 OFFCURVE",
"549 483 CURVE",
"421 122 LINE SMOOTH",
"404 75 OFFCURVE",
"379 35 OFFCURVE",
"328 35 CURVE SMOOTH",
"276 35 OFFCURVE",
"251 75 OFFCURVE",
"233 125 CURVE SMOOTH",
"106 483 LINE",
"102 497 OFFCURVE",
"86 505 OFFCURVE",
"72 500 CURVE",
"59 495 OFFCURVE",
"52 479 OFFCURVE",
"56 464 CURVE",
"184 104 LINE SMOOTH",
"205 46 OFFCURVE",
"243 -10 OFFCURVE",
"328 -10 CURVE SMOOTH"
);
}
);
width = 656;
},
{
anchors = (
{
name = bottom;
position = "{334, 0}";
},
{
name = top;
position = "{334, 470}";
}
);
layerId = "258BB4CE-589F-454F-8E39-237B943AA0B4";
paths = (
{
closed = 1;
nodes = (
"410 -10 OFFCURVE",
"473 22 OFFCURVE",
"511 123 CURVE SMOOTH",
"625 428 LINE SMOOTH",
"637 460 OFFCURVE",
"615 488 OFFCURVE",
"580 497 CURVE SMOOTH",
"542 507 OFFCURVE",
"511 496 OFFCURVE",
"500 466 CURVE SMOOTH",
"378 140 LINE SMOOTH",
"364 103 OFFCURVE",
"352 94 OFFCURVE",
"334 94 CURVE SMOOTH",
"316 94 OFFCURVE",
"304 103 OFFCURVE",
"290 140 CURVE SMOOTH",
"168 466 LINE SMOOTH",
"154 495 OFFCURVE",
"126 507 OFFCURVE",
"88 497 CURVE SMOOTH",
"53 488 OFFCURVE",
"31 460 OFFCURVE",
"43 428 CURVE SMOOTH",
"157 123 LINE SMOOTH",
"195 22 OFFCURVE",
"258 -10 OFFCURVE",
"334 -10 CURVE SMOOTH"
);
}
);
width = 668;
},
{
anchors = (
{
name = bottom;
position = "{326, 0}";
},
{
name = top;
position = "{326, 470}";
}
);
layerId = "8ED59CAD-D047-43C0-8308-3370007B39AA";
paths = (
{
closed = 1;
nodes = (
"408 -10 OFFCURVE",
"455 36 OFFCURVE",
"482 110 CURVE SMOOTH",
"605 450 LINE",
"613 471 OFFCURVE",
"600 492 OFFCURVE",
"577 499 CURVE",
"554 506 OFFCURVE",
"532 497 OFFCURVE",
"525 476 CURVE",
"400 129 LINE SMOOTH",
"384 86 OFFCURVE",
"364 59 OFFCURVE",
"326 59 CURVE SMOOTH",
"288 59 OFFCURVE",
"268 86 OFFCURVE",
"252 131 CURVE SMOOTH",
"127 476 LINE",
"119 496 OFFCURVE",
"98 506 OFFCURVE",
"74 499 CURVE",
"53 492 OFFCURVE",
"40 471 OFFCURVE",
"47 450 CURVE",
"169 112 LINE SMOOTH",
"197 36 OFFCURVE",
"245 -10 OFFCURVE",
"326 -10 CURVE SMOOTH"
);
}
);
width = 652;
}
);
note = v;
unicode = 0076;
},
{
glyphname = w;
lastChange = "2018-03-10 08:40:14 +0000";
layers = (
{
anchors = (
{
name = bottom;
position = "{386, 0}";
},
{
name = top;
position = "{386, 470}";
}
);
layerId = "0B1DFD06-3317-40CA-B510-4969A0718C16";
paths = (
{
closed = 1;
nodes = (
"255 -10 OFFCURVE",
"294 2 OFFCURVE",
"304 64 CURVE SMOOTH",
"365 424 LINE SMOOTH",
"368 444 OFFCURVE",
"376 452 OFFCURVE",
"386 452 CURVE SMOOTH",
"396 452 OFFCURVE",
"404 444 OFFCURVE",
"407 424 CURVE SMOOTH",
"468 64 LINE SMOOTH",
"478 2 OFFCURVE",
"517 -10 OFFCURVE",
"552 -10 CURVE SMOOTH",
"574 -10 OFFCURVE",
"626 2 OFFCURVE",
"638 64 CURVE SMOOTH",
"717 475 LINE SMOOTH",
"720 490 OFFCURVE",
"707 500 OFFCURVE",
"695 500 CURVE SMOOTH",
"671 500 OFFCURVE",
"669 494 OFFCURVE",
"666 479 CURVE SMOOTH",
"588 78 LINE SMOOTH",
"583 51 OFFCURVE",
"571 38 OFFCURVE",
"552 38 CURVE SMOOTH",
"526 38 OFFCURVE",
"518 51 OFFCURVE",
"514 78 CURVE SMOOTH",
"454 438 LINE SMOOTH",
"447 482 OFFCURVE",
"410 500 OFFCURVE",
"386 500 CURVE SMOOTH",
"362 500 OFFCURVE",
"325 482 OFFCURVE",
"318 438 CURVE SMOOTH",
"258 78 LINE SMOOTH",
"254 51 OFFCURVE",
"246 38 OFFCURVE",
"220 38 CURVE SMOOTH",
"201 38 OFFCURVE",
"189 51 OFFCURVE",
"184 78 CURVE SMOOTH",
"106 479 LINE SMOOTH",
"103 494 OFFCURVE",
"101 500 OFFCURVE",
"77 500 CURVE SMOOTH",
"65 500 OFFCURVE",
"52 490 OFFCURVE",
"55 475 CURVE SMOOTH",
"134 64 LINE SMOOTH",
"146 2 OFFCURVE",
"198 -10 OFFCURVE",
"220 -10 CURVE SMOOTH"
);
}
);
width = 772;
},
{
anchors = (
{
name = bottom;
position = "{424, 0}";
},
{
name = top;
position = "{424, 470}";
}
);
layerId = "258BB4CE-589F-454F-8E39-237B943AA0B4";
paths = (
{
closed = 1;
nodes = (
"331 -10 OFFCURVE",
"365 42 OFFCURVE",
"377 130 CURVE SMOOTH",
"410 376 LINE SMOOTH",
"412 393 OFFCURVE",
"417 396 OFFCURVE",
"424 396 CURVE SMOOTH",
"431 396 OFFCURVE",
"436 393 OFFCURVE",
"438 376 CURVE SMOOTH",
"471 130 LINE SMOOTH",
"483 42 OFFCURVE",
"517 -10 OFFCURVE",
"596 -10 CURVE SMOOTH",
"673 -10 OFFCURVE",
"718 38 OFFCURVE",
"737 122 CURVE SMOOTH",
"806 432 LINE SMOOTH",
"816 477 OFFCURVE",
"786 500 OFFCURVE",
"741 500 CURVE SMOOTH",
"702 500 OFFCURVE",
"671 484 OFFCURVE",
"665 447 CURVE SMOOTH",
"610 115 LINE SMOOTH",
"608 101 OFFCURVE",
"603 94 OFFCURVE",
"596 94 CURVE SMOOTH",
"588 94 OFFCURVE",
"583 101 OFFCURVE",
"581 114 CURVE SMOOTH",
"543 390 LINE SMOOTH",
"533 462 OFFCURVE",
"488 500 OFFCURVE",
"424 500 CURVE SMOOTH",
"360 500 OFFCURVE",
"315 462 OFFCURVE",
"305 390 CURVE SMOOTH",
"267 114 LINE SMOOTH",
"265 101 OFFCURVE",
"260 94 OFFCURVE",
"252 94 CURVE SMOOTH",
"245 94 OFFCURVE",
"240 101 OFFCURVE",
"238 115 CURVE SMOOTH",
"183 447 LINE SMOOTH",
"177 484 OFFCURVE",
"146 500 OFFCURVE",
"107 500 CURVE SMOOTH",
"62 500 OFFCURVE",
"32 477 OFFCURVE",
"42 432 CURVE SMOOTH",
"111 122 LINE SMOOTH",
"130 38 OFFCURVE",
"175 -10 OFFCURVE",
"252 -10 CURVE SMOOTH"
);
}
);
width = 848;
},
{
anchors = (
{
name = bottom;
position = "{397, 0}";
},
{
name = top;
position = "{397, 470}";
}
);
layerId = "8ED59CAD-D047-43C0-8308-3370007B39AA";
paths = (
{
closed = 1;
nodes = (
"281 -10 OFFCURVE",
"318 18 OFFCURVE",
"329 90 CURVE SMOOTH",
"379 405 LINE SMOOTH",
"382 424 OFFCURVE",
"388 430 OFFCURVE",
"397 430 CURVE SMOOTH",
"406 430 OFFCURVE",
"413 424 OFFCURVE",
"415 405 CURVE SMOOTH",
"465 90 LINE SMOOTH",
"476 18 OFFCURVE",
"513 -10 OFFCURVE",
"566 -10 CURVE SMOOTH",
"610 -10 OFFCURVE",
"659 16 OFFCURVE",
"674 87 CURVE SMOOTH",
"749 458 LINE SMOOTH",
"754 485 OFFCURVE",
"735 500 OFFCURVE",
"709 500 CURVE SMOOTH",
"679 500 OFFCURVE",
"666 490 OFFCURVE",
"662 466 CURVE SMOOTH",
"593 93 LINE SMOOTH",
"589 71 OFFCURVE",
"580 60 OFFCURVE",
"566 60 CURVE SMOOTH",
"547 60 OFFCURVE",
"540 71 OFFCURVE",
"537 92 CURVE SMOOTH",
"486 419 LINE SMOOTH",
"477 474 OFFCURVE",
"437 500 OFFCURVE",
"397 500 CURVE SMOOTH",
"357 500 OFFCURVE",
"317 474 OFFCURVE",
"309 419 CURVE SMOOTH",
"258 92 LINE SMOOTH",
"254 71 OFFCURVE",
"248 60 OFFCURVE",
"229 60 CURVE SMOOTH",
"215 60 OFFCURVE",
"205 71 OFFCURVE",
"202 93 CURVE SMOOTH",
"133 466 LINE SMOOTH",
"129 490 OFFCURVE",
"115 500 OFFCURVE",
"85 500 CURVE SMOOTH",
"60 500 OFFCURVE",
"40 485 OFFCURVE",
"46 458 CURVE SMOOTH",
"121 87 LINE SMOOTH",
"136 16 OFFCURVE",
"185 -10 OFFCURVE",
"229 -10 CURVE SMOOTH"
);
}
);
width = 795;
}
);
note = w;
unicode = 0077;
},
{
glyphname = x;
lastChange = "2018-03-10 08:40:14 +0000";
layers = (
{
anchors = (
{
name = bottom;
position = "{280, 0}";
},
{
name = top;
position = "{280, 470}";
}
);
layerId = "0B1DFD06-3317-40CA-B510-4969A0718C16";
paths = (
{
closed = 1;
nodes = (
"74 -13 OFFCURVE",
"94 -10 OFFCURVE",
"103 4 CURVE SMOOTH",
"209 169 LINE SMOOTH",
"230 202 OFFCURVE",
"244 227 OFFCURVE",
"280 227 CURVE SMOOTH",
"316 227 OFFCURVE",
"330 202 OFFCURVE",
"351 169 CURVE SMOOTH",
"457 4 LINE SMOOTH",
"466 -10 OFFCURVE",
"486 -13 OFFCURVE",
"497 -3 CURVE SMOOTH",
"509 8 OFFCURVE",
"506 25 OFFCURVE",
"497 38 CURVE SMOOTH",
"389 200 LINE SMOOTH",
"377 219 OFFCURVE",
"362 238 OFFCURVE",
"337 252 CURVE",
"364 266 OFFCURVE",
"378 281 OFFCURVE",
"391 302 CURVE SMOOTH",
"487 453 LINE SMOOTH",
"495 466 OFFCURVE",
"498 484 OFFCURVE",
"485 494 CURVE SMOOTH",
"474 503 OFFCURVE",
"457 502 OFFCURVE",
"447 489 CURVE",
"352 334 LINE SMOOTH",
"329 296 OFFCURVE",
"310 278 OFFCURVE",
"280 278 CURVE SMOOTH",
"250 278 OFFCURVE",
"231 296 OFFCURVE",
"208 334 CURVE SMOOTH",
"113 489 LINE",
"103 502 OFFCURVE",
"86 503 OFFCURVE",
"75 494 CURVE SMOOTH",
"62 484 OFFCURVE",
"65 466 OFFCURVE",
"73 453 CURVE SMOOTH",
"169 302 LINE SMOOTH",
"182 281 OFFCURVE",
"196 266 OFFCURVE",
"223 252 CURVE",
"198 238 OFFCURVE",
"183 219 OFFCURVE",
"171 200 CURVE SMOOTH",
"63 38 LINE SMOOTH",
"54 25 OFFCURVE",
"51 8 OFFCURVE",
"63 -3 CURVE SMOOTH"
);
}
);
width = 560;
},
{
anchors = (
{
name = bottom;
position = "{306, 0}";
},
{
name = top;
position = "{306, 470}";
}
);
layerId = "258BB4CE-589F-454F-8E39-237B943AA0B4";
paths = (
{
closed = 1;
nodes = (
"96 -19 OFFCURVE",
"138 -12 OFFCURVE",
"159 17 CURVE SMOOTH",
"256 149 LINE SMOOTH",
"279 180 OFFCURVE",
"288 194 OFFCURVE",
"296 194 CURVE SMOOTH",
"304 194 OFFCURVE",
"313 180 OFFCURVE",
"336 149 CURVE SMOOTH",
"433 17 LINE SMOOTH",
"454 -12 OFFCURVE",
"496 -19 OFFCURVE",
"523 3 CURVE SMOOTH",
"551 25 OFFCURVE",
"562 56 OFFCURVE",
"541 82 CURVE SMOOTH",
"450 195 LINE SMOOTH",
"429 221 OFFCURVE",
"410 239 OFFCURVE",
"394 251 CURVE",
"412 264 OFFCURVE",
"428 277 OFFCURVE",
"451 306 CURVE SMOOTH",
"532 407 LINE SMOOTH",
"551 431 OFFCURVE",
"542 463 OFFCURVE",
"512 487 CURVE SMOOTH",
"485 509 OFFCURVE",
"440 501 OFFCURVE",
"421 475 CURVE SMOOTH",
"331 353 LINE SMOOTH",
"309 323 OFFCURVE",
"305 315 OFFCURVE",
"296 315 CURVE SMOOTH",
"287 315 OFFCURVE",
"283 323 OFFCURVE",
"261 353 CURVE SMOOTH",
"171 475 LINE SMOOTH",
"152 501 OFFCURVE",
"107 509 OFFCURVE",
"80 487 CURVE SMOOTH",
"50 463 OFFCURVE",
"41 431 OFFCURVE",
"60 407 CURVE SMOOTH",
"141 306 LINE SMOOTH",
"164 277 OFFCURVE",
"180 264 OFFCURVE",
"198 251 CURVE",
"182 239 OFFCURVE",
"163 221 OFFCURVE",
"142 195 CURVE SMOOTH",
"51 82 LINE SMOOTH",
"30 56 OFFCURVE",
"41 25 OFFCURVE",
"69 3 CURVE SMOOTH"
);
}
);
width = 592;
},
{
anchors = (
{
name = bottom;
position = "{286, 0}";
},
{
name = top;
position = "{286, 470}";
}
);
layerId = "8ED59CAD-D047-43C0-8308-3370007B39AA";
paths = (
{
closed = 1;
nodes = (
"79 -15 OFFCURVE",
"108 -11 OFFCURVE",
"121 9 CURVE SMOOTH",
"224 161 LINE SMOOTH",
"246 193 OFFCURVE",
"258 214 OFFCURVE",
"282 214 CURVE SMOOTH",
"307 214 OFFCURVE",
"319 193 OFFCURVE",
"341 161 CURVE SMOOTH",
"443 9 LINE SMOOTH",
"457 -11 OFFCURVE",
"486 -15 OFFCURVE",
"503 -1 CURVE SMOOTH",
"522 15 OFFCURVE",
"524 37 OFFCURVE",
"511 56 CURVE SMOOTH",
"409 198 LINE SMOOTH",
"394 220 OFFCURVE",
"377 238 OFFCURVE",
"356 252 CURVE",
"379 265 OFFCURVE",
"394 279 OFFCURVE",
"411 304 CURVE SMOOTH",
"501 435 LINE SMOOTH",
"513 452 OFFCURVE",
"512 476 OFFCURVE",
"492 491 CURVE SMOOTH",
"474 505 OFFCURVE",
"446 502 OFFCURVE",
"433 483 CURVE SMOOTH",
"340 342 LINE SMOOTH",
"317 307 OFFCURVE",
"304 293 OFFCURVE",
"282 293 CURVE SMOOTH",
"261 293 OFFCURVE",
"248 307 OFFCURVE",
"225 342 CURVE SMOOTH",
"132 483 LINE SMOOTH",
"119 502 OFFCURVE",
"90 505 OFFCURVE",
"73 491 CURVE SMOOTH",
"53 476 OFFCURVE",
"51 452 OFFCURVE",
"64 435 CURVE SMOOTH",
"154 304 LINE SMOOTH",
"171 279 OFFCURVE",
"186 265 OFFCURVE",
"209 252 CURVE",
"188 238 OFFCURVE",
"171 220 OFFCURVE",
"155 198 CURVE SMOOTH",
"54 56 LINE SMOOTH",
"40 37 OFFCURVE",
"43 15 OFFCURVE",
"61 -1 CURVE SMOOTH"
);
}
);
width = 564;
}
);
note = x;
unicode = 0078;
},
{
glyphname = y;
lastChange = "2018-03-10 08:40:14 +0000";
layers = (
{
anchors = (
{
name = bottom;
position = "{325, 0}";
},
{
name = top;
position = "{325, 470}";
}
);
layerId = "0B1DFD06-3317-40CA-B510-4969A0718C16";
paths = (
{
closed = 1;
nodes = (
"448 -250 OFFCURVE",
"570 -151 OFFCURVE",
"570 17 CURVE SMOOTH",
"570 461 LINE SMOOTH",
"570 476 OFFCURVE",
"567 500 OFFCURVE",
"541 500 CURVE SMOOTH",
"515 500 OFFCURVE",
"511 476 OFFCURVE",
"511 461 CURVE SMOOTH",
"511 256 LINE SMOOTH",
"511 125 OFFCURVE",
"446 43 OFFCURVE",
"312 43 CURVE SMOOTH",
"186 43 OFFCURVE",
"108 122 OFFCURVE",
"108 266 CURVE SMOOTH",
"108 471 LINE SMOOTH",
"108 487 OFFCURVE",
"96 499 OFFCURVE",
"82 499 CURVE SMOOTH",
"66 499 OFFCURVE",
"55 487 OFFCURVE",
"55 471 CURVE SMOOTH",
"55 266 LINE SMOOTH",
"55 109 OFFCURVE",
"140 -1 OFFCURVE",
"312 -1 CURVE SMOOTH",
"408 -1 OFFCURVE",
"475 35 OFFCURVE",
"516 95 CURVE",
"516 17 LINE SMOOTH",
"516 -121 OFFCURVE",
"429 -203 OFFCURVE",
"302 -203 CURVE SMOOTH",
"231 -203 OFFCURVE",
"165 -179 OFFCURVE",
"135 -142 CURVE SMOOTH",
"126 -131 OFFCURVE",
"111 -126 OFFCURVE",
"98 -134 CURVE SMOOTH",
"85 -142 OFFCURVE",
"83 -158 OFFCURVE",
"91 -170 CURVE SMOOTH",
"128 -225 OFFCURVE",
"217 -250 OFFCURVE",
"305 -250 CURVE SMOOTH"
);
}
);
width = 650;
},
{
anchors = (
{
name = bottom;
position = "{348, 0}";
},
{
name = top;
position = "{298, 470}";
}
);
layerId = "258BB4CE-589F-454F-8E39-237B943AA0B4";
paths = (
{
closed = 1;
nodes = (
"466 -250 OFFCURVE",
"565 -151 OFFCURVE",
"565 17 CURVE SMOOTH",
"565 433 LINE SMOOTH",
"565 475 OFFCURVE",
"543 500 OFFCURVE",
"500 500 CURVE SMOOTH",
"458 500 OFFCURVE",
"434 475 OFFCURVE",
"434 433 CURVE SMOOTH",
"434 242 LINE SMOOTH",
"434 146 OFFCURVE",
"386 90 OFFCURVE",
"305 90 CURVE SMOOTH",
"221 90 OFFCURVE",
"171 146 OFFCURVE",
"171 242 CURVE SMOOTH",
"171 444 LINE SMOOTH",
"171 477 OFFCURVE",
"140 500 OFFCURVE",
"106 500 CURVE SMOOTH",
"70 500 OFFCURVE",
"40 478 OFFCURVE",
"40 444 CURVE SMOOTH",
"40 242 LINE SMOOTH",
"40 84 OFFCURVE",
"138 -10 OFFCURVE",
"305 -10 CURVE SMOOTH",
"347 -10 OFFCURVE",
"404 9 OFFCURVE",
"439 42 CURVE",
"439 0 LINE SMOOTH",
"439 -99 OFFCURVE",
"386 -147 OFFCURVE",
"295 -147 CURVE SMOOTH",
"238 -147 OFFCURVE",
"195 -129 OFFCURVE",
"169 -101 CURVE SMOOTH",
"141 -71 OFFCURVE",
"109 -66 OFFCURVE",
"84 -86 CURVE SMOOTH",
"57 -108 OFFCURVE",
"53 -138 OFFCURVE",
"74 -165 CURVE SMOOTH",
"116 -218 OFFCURVE",
"199 -250 OFFCURVE",
"298 -250 CURVE SMOOTH"
);
}
);
width = 615;
},
{
anchors = (
{
name = bottom;
position = "{330, 0}";
},
{
name = top;
position = "{310, 470}";
}
);
layerId = "8ED59CAD-D047-43C0-8308-3370007B39AA";
paths = (
{
closed = 1;
nodes = (
"451 -250 OFFCURVE",
"564 -151 OFFCURVE",
"564 17 CURVE SMOOTH",
"564 450 LINE SMOOTH",
"564 476 OFFCURVE",
"553 500 OFFCURVE",
"521 500 CURVE SMOOTH",
"488 500 OFFCURVE",
"476 476 OFFCURVE",
"476 450 CURVE SMOOTH",
"476 250 LINE SMOOTH",
"476 133 OFFCURVE",
"418 62 OFFCURVE",
"305 62 CURVE SMOOTH",
"196 62 OFFCURVE",
"129 132 OFFCURVE",
"129 256 CURVE SMOOTH",
"129 460 LINE SMOOTH",
"129 483 OFFCURVE",
"110 499 OFFCURVE",
"88 499 CURVE SMOOTH",
"64 499 OFFCURVE",
"45 483 OFFCURVE",
"45 460 CURVE SMOOTH",
"45 256 LINE SMOOTH",
"45 99 OFFCURVE",
"135 -5 OFFCURVE",
"305 -5 CURVE SMOOTH",
"380 -5 OFFCURVE",
"443 25 OFFCURVE",
"481 74 CURVE",
"481 10 LINE SMOOTH",
"481 -112 OFFCURVE",
"408 -181 OFFCURVE",
"295 -181 CURVE SMOOTH",
"230 -181 OFFCURVE",
"173 -159 OFFCURVE",
"145 -126 CURVE SMOOTH",
"128 -107 OFFCURVE",
"106 -102 OFFCURVE",
"88 -115 CURVE SMOOTH",
"70 -128 OFFCURVE",
"67 -150 OFFCURVE",
"80 -168 CURVE SMOOTH",
"119 -222 OFFCURVE",
"206 -250 OFFCURVE",
"298 -250 CURVE SMOOTH"
);
}
);
width = 634;
}
);
note = y;
unicode = 0079;
},
{
glyphname = z;
lastChange = "2018-03-10 08:40:14 +0000";
layers = (
{
anchors = (
{
name = bottom;
position = "{272, 0}";
},
{
name = top;
position = "{272, 470}";
}
);
layerId = "0B1DFD06-3317-40CA-B510-4969A0718C16";
paths = (
{
closed = 1;
nodes = (
"454 0 LINE SMOOTH",
"480 0 OFFCURVE",
"493 7 OFFCURVE",
"493 25 CURVE SMOOTH",
"493 43 OFFCURVE",
"480 49 OFFCURVE",
"454 49 CURVE SMOOTH",
"158 49 LINE SMOOTH",
"120 49 OFFCURVE",
"102 63 OFFCURVE",
"102 88 CURVE SMOOTH",
"102 109 OFFCURVE",
"120 128 OFFCURVE",
"147 145 CURVE SMOOTH",
"429 319 LINE SMOOTH",
"467 343 OFFCURVE",
"488 367 OFFCURVE",
"488 410 CURVE SMOOTH",
"488 472 OFFCURVE",
"438 500 OFFCURVE",
"370 500 CURVE SMOOTH",
"94 500 LINE SMOOTH",
"68 500 OFFCURVE",
"55 494 OFFCURVE",
"55 475 CURVE SMOOTH",
"55 458 OFFCURVE",
"68 451 OFFCURVE",
"94 451 CURVE SMOOTH",
"379 451 LINE SMOOTH",
"424 451 OFFCURVE",
"439 434 OFFCURVE",
"439 410 CURVE SMOOTH",
"439 387 OFFCURVE",
"428 374 OFFCURVE",
"396 354 CURVE SMOOTH",
"114 177 LINE SMOOTH",
"75 152 OFFCURVE",
"55 131 OFFCURVE",
"55 88 CURVE SMOOTH",
"55 26 OFFCURVE",
"97 0 OFFCURVE",
"165 0 CURVE SMOOTH"
);
}
);
width = 548;
},
{
anchors = (
{
name = bottom;
position = "{287, 0}";
},
{
name = top;
position = "{287, 470}";
}
);
layerId = "258BB4CE-589F-454F-8E39-237B943AA0B4";
paths = (
{
closed = 1;
nodes = (
"477 0 LINE SMOOTH",
"520 0 OFFCURVE",
"548 15 OFFCURVE",
"548 52 CURVE SMOOTH",
"548 89 OFFCURVE",
"520 103 OFFCURVE",
"477 103 CURVE SMOOTH",
"188 103 LINE SMOOTH",
"175 103 OFFCURVE",
"167 111 OFFCURVE",
"167 121 CURVE SMOOTH",
"167 132 OFFCURVE",
"174 141 OFFCURVE",
"193 149 CURVE SMOOTH",
"460 257 LINE SMOOTH",
"510 277 OFFCURVE",
"538 320 OFFCURVE",
"538 376 CURVE SMOOTH",
"538 446 OFFCURVE",
"485 490 OFFCURVE",
"396 490 CURVE SMOOTH",
"125 490 LINE SMOOTH",
"81 490 OFFCURVE",
"53 475 OFFCURVE",
"53 438 CURVE SMOOTH",
"53 402 OFFCURVE",
"83 387 OFFCURVE",
"125 387 CURVE SMOOTH",
"385 387 LINE SMOOTH",
"400 387 OFFCURVE",
"409 378 OFFCURVE",
"409 367 CURVE SMOOTH",
"409 350 OFFCURVE",
"400 343 OFFCURVE",
"385 337 CURVE SMOOTH",
"118 229 LINE SMOOTH",
"65 208 OFFCURVE",
"40 164 OFFCURVE",
"40 116 CURVE SMOOTH",
"40 42 OFFCURVE",
"96 0 OFFCURVE",
"190 0 CURVE SMOOTH"
);
}
);
width = 588;
},
{
anchors = (
{
name = bottom;
position = "{274, 0}";
},
{
name = top;
position = "{274, 470}";
}
);
layerId = "8ED59CAD-D047-43C0-8308-3370007B39AA";
paths = (
{
closed = 1;
nodes = (
"459 0 LINE SMOOTH",
"492 0 OFFCURVE",
"511 10 OFFCURVE",
"511 36 CURVE SMOOTH",
"511 61 OFFCURVE",
"492 71 OFFCURVE",
"459 71 CURVE SMOOTH",
"166 71 LINE SMOOTH",
"138 71 OFFCURVE",
"124 82 OFFCURVE",
"124 101 CURVE SMOOTH",
"124 118 OFFCURVE",
"138 133 OFFCURVE",
"161 147 CURVE SMOOTH",
"437 294 LINE SMOOTH",
"480 317 OFFCURVE",
"504 348 OFFCURVE",
"504 396 CURVE SMOOTH",
"504 462 OFFCURVE",
"453 496 OFFCURVE",
"376 496 CURVE SMOOTH",
"102 496 LINE SMOOTH",
"69 496 OFFCURVE",
"50 486 OFFCURVE",
"50 460 CURVE SMOOTH",
"50 436 OFFCURVE",
"70 425 OFFCURVE",
"102 425 CURVE SMOOTH",
"377 425 LINE SMOOTH",
"410 425 OFFCURVE",
"423 412 OFFCURVE",
"423 393 CURVE SMOOTH",
"423 372 OFFCURVE",
"413 362 OFFCURVE",
"388 347 CURVE SMOOTH",
"112 198 LINE SMOOTH",
"67 174 OFFCURVE",
"45 144 OFFCURVE",
"45 99 CURVE SMOOTH",
"45 32 OFFCURVE",
"93 0 OFFCURVE",
"171 0 CURVE SMOOTH"
);
}
);
width = 556;
}
);
note = z;
unicode = 007A;
},
{
glyphname = AE;
lastChange = "2018-03-10 08:40:14 +0000";
layers = (
{
anchors = (
{
name = bottom;
position = "{579, 0}";
},
{
name = ogonek;
position = "{862, 10}";
},
{
name = top;
position = "{579, 700}";
},
{
name = topleft;
position = "{750, 700}";
}
);
layerId = "0B1DFD06-3317-40CA-B510-4969A0718C16";
paths = (
{
closed = 1;
nodes = (
"124 -10 OFFCURVE",
"133 2 OFFCURVE",
"133 22 CURVE SMOOTH",
"133 270 LINE",
"585 270 LINE",
"585 110 LINE SMOOTH",
"585 50 OFFCURVE",
"618 0 OFFCURVE",
"700 0 CURVE SMOOTH",
"1032 0 LINE SMOOTH",
"1052 0 OFFCURVE",
"1062 8 OFFCURVE",
"1062 23 CURVE SMOOTH",
"1062 41 OFFCURVE",
"1051 47 OFFCURVE",
"1032 47 CURVE SMOOTH",
"694 47 LINE SMOOTH",
"659 47 OFFCURVE",
"637 71 OFFCURVE",
"637 107 CURVE SMOOTH",
"637 334 LINE",
"934 334 LINE SMOOTH",
"954 334 OFFCURVE",
"964 342 OFFCURVE",
"964 357 CURVE SMOOTH",
"964 375 OFFCURVE",
"953 381 OFFCURVE",
"934 381 CURVE SMOOTH",
"637 381 LINE",
"637 593 LINE SMOOTH",
"637 629 OFFCURVE",
"659 653 OFFCURVE",
"694 653 CURVE SMOOTH",
"1010 653 LINE SMOOTH",
"1030 653 OFFCURVE",
"1040 661 OFFCURVE",
"1040 676 CURVE SMOOTH",
"1040 694 OFFCURVE",
"1029 700 OFFCURVE",
"1010 700 CURVE SMOOTH",
"700 700 LINE SMOOTH",
"627 700 OFFCURVE",
"591 657 OFFCURVE",
"586 599 CURVE",
"537 674 OFFCURVE",
"459 710 OFFCURVE",
"359 710 CURVE SMOOTH",
"188 710 OFFCURVE",
"80 610 OFFCURVE",
"80 429 CURVE SMOOTH",
"80 22 LINE SMOOTH",
"80 2 OFFCURVE",
"88 -10 OFFCURVE",
"106 -10 CURVE SMOOTH"
);
},
{
closed = 1;
nodes = (
"133 432 LINE SMOOTH",
"133 581 OFFCURVE",
"215 661 OFFCURVE",
"359 661 CURVE SMOOTH",
"501 661 OFFCURVE",
"585 581 OFFCURVE",
"585 432 CURVE SMOOTH",
"585 317 LINE",
"133 317 LINE"
);
}
);
width = 1117;
},
{
anchors = (
{
name = bottom;
position = "{539, 0}";
},
{
name = ogonek;
position = "{862, 10}";
},
{
name = top;
position = "{539, 700}";
},
{
name = topleft;
position = "{750, 700}";
}
);
layerId = "258BB4CE-589F-454F-8E39-237B943AA0B4";
paths = (
{
closed = 1;
nodes = (
"149 -9 OFFCURVE",
"178 13 OFFCURVE",
"178 51 CURVE SMOOTH",
"178 214 LINE",
"540 214 LINE",
"540 152 LINE SMOOTH",
"540 56 OFFCURVE",
"590 0 OFFCURVE",
"691 0 CURVE SMOOTH",
"997 0 LINE SMOOTH",
"1033 0 OFFCURVE",
"1059 17 OFFCURVE",
"1059 51 CURVE SMOOTH",
"1059 86 OFFCURVE",
"1035 103 OFFCURVE",
"997 103 CURVE SMOOTH",
"707 103 LINE SMOOTH",
"680 103 OFFCURVE",
"664 121 OFFCURVE",
"664 152 CURVE SMOOTH",
"664 306 LINE",
"899 306 LINE SMOOTH",
"935 306 OFFCURVE",
"961 323 OFFCURVE",
"961 357 CURVE SMOOTH",
"961 392 OFFCURVE",
"937 409 OFFCURVE",
"899 409 CURVE SMOOTH",
"664 409 LINE",
"664 548 LINE SMOOTH",
"664 579 OFFCURVE",
"680 597 OFFCURVE",
"707 597 CURVE SMOOTH",
"975 597 LINE SMOOTH",
"1011 597 OFFCURVE",
"1037 614 OFFCURVE",
"1037 648 CURVE SMOOTH",
"1037 683 OFFCURVE",
"1013 700 OFFCURVE",
"975 700 CURVE SMOOTH",
"684 700 LINE SMOOTH",
"628 700 OFFCURVE",
"587 671 OFFCURVE",
"568 631 CURVE",
"515 683 OFFCURVE",
"445 710 OFFCURVE",
"359 710 CURVE SMOOTH",
"161 710 OFFCURVE",
"45 593 OFFCURVE",
"45 401 CURVE SMOOTH",
"45 51 LINE SMOOTH",
"45 13 OFFCURVE",
"72 -9 OFFCURVE",
"111 -9 CURVE SMOOTH"
);
},
{
closed = 1;
nodes = (
"178 404 LINE SMOOTH",
"178 537 OFFCURVE",
"237 605 OFFCURVE",
"359 605 CURVE SMOOTH",
"480 605 OFFCURVE",
"540 536 OFFCURVE",
"540 404 CURVE SMOOTH",
"540 317 LINE",
"178 317 LINE"
);
}
);
width = 1099;
},
{
anchors = (
{
name = bottom;
position = "{562, 0}";
},
{
name = ogonek;
position = "{861, 10}";
},
{
name = top;
position = "{562, 700}";
},
{
name = topleft;
position = "{749, 700}";
}
);
layerId = "8ED59CAD-D047-43C0-8308-3370007B39AA";
paths = (
{
closed = 1;
nodes = (
"133 -10 OFFCURVE",
"150 6 OFFCURVE",
"150 34 CURVE SMOOTH",
"150 248 LINE",
"566 248 LINE",
"566 127 LINE SMOOTH",
"566 52 OFFCURVE",
"606 0 OFFCURVE",
"695 0 CURVE SMOOTH",
"1017 0 LINE SMOOTH",
"1043 0 OFFCURVE",
"1060 12 OFFCURVE",
"1060 34 CURVE SMOOTH",
"1060 59 OFFCURVE",
"1044 69 OFFCURVE",
"1017 69 CURVE SMOOTH",
"698 69 LINE SMOOTH",
"666 69 OFFCURVE",
"647 91 OFFCURVE",
"647 125 CURVE SMOOTH",
"647 323 LINE",
"919 323 LINE SMOOTH",
"945 323 OFFCURVE",
"962 334 OFFCURVE",
"962 357 CURVE SMOOTH",
"962 382 OFFCURVE",
"946 392 OFFCURVE",
"919 392 CURVE SMOOTH",
"647 392 LINE",
"647 575 LINE SMOOTH",
"647 609 OFFCURVE",
"666 631 OFFCURVE",
"698 631 CURVE SMOOTH",
"995 631 LINE SMOOTH",
"1021 631 OFFCURVE",
"1038 642 OFFCURVE",
"1038 665 CURVE SMOOTH",
"1038 690 OFFCURVE",
"1022 700 OFFCURVE",
"995 700 CURVE SMOOTH",
"693 700 LINE SMOOTH",
"626 700 OFFCURVE",
"588 663 OFFCURVE",
"578 612 CURVE",
"527 678 OFFCURVE",
"452 710 OFFCURVE",
"358 710 CURVE SMOOTH",
"176 710 OFFCURVE",
"65 603 OFFCURVE",
"65 418 CURVE SMOOTH",
"65 34 LINE SMOOTH",
"65 6 OFFCURVE",
"81 -10 OFFCURVE",
"107 -10 CURVE SMOOTH"
);
},
{
closed = 1;
nodes = (
"150 421 LINE SMOOTH",
"150 563 OFFCURVE",
"223 639 OFFCURVE",
"358 639 CURVE SMOOTH",
"492 639 OFFCURVE",
"566 563 OFFCURVE",
"566 421 CURVE SMOOTH",
"566 317 LINE",
"150 317 LINE"
);
}
);
width = 1105;
}
);
leftKerningGroup = A;
note = AE;
rightKerningGroup = E;
unicode = 00C6;
},
{
glyphname = Eth;
lastChange = "2018-03-10 08:40:14 +0000";
layers = (
{
anchors = (
{
name = bottom;
position = "{413, 0}";
},
{
name = center;
position = "{413, 350}";
},
{
name = top;
position = "{413, 700}";
}
);
layerId = "0B1DFD06-3317-40CA-B510-4969A0718C16";
paths = (
{
closed = 1;
nodes = (
"388 0 LINE SMOOTH",
"572 0 OFFCURVE",
"720 120 OFFCURVE",
"720 349 CURVE SMOOTH",
"720 576 OFFCURVE",
"574 700 OFFCURVE",
"388 700 CURVE SMOOTH",
"247 700 LINE SMOOTH",
"165 700 OFFCURVE",
"131 650 OFFCURVE",
"131 590 CURVE SMOOTH",
"131 374 LINE",
"65 374 LINE SMOOTH",
"46 374 OFFCURVE",
"35 369 OFFCURVE",
"35 351 CURVE SMOOTH",
"35 336 OFFCURVE",
"45 329 OFFCURVE",
"65 329 CURVE SMOOTH",
"131 329 LINE",
"131 110 LINE SMOOTH",
"131 50 OFFCURVE",
"165 0 OFFCURVE",
"247 0 CURVE SMOOTH"
);
},
{
closed = 1;
nodes = (
"206 47 OFFCURVE",
"184 71 OFFCURVE",
"184 107 CURVE SMOOTH",
"184 329 LINE",
"355 329 LINE SMOOTH",
"375 329 OFFCURVE",
"385 336 OFFCURVE",
"385 351 CURVE SMOOTH",
"385 369 OFFCURVE",
"374 374 OFFCURVE",
"355 374 CURVE SMOOTH",
"184 374 LINE",
"184 593 LINE SMOOTH",
"184 629 OFFCURVE",
"206 653 OFFCURVE",
"241 653 CURVE SMOOTH",
"378 653 LINE SMOOTH",
"529 653 OFFCURVE",
"666 568 OFFCURVE",
"666 349 CURVE SMOOTH",
"666 132 OFFCURVE",
"531 47 OFFCURVE",
"378 47 CURVE SMOOTH",
"241 47 LINE SMOOTH"
);
}
);
width = 775;
},
{
anchors = (
{
name = bottom;
position = "{436, 0}";
},
{
name = center;
position = "{436, 350}";
},
{
name = top;
position = "{436, 700}";
}
);
layerId = "258BB4CE-589F-454F-8E39-237B943AA0B4";
paths = (
{
closed = 1;
nodes = (
"417 0 LINE SMOOTH",
"640 0 OFFCURVE",
"789 121 OFFCURVE",
"789 349 CURVE SMOOTH",
"789 577 OFFCURVE",
"640 700 OFFCURVE",
"417 700 CURVE SMOOTH",
"277 700 LINE SMOOTH",
"181 700 OFFCURVE",
"124 645 OFFCURVE",
"124 552 CURVE SMOOTH",
"124 401 LINE",
"85 401 LINE SMOOTH",
"43 401 OFFCURVE",
"20 381 OFFCURVE",
"20 349 CURVE SMOOTH",
"20 318 OFFCURVE",
"44 298 OFFCURVE",
"85 298 CURVE SMOOTH",
"124 298 LINE",
"124 152 LINE SMOOTH",
"124 56 OFFCURVE",
"183 0 OFFCURVE",
"284 0 CURVE SMOOTH"
);
},
{
closed = 1;
nodes = (
"273 103 OFFCURVE",
"257 121 OFFCURVE",
"257 152 CURVE SMOOTH",
"257 298 LINE",
"411 298 LINE SMOOTH",
"452 298 OFFCURVE",
"476 318 OFFCURVE",
"476 349 CURVE SMOOTH",
"476 381 OFFCURVE",
"453 401 OFFCURVE",
"411 401 CURVE SMOOTH",
"257 401 LINE",
"257 548 LINE SMOOTH",
"257 579 OFFCURVE",
"273 597 OFFCURVE",
"300 597 CURVE SMOOTH",
"407 597 LINE SMOOTH",
"564 597 OFFCURVE",
"654 524 OFFCURVE",
"654 349 CURVE SMOOTH",
"654 174 OFFCURVE",
"565 103 OFFCURVE",
"407 103 CURVE SMOOTH",
"300 103 LINE SMOOTH"
);
}
);
width = 829;
},
{
anchors = (
{
name = bottom;
position = "{428, 0}";
},
{
name = center;
position = "{428, 350}";
},
{
name = top;
position = "{428, 700}";
}
);
layerId = "8ED59CAD-D047-43C0-8308-3370007B39AA";
paths = (
{
closed = 1;
nodes = (
"406 0 LINE SMOOTH",
"605 0 OFFCURVE",
"754 120 OFFCURVE",
"754 349 CURVE SMOOTH",
"754 576 OFFCURVE",
"606 700 OFFCURVE",
"406 700 CURVE SMOOTH",
"265 700 LINE SMOOTH",
"177 700 OFFCURVE",
"134 648 OFFCURVE",
"134 575 CURVE SMOOTH",
"134 385 LINE",
"79 385 LINE SMOOTH",
"51 385 OFFCURVE",
"35 374 OFFCURVE",
"35 350 CURVE SMOOTH",
"35 329 OFFCURVE",
"51 317 OFFCURVE",
"79 317 CURVE SMOOTH",
"134 317 LINE",
"134 127 LINE SMOOTH",
"134 52 OFFCURVE",
"178 0 OFFCURVE",
"268 0 CURVE SMOOTH"
);
},
{
closed = 1;
nodes = (
"239 69 OFFCURVE",
"219 91 OFFCURVE",
"219 125 CURVE SMOOTH",
"219 317 LINE",
"383 317 LINE SMOOTH",
"412 317 OFFCURVE",
"427 329 OFFCURVE",
"427 350 CURVE SMOOTH",
"427 374 OFFCURVE",
"412 385 OFFCURVE",
"383 385 CURVE SMOOTH",
"219 385 LINE",
"219 575 LINE SMOOTH",
"219 609 OFFCURVE",
"239 631 OFFCURVE",
"271 631 CURVE SMOOTH",
"396 631 LINE SMOOTH",
"549 631 OFFCURVE",
"667 550 OFFCURVE",
"667 349 CURVE SMOOTH",
"667 149 OFFCURVE",
"551 69 OFFCURVE",
"396 69 CURVE SMOOTH",
"271 69 LINE SMOOTH"
);
}
);
width = 799;
}
);
note = Eth;
rightKerningGroup = D;
unicode = 00D0;
},
{
glyphname = Dcroat;
lastChange = "2018-03-10 08:40:14 +0000";
layers = (
{
layerId = "0B1DFD06-3317-40CA-B510-4969A0718C16";
paths = (
{
closed = 1;
nodes = (
"388 0 LINE SMOOTH",
"572 0 OFFCURVE",
"720 120 OFFCURVE",
"720 349 CURVE SMOOTH",
"720 576 OFFCURVE",
"574 700 OFFCURVE",
"388 700 CURVE SMOOTH",
"247 700 LINE SMOOTH",
"165 700 OFFCURVE",
"131 650 OFFCURVE",
"131 590 CURVE SMOOTH",
"131 374 LINE",
"65 374 LINE SMOOTH",
"46 374 OFFCURVE",
"35 369 OFFCURVE",
"35 351 CURVE SMOOTH",
"35 336 OFFCURVE",
"45 329 OFFCURVE",
"65 329 CURVE SMOOTH",
"131 329 LINE",
"131 110 LINE SMOOTH",
"131 50 OFFCURVE",
"165 0 OFFCURVE",
"247 0 CURVE SMOOTH"
);
},
{
closed = 1;
nodes = (
"206 47 OFFCURVE",
"184 71 OFFCURVE",
"184 107 CURVE SMOOTH",
"184 329 LINE",
"355 329 LINE SMOOTH",
"375 329 OFFCURVE",
"385 336 OFFCURVE",
"385 351 CURVE SMOOTH",
"385 369 OFFCURVE",
"374 374 OFFCURVE",
"355 374 CURVE SMOOTH",
"184 374 LINE",
"184 593 LINE SMOOTH",
"184 629 OFFCURVE",
"206 653 OFFCURVE",
"241 653 CURVE SMOOTH",
"378 653 LINE SMOOTH",
"529 653 OFFCURVE",
"666 568 OFFCURVE",
"666 349 CURVE SMOOTH",
"666 132 OFFCURVE",
"531 47 OFFCURVE",
"378 47 CURVE SMOOTH",
"241 47 LINE SMOOTH"
);
}
);
width = 775;
},
{
layerId = "258BB4CE-589F-454F-8E39-237B943AA0B4";
paths = (
{
closed = 1;
nodes = (
"417 0 LINE SMOOTH",
"640 0 OFFCURVE",
"789 121 OFFCURVE",
"789 349 CURVE SMOOTH",
"789 577 OFFCURVE",
"640 700 OFFCURVE",
"417 700 CURVE SMOOTH",
"277 700 LINE SMOOTH",
"181 700 OFFCURVE",
"124 645 OFFCURVE",
"124 552 CURVE SMOOTH",
"124 401 LINE",
"85 401 LINE SMOOTH",
"43 401 OFFCURVE",
"20 381 OFFCURVE",
"20 349 CURVE SMOOTH",
"20 318 OFFCURVE",
"44 298 OFFCURVE",
"85 298 CURVE SMOOTH",
"124 298 LINE",
"124 152 LINE SMOOTH",
"124 56 OFFCURVE",
"183 0 OFFCURVE",
"284 0 CURVE SMOOTH"
);
},
{
closed = 1;
nodes = (
"273 103 OFFCURVE",
"257 121 OFFCURVE",
"257 152 CURVE SMOOTH",
"257 298 LINE",
"411 298 LINE SMOOTH",
"452 298 OFFCURVE",
"476 318 OFFCURVE",
"476 349 CURVE SMOOTH",
"476 381 OFFCURVE",
"453 401 OFFCURVE",
"411 401 CURVE SMOOTH",
"257 401 LINE",
"257 548 LINE SMOOTH",
"257 579 OFFCURVE",
"273 597 OFFCURVE",
"300 597 CURVE SMOOTH",
"407 597 LINE SMOOTH",
"564 597 OFFCURVE",
"654 524 OFFCURVE",
"654 349 CURVE SMOOTH",
"654 174 OFFCURVE",
"565 103 OFFCURVE",
"407 103 CURVE SMOOTH",
"300 103 LINE SMOOTH"
);
}
);
width = 829;
},
{
layerId = "8ED59CAD-D047-43C0-8308-3370007B39AA";
paths = (
{
closed = 1;
nodes = (
"406 0 LINE SMOOTH",
"605 0 OFFCURVE",
"754 120 OFFCURVE",
"754 349 CURVE SMOOTH",
"754 576 OFFCURVE",
"606 700 OFFCURVE",
"406 700 CURVE SMOOTH",
"265 700 LINE SMOOTH",
"177 700 OFFCURVE",
"134 648 OFFCURVE",
"134 575 CURVE SMOOTH",
"134 385 LINE",
"79 385 LINE SMOOTH",
"51 385 OFFCURVE",
"35 374 OFFCURVE",
"35 350 CURVE SMOOTH",
"35 329 OFFCURVE",
"51 317 OFFCURVE",
"79 317 CURVE SMOOTH",
"134 317 LINE",
"134 127 LINE SMOOTH",
"134 52 OFFCURVE",
"178 0 OFFCURVE",
"268 0 CURVE SMOOTH"
);
},
{
closed = 1;
nodes = (
"239 69 OFFCURVE",
"219 91 OFFCURVE",
"219 125 CURVE SMOOTH",
"219 317 LINE",
"383 317 LINE SMOOTH",
"412 317 OFFCURVE",
"427 329 OFFCURVE",
"427 350 CURVE SMOOTH",
"427 374 OFFCURVE",
"412 385 OFFCURVE",
"383 385 CURVE SMOOTH",
"219 385 LINE",
"219 575 LINE SMOOTH",
"219 609 OFFCURVE",
"239 631 OFFCURVE",
"271 631 CURVE SMOOTH",
"396 631 LINE SMOOTH",
"549 631 OFFCURVE",
"667 550 OFFCURVE",
"667 349 CURVE SMOOTH",
"667 149 OFFCURVE",
"551 69 OFFCURVE",
"396 69 CURVE SMOOTH",
"271 69 LINE SMOOTH"
);
}
);
width = 799;
}
);
note = Dcroat;
rightKerningGroup = D;
unicode = 0110;
},
{
glyphname = Eacute;
lastChange = "2018-03-10 08:40:14 +0000";
layers = (
{
background = {
paths = (
{
closed = 1;
nodes = (
"554 0 LINE",
"571 179 LINE",
"544 179 LINE",
"538 124 OFFCURVE",
"520 40 OFFCURVE",
"456 40 CURVE SMOOTH",
"201 40 LINE",
"201 659 LINE",
"441 659 LINE SMOOTH",
"516 659 OFFCURVE",
"525 567 OFFCURVE",
"528 527 CURVE",
"555 527 LINE",
"555 700 LINE",
"16 700 LINE",
"16 673 LINE",
"44 673 LINE SMOOTH",
"83 673 OFFCURVE",
"103 662 OFFCURVE",
"103 637 CURVE SMOOTH",
"103 62 LINE SMOOTH",
"103 37 OFFCURVE",
"83 26 OFFCURVE",
"44 26 CURVE SMOOTH",
"16 26 LINE",
"16 0 LINE"
);
},
{
closed = 1;
nodes = (
"455 251 LINE",
"455 485 LINE",
"431 485 LINE",
"427 436 OFFCURVE",
"424 388 OFFCURVE",
"379 388 CURVE SMOOTH",
"162 388 LINE",
"162 348 LINE",
"379 348 LINE SMOOTH",
"424 348 OFFCURVE",
"427 300 OFFCURVE",
"431 251 CURVE"
);
},
{
closed = 1;
nodes = (
"398 865 LINE SMOOTH",
"420 877 OFFCURVE",
"432 890 OFFCURVE",
"432 907 CURVE SMOOTH",
"432 922 OFFCURVE",
"420 937 OFFCURVE",
"398 937 CURVE SMOOTH",
"377 937 OFFCURVE",
"362 921 OFFCURVE",
"354 914 CURVE SMOOTH",
"239 807 LINE",
"256 782 LINE"
);
}
);
};
components = (
{
name = E;
},
{
name = acute;
transform = "{1, 0, 0, 1, 236, 230}";
}
);
layerId = "0B1DFD06-3317-40CA-B510-4969A0718C16";
width = 613;
},
{
background = {
paths = (
{
closed = 1;
nodes = (
"554 0 LINE",
"571 179 LINE",
"544 179 LINE",
"538 124 OFFCURVE",
"520 40 OFFCURVE",
"456 40 CURVE SMOOTH",
"201 40 LINE",
"201 659 LINE",
"441 659 LINE SMOOTH",
"516 659 OFFCURVE",
"525 567 OFFCURVE",
"528 527 CURVE",
"555 527 LINE",
"555 700 LINE",
"16 700 LINE",
"16 673 LINE",
"44 673 LINE SMOOTH",
"83 673 OFFCURVE",
"103 662 OFFCURVE",
"103 637 CURVE SMOOTH",
"103 62 LINE SMOOTH",
"103 37 OFFCURVE",
"83 26 OFFCURVE",
"44 26 CURVE SMOOTH",
"16 26 LINE",
"16 0 LINE"
);
},
{
closed = 1;
nodes = (
"455 251 LINE",
"455 485 LINE",
"431 485 LINE",
"427 436 OFFCURVE",
"424 388 OFFCURVE",
"379 388 CURVE SMOOTH",
"162 388 LINE",
"162 348 LINE",
"379 348 LINE SMOOTH",
"424 348 OFFCURVE",
"427 300 OFFCURVE",
"431 251 CURVE"
);
},
{
closed = 1;
nodes = (
"398 865 LINE SMOOTH",
"420 877 OFFCURVE",
"432 890 OFFCURVE",
"432 907 CURVE SMOOTH",
"432 922 OFFCURVE",
"420 937 OFFCURVE",
"398 937 CURVE SMOOTH",
"377 937 OFFCURVE",
"362 921 OFFCURVE",
"354 914 CURVE SMOOTH",
"239 807 LINE",
"256 782 LINE"
);
}
);
};
components = (
{
name = E;
},
{
name = acute;
transform = "{1, 0, 0, 1, 246, 220}";
}
);
layerId = "258BB4CE-589F-454F-8E39-237B943AA0B4";
width = 638;
},
{
components = (
{
name = E;
},
{
name = acute;
transform = "{1, 0, 0, 1, 246, 226}";
}
);
layerId = "8ED59CAD-D047-43C0-8308-3370007B39AA";
width = 621;
}
);
note = Eacute;
rightKerningGroup = E;
unicode = 00C9;
},
{
glyphname = Ebreve;
lastChange = "2018-03-10 08:40:14 +0000";
layers = (
{
background = {
paths = (
{
closed = 1;
nodes = (
"554 0 LINE",
"571 179 LINE",
"544 179 LINE",
"538 124 OFFCURVE",
"520 40 OFFCURVE",
"456 40 CURVE SMOOTH",
"201 40 LINE",
"201 659 LINE",
"441 659 LINE SMOOTH",
"516 659 OFFCURVE",
"525 567 OFFCURVE",
"528 527 CURVE",
"555 527 LINE",
"555 700 LINE",
"16 700 LINE",
"16 673 LINE",
"44 673 LINE SMOOTH",
"83 673 OFFCURVE",
"103 662 OFFCURVE",
"103 637 CURVE SMOOTH",
"103 62 LINE SMOOTH",
"103 37 OFFCURVE",
"83 26 OFFCURVE",
"44 26 CURVE SMOOTH",
"16 26 LINE",
"16 0 LINE"
);
},
{
closed = 1;
nodes = (
"455 251 LINE",
"455 485 LINE",
"431 485 LINE",
"427 436 OFFCURVE",
"424 388 OFFCURVE",
"379 388 CURVE SMOOTH",
"162 388 LINE",
"162 348 LINE",
"379 348 LINE SMOOTH",
"424 348 OFFCURVE",
"427 300 OFFCURVE",
"431 251 CURVE"
);
},
{
closed = 1;
nodes = (
"432 776 OFFCURVE",
"474 832 OFFCURVE",
"478 907 CURVE",
"445 907 LINE",
"439 848 OFFCURVE",
"397 822 OFFCURVE",
"333 822 CURVE SMOOTH",
"269 822 OFFCURVE",
"226 848 OFFCURVE",
"219 907 CURVE",
"186 907 LINE",
"190 829 OFFCURVE",
"232 776 OFFCURVE",
"333 776 CURVE SMOOTH"
);
}
);
};
components = (
{
name = E;
},
{
name = breve;
transform = "{1, 0, 0, 1, 117, 230}";
}
);
layerId = "0B1DFD06-3317-40CA-B510-4969A0718C16";
width = 613;
},
{
background = {
paths = (
{
closed = 1;
nodes = (
"554 0 LINE",
"571 179 LINE",
"544 179 LINE",
"538 124 OFFCURVE",
"520 40 OFFCURVE",
"456 40 CURVE SMOOTH",
"201 40 LINE",
"201 659 LINE",
"441 659 LINE SMOOTH",
"516 659 OFFCURVE",
"525 567 OFFCURVE",
"528 527 CURVE",
"555 527 LINE",
"555 700 LINE",
"16 700 LINE",
"16 673 LINE",
"44 673 LINE SMOOTH",
"83 673 OFFCURVE",
"103 662 OFFCURVE",
"103 637 CURVE SMOOTH",
"103 62 LINE SMOOTH",
"103 37 OFFCURVE",
"83 26 OFFCURVE",
"44 26 CURVE SMOOTH",
"16 26 LINE",
"16 0 LINE"
);
},
{
closed = 1;
nodes = (
"455 251 LINE",
"455 485 LINE",
"431 485 LINE",
"427 436 OFFCURVE",
"424 388 OFFCURVE",
"379 388 CURVE SMOOTH",
"162 388 LINE",
"162 348 LINE",
"379 348 LINE SMOOTH",
"424 348 OFFCURVE",
"427 300 OFFCURVE",
"431 251 CURVE"
);
},
{
closed = 1;
nodes = (
"432 776 OFFCURVE",
"474 832 OFFCURVE",
"478 907 CURVE",
"445 907 LINE",
"439 848 OFFCURVE",
"397 822 OFFCURVE",
"333 822 CURVE SMOOTH",
"269 822 OFFCURVE",
"226 848 OFFCURVE",
"219 907 CURVE",
"186 907 LINE",
"190 829 OFFCURVE",
"232 776 OFFCURVE",
"333 776 CURVE SMOOTH"
);
}
);
};
components = (
{
name = E;
},
{
name = breve;
transform = "{1, 0, 0, 1, 127, 220}";
}
);
layerId = "258BB4CE-589F-454F-8E39-237B943AA0B4";
width = 638;
},
{
components = (
{
name = E;
},
{
name = breve;
transform = "{1, 0, 0, 1, 108, 226}";
}
);
layerId = "8ED59CAD-D047-43C0-8308-3370007B39AA";
width = 621;
}
);
note = Ebreve;
rightKerningGroup = E;
unicode = 0114;
},
{
glyphname = Ecaron;
lastChange = "2018-03-10 08:40:14 +0000";
layers = (
{
background = {
paths = (
{
closed = 1;
nodes = (
"554 0 LINE",
"571 179 LINE",
"544 179 LINE",
"538 124 OFFCURVE",
"520 40 OFFCURVE",
"456 40 CURVE SMOOTH",
"201 40 LINE",
"201 659 LINE",
"441 659 LINE SMOOTH",
"516 659 OFFCURVE",
"525 567 OFFCURVE",
"528 527 CURVE",
"555 527 LINE",
"555 700 LINE",
"16 700 LINE",
"16 673 LINE",
"44 673 LINE SMOOTH",
"83 673 OFFCURVE",
"103 662 OFFCURVE",
"103 637 CURVE SMOOTH",
"103 62 LINE SMOOTH",
"103 37 OFFCURVE",
"83 26 OFFCURVE",
"44 26 CURVE SMOOTH",
"16 26 LINE",
"16 0 LINE"
);
},
{
closed = 1;
nodes = (
"455 251 LINE",
"455 485 LINE",
"431 485 LINE",
"427 436 OFFCURVE",
"424 388 OFFCURVE",
"379 388 CURVE SMOOTH",
"162 388 LINE",
"162 348 LINE",
"379 348 LINE SMOOTH",
"424 348 OFFCURVE",
"427 300 OFFCURVE",
"431 251 CURVE"
);
},
{
closed = 1;
nodes = (
"357 782 LINE",
"481 911 LINE",
"462 932 LINE",
"354 847 LINE",
"346 840 OFFCURVE",
"337 836 OFFCURVE",
"331 836 CURVE SMOOTH",
"325 836 OFFCURVE",
"317 840 OFFCURVE",
"307 847 CURVE",
"199 932 LINE",
"180 911 LINE",
"304 782 LINE"
);
}
);
};
components = (
{
name = E;
},
{
name = caron;
transform = "{1, 0, 0, 1, 119, 230}";
}
);
layerId = "0B1DFD06-3317-40CA-B510-4969A0718C16";
width = 613;
},
{
background = {
paths = (
{
closed = 1;
nodes = (
"554 0 LINE",
"571 179 LINE",
"544 179 LINE",
"538 124 OFFCURVE",
"520 40 OFFCURVE",
"456 40 CURVE SMOOTH",
"201 40 LINE",
"201 659 LINE",
"441 659 LINE SMOOTH",
"516 659 OFFCURVE",
"525 567 OFFCURVE",
"528 527 CURVE",
"555 527 LINE",
"555 700 LINE",
"16 700 LINE",
"16 673 LINE",
"44 673 LINE SMOOTH",
"83 673 OFFCURVE",
"103 662 OFFCURVE",
"103 637 CURVE SMOOTH",
"103 62 LINE SMOOTH",
"103 37 OFFCURVE",
"83 26 OFFCURVE",
"44 26 CURVE SMOOTH",
"16 26 LINE",
"16 0 LINE"
);
},
{
closed = 1;
nodes = (
"455 251 LINE",
"455 485 LINE",
"431 485 LINE",
"427 436 OFFCURVE",
"424 388 OFFCURVE",
"379 388 CURVE SMOOTH",
"162 388 LINE",
"162 348 LINE",
"379 348 LINE SMOOTH",
"424 348 OFFCURVE",
"427 300 OFFCURVE",
"431 251 CURVE"
);
},
{
closed = 1;
nodes = (
"357 782 LINE",
"481 911 LINE",
"462 932 LINE",
"354 847 LINE",
"346 840 OFFCURVE",
"337 836 OFFCURVE",
"331 836 CURVE SMOOTH",
"325 836 OFFCURVE",
"317 840 OFFCURVE",
"307 847 CURVE",
"199 932 LINE",
"180 911 LINE",
"304 782 LINE"
);
}
);
};
components = (
{
name = E;
},
{
name = caron;
transform = "{1, 0, 0, 1, 111, 220}";
}
);
layerId = "258BB4CE-589F-454F-8E39-237B943AA0B4";
width = 638;
},
{
components = (
{
name = E;
},
{
name = caron;
transform = "{1, 0, 0, 1, 122, 226}";
}
);
layerId = "8ED59CAD-D047-43C0-8308-3370007B39AA";
width = 621;
}
);
note = Ecaron;
rightKerningGroup = E;
unicode = 011A;
},
{
glyphname = Ecircumflex;
lastChange = "2018-03-10 08:40:14 +0000";
layers = (
{
background = {
paths = (
{
closed = 1;
nodes = (
"554 0 LINE",
"571 179 LINE",
"544 179 LINE",
"538 124 OFFCURVE",
"520 40 OFFCURVE",
"456 40 CURVE SMOOTH",
"201 40 LINE",
"201 659 LINE",
"441 659 LINE SMOOTH",
"516 659 OFFCURVE",
"525 567 OFFCURVE",
"528 527 CURVE",
"555 527 LINE",
"555 700 LINE",
"16 700 LINE",
"16 673 LINE",
"44 673 LINE SMOOTH",
"83 673 OFFCURVE",
"103 662 OFFCURVE",
"103 637 CURVE SMOOTH",
"103 62 LINE SMOOTH",
"103 37 OFFCURVE",
"83 26 OFFCURVE",
"44 26 CURVE SMOOTH",
"16 26 LINE",
"16 0 LINE"
);
},
{
closed = 1;
nodes = (
"455 251 LINE",
"455 485 LINE",
"431 485 LINE",
"427 436 OFFCURVE",
"424 388 OFFCURVE",
"379 388 CURVE SMOOTH",
"162 388 LINE",
"162 348 LINE",
"379 348 LINE SMOOTH",
"424 348 OFFCURVE",
"427 300 OFFCURVE",
"431 251 CURVE"
);
},
{
closed = 1;
nodes = (
"304 868 LINE SMOOTH",
"312 874 OFFCURVE",
"322 879 OFFCURVE",
"328 879 CURVE SMOOTH",
"334 879 OFFCURVE",
"342 874 OFFCURVE",
"351 868 CURVE",
"459 782 LINE",
"478 803 LINE",
"354 932 LINE",
"301 932 LINE",
"177 803 LINE",
"196 782 LINE"
);
}
);
};
components = (
{
name = E;
},
{
name = circumflex;
transform = "{1, 0, 0, 1, 119, 230}";
}
);
layerId = "0B1DFD06-3317-40CA-B510-4969A0718C16";
width = 613;
},
{
background = {
paths = (
{
closed = 1;
nodes = (
"554 0 LINE",
"571 179 LINE",
"544 179 LINE",
"538 124 OFFCURVE",
"520 40 OFFCURVE",
"456 40 CURVE SMOOTH",
"201 40 LINE",
"201 659 LINE",
"441 659 LINE SMOOTH",
"516 659 OFFCURVE",
"525 567 OFFCURVE",
"528 527 CURVE",
"555 527 LINE",
"555 700 LINE",
"16 700 LINE",
"16 673 LINE",
"44 673 LINE SMOOTH",
"83 673 OFFCURVE",
"103 662 OFFCURVE",
"103 637 CURVE SMOOTH",
"103 62 LINE SMOOTH",
"103 37 OFFCURVE",
"83 26 OFFCURVE",
"44 26 CURVE SMOOTH",
"16 26 LINE",
"16 0 LINE"
);
},
{
closed = 1;
nodes = (
"455 251 LINE",
"455 485 LINE",
"431 485 LINE",
"427 436 OFFCURVE",
"424 388 OFFCURVE",
"379 388 CURVE SMOOTH",
"162 388 LINE",
"162 348 LINE",
"379 348 LINE SMOOTH",
"424 348 OFFCURVE",
"427 300 OFFCURVE",
"431 251 CURVE"
);
},
{
closed = 1;
nodes = (
"304 868 LINE SMOOTH",
"312 874 OFFCURVE",
"322 879 OFFCURVE",
"328 879 CURVE SMOOTH",
"334 879 OFFCURVE",
"342 874 OFFCURVE",
"351 868 CURVE",
"459 782 LINE",
"478 803 LINE",
"354 932 LINE",
"301 932 LINE",
"177 803 LINE",
"196 782 LINE"
);
}
);
};
components = (
{
name = E;
},
{
name = circumflex;
transform = "{1, 0, 0, 1, 111, 220}";
}
);
layerId = "258BB4CE-589F-454F-8E39-237B943AA0B4";
width = 638;
},
{
components = (
{
name = E;
},
{
name = circumflex;
transform = "{1, 0, 0, 1, 122, 226}";
}
);
layerId = "8ED59CAD-D047-43C0-8308-3370007B39AA";
width = 621;
}
);
note = Ecircumflex;
rightKerningGroup = E;
unicode = 00CA;
},
{
glyphname = Ecircumflexacute;
lastChange = "2018-03-10 08:40:14 +0000";
layers = (
{
background = {
paths = (
{
closed = 1;
nodes = (
"554 0 LINE",
"571 179 LINE",
"544 179 LINE",
"538 124 OFFCURVE",
"520 40 OFFCURVE",
"456 40 CURVE SMOOTH",
"201 40 LINE",
"201 659 LINE",
"441 659 LINE SMOOTH",
"516 659 OFFCURVE",
"525 567 OFFCURVE",
"528 527 CURVE",
"555 527 LINE",
"555 700 LINE",
"16 700 LINE",
"16 673 LINE",
"44 673 LINE SMOOTH",
"83 673 OFFCURVE",
"103 662 OFFCURVE",
"103 637 CURVE SMOOTH",
"103 62 LINE SMOOTH",
"103 37 OFFCURVE",
"83 26 OFFCURVE",
"44 26 CURVE SMOOTH",
"16 26 LINE",
"16 0 LINE"
);
},
{
closed = 1;
nodes = (
"455 251 LINE",
"455 485 LINE",
"431 485 LINE",
"427 436 OFFCURVE",
"424 388 OFFCURVE",
"379 388 CURVE SMOOTH",
"162 388 LINE",
"162 348 LINE",
"379 348 LINE SMOOTH",
"424 348 OFFCURVE",
"427 300 OFFCURVE",
"431 251 CURVE"
);
},
{
closed = 1;
nodes = (
"290 862 LINE SMOOTH",
"300 870 OFFCURVE",
"310 878 OFFCURVE",
"318 878 CURVE SMOOTH",
"324 878 OFFCURVE",
"332 873 OFFCURVE",
"341 867 CURVE",
"447 781 LINE",
"466 803 LINE",
"344 932 LINE",
"293 932 LINE",
"171 803 LINE",
"189 781 LINE"
);
},
{
closed = 1;
nodes = (
"555 960 LINE SMOOTH",
"578 972 OFFCURVE",
"591 988 OFFCURVE",
"591 1003 CURVE SMOOTH",
"591 1017 OFFCURVE",
"580 1034 OFFCURVE",
"557 1034 CURVE SMOOTH",
"538 1034 OFFCURVE",
"521 1018 OFFCURVE",
"511 1008 CURVE SMOOTH",
"415 915 LINE",
"433 893 LINE"
);
}
);
};
components = (
{
name = E;
},
{
name = circumflex_acute;
transform = "{1, 0, 0, 1, 557, 230}";
}
);
layerId = "0B1DFD06-3317-40CA-B510-4969A0718C16";
width = 613;
},
{
background = {
paths = (
{
closed = 1;
nodes = (
"554 0 LINE",
"571 179 LINE",
"544 179 LINE",
"538 124 OFFCURVE",
"520 40 OFFCURVE",
"456 40 CURVE SMOOTH",
"201 40 LINE",
"201 659 LINE",
"441 659 LINE SMOOTH",
"516 659 OFFCURVE",
"525 567 OFFCURVE",
"528 527 CURVE",
"555 527 LINE",
"555 700 LINE",
"16 700 LINE",
"16 673 LINE",
"44 673 LINE SMOOTH",
"83 673 OFFCURVE",
"103 662 OFFCURVE",
"103 637 CURVE SMOOTH",
"103 62 LINE SMOOTH",
"103 37 OFFCURVE",
"83 26 OFFCURVE",
"44 26 CURVE SMOOTH",
"16 26 LINE",
"16 0 LINE"
);
},
{
closed = 1;
nodes = (
"455 251 LINE",
"455 485 LINE",
"431 485 LINE",
"427 436 OFFCURVE",
"424 388 OFFCURVE",
"379 388 CURVE SMOOTH",
"162 388 LINE",
"162 348 LINE",
"379 348 LINE SMOOTH",
"424 348 OFFCURVE",
"427 300 OFFCURVE",
"431 251 CURVE"
);
},
{
closed = 1;
nodes = (
"290 862 LINE SMOOTH",
"300 870 OFFCURVE",
"310 878 OFFCURVE",
"318 878 CURVE SMOOTH",
"324 878 OFFCURVE",
"332 873 OFFCURVE",
"341 867 CURVE",
"447 781 LINE",
"466 803 LINE",
"344 932 LINE",
"293 932 LINE",
"171 803 LINE",
"189 781 LINE"
);
},
{
closed = 1;
nodes = (
"555 960 LINE SMOOTH",
"578 972 OFFCURVE",
"591 988 OFFCURVE",
"591 1003 CURVE SMOOTH",
"591 1017 OFFCURVE",
"580 1034 OFFCURVE",
"557 1034 CURVE SMOOTH",
"538 1034 OFFCURVE",
"521 1018 OFFCURVE",
"511 1008 CURVE SMOOTH",
"415 915 LINE",
"433 893 LINE"
);
}
);
};
components = (
{
name = E;
},
{
name = circumflex_acute;
transform = "{1, 0, 0, 1, 567, 220}";
}
);
layerId = "258BB4CE-589F-454F-8E39-237B943AA0B4";
width = 638;
},
{
components = (
{
name = E;
},
{
name = circumflex_acute;
transform = "{1, 0, 0, 1, 563, 226}";
}
);
layerId = "8ED59CAD-D047-43C0-8308-3370007B39AA";
width = 621;
}
);
note = Ecircumflexacute;
rightKerningGroup = E;
unicode = 1EBE;
},
{
glyphname = Ecircumflexdotbelow;
lastChange = "2018-03-10 08:40:14 +0000";
layers = (
{
background = {
paths = (
{
closed = 1;
nodes = (
"554 0 LINE",
"571 179 LINE",
"544 179 LINE",
"538 124 OFFCURVE",
"520 40 OFFCURVE",
"456 40 CURVE SMOOTH",
"201 40 LINE",
"201 659 LINE",
"441 659 LINE SMOOTH",
"516 659 OFFCURVE",
"525 567 OFFCURVE",
"528 527 CURVE",
"555 527 LINE",
"555 700 LINE",
"16 700 LINE",
"16 673 LINE",
"44 673 LINE SMOOTH",
"83 673 OFFCURVE",
"103 662 OFFCURVE",
"103 637 CURVE SMOOTH",
"103 62 LINE SMOOTH",
"103 37 OFFCURVE",
"83 26 OFFCURVE",
"44 26 CURVE SMOOTH",
"16 26 LINE",
"16 0 LINE"
);
},
{
closed = 1;
nodes = (
"350 -159 OFFCURVE",
"368 -140 OFFCURVE",
"368 -112 CURVE SMOOTH",
"368 -84 OFFCURVE",
"350 -64 OFFCURVE",
"322 -64 CURVE SMOOTH",
"294 -64 OFFCURVE",
"275 -84 OFFCURVE",
"275 -112 CURVE SMOOTH",
"275 -140 OFFCURVE",
"294 -159 OFFCURVE",
"322 -159 CURVE SMOOTH"
);
},
{
closed = 1;
nodes = (
"455 251 LINE",
"455 485 LINE",
"431 485 LINE",
"427 436 OFFCURVE",
"424 388 OFFCURVE",
"379 388 CURVE SMOOTH",
"162 388 LINE",
"162 348 LINE",
"379 348 LINE SMOOTH",
"424 348 OFFCURVE",
"427 300 OFFCURVE",
"431 251 CURVE"
);
},
{
closed = 1;
nodes = (
"294 868 LINE SMOOTH",
"302 874 OFFCURVE",
"312 879 OFFCURVE",
"318 879 CURVE SMOOTH",
"324 879 OFFCURVE",
"332 874 OFFCURVE",
"341 868 CURVE",
"449 782 LINE",
"468 803 LINE",
"344 932 LINE",
"291 932 LINE",
"167 803 LINE",
"186 782 LINE"
);
}
);
};
components = (
{
name = E;
},
{
name = dotbelowcomb;
transform = "{1, 0, 0, 1, 214, 0}";
},
{
name = circumflex;
transform = "{1, 0, 0, 1, 119, 230}";
}
);
layerId = "0B1DFD06-3317-40CA-B510-4969A0718C16";
width = 613;
},
{
background = {
paths = (
{
closed = 1;
nodes = (
"554 0 LINE",
"571 179 LINE",
"544 179 LINE",
"538 124 OFFCURVE",
"520 40 OFFCURVE",
"456 40 CURVE SMOOTH",
"201 40 LINE",
"201 659 LINE",
"441 659 LINE SMOOTH",
"516 659 OFFCURVE",
"525 567 OFFCURVE",
"528 527 CURVE",
"555 527 LINE",
"555 700 LINE",
"16 700 LINE",
"16 673 LINE",
"44 673 LINE SMOOTH",
"83 673 OFFCURVE",
"103 662 OFFCURVE",
"103 637 CURVE SMOOTH",
"103 62 LINE SMOOTH",
"103 37 OFFCURVE",
"83 26 OFFCURVE",
"44 26 CURVE SMOOTH",
"16 26 LINE",
"16 0 LINE"
);
},
{
closed = 1;
nodes = (
"350 -159 OFFCURVE",
"368 -140 OFFCURVE",
"368 -112 CURVE SMOOTH",
"368 -84 OFFCURVE",
"350 -64 OFFCURVE",
"322 -64 CURVE SMOOTH",
"294 -64 OFFCURVE",
"275 -84 OFFCURVE",
"275 -112 CURVE SMOOTH",
"275 -140 OFFCURVE",
"294 -159 OFFCURVE",
"322 -159 CURVE SMOOTH"
);
},
{
closed = 1;
nodes = (
"455 251 LINE",
"455 485 LINE",
"431 485 LINE",
"427 436 OFFCURVE",
"424 388 OFFCURVE",
"379 388 CURVE SMOOTH",
"162 388 LINE",
"162 348 LINE",
"379 348 LINE SMOOTH",
"424 348 OFFCURVE",
"427 300 OFFCURVE",
"431 251 CURVE"
);
},
{
closed = 1;
nodes = (
"294 868 LINE SMOOTH",
"302 874 OFFCURVE",
"312 879 OFFCURVE",
"318 879 CURVE SMOOTH",
"324 879 OFFCURVE",
"332 874 OFFCURVE",
"341 868 CURVE",
"449 782 LINE",
"468 803 LINE",
"344 932 LINE",
"291 932 LINE",
"167 803 LINE",
"186 782 LINE"
);
}
);
};
components = (
{
name = E;
},
{
name = dotbelowcomb;
transform = "{1, 0, 0, 1, 201, 0}";
},
{
name = circumflex;
transform = "{1, 0, 0, 1, 111, 220}";
}
);
layerId = "258BB4CE-589F-454F-8E39-237B943AA0B4";
width = 638;
},
{
components = (
{
name = E;
},
{
name = dotbelowcomb;
transform = "{1, 0, 0, 1, 215, 0}";
},
{
name = circumflex;
transform = "{1, 0, 0, 1, 122, 226}";
}
);
layerId = "8ED59CAD-D047-43C0-8308-3370007B39AA";
width = 621;
}
);
note = Ecircumflexdotbelow;
rightKerningGroup = E;
unicode = 1EC6;
},
